SplineFontDB: 3.0
FontName: UnifontLANGDEV
FullName: Unifont LANGDEV
FamilyName: Unifont LANGDEV
Weight: Medium
Copyright: Copyright (C) 2016 Margaret "Go" Shoemake. Licensed under the GNU General Public License; either version 2, or (at your option) a later version, with the GNU Font Embedding Exception.
UComments: "See http://fontforge.sf.net for information on FontForge."
Version: 2.1.00
ItalicAngle: 0
UnderlinePosition: -100
UnderlineWidth: 40
Ascent: 896
Descent: 128
InvalidEm: 0
LayerCount: 2
Layer: 0 0 "Back" 1
Layer: 1 0 "Fore" 0
XUID: [1021 140 1293607838 5610107]
FSType: 0
OS2Version: 0
OS2_WeightWidthSlopeOnly: 0
OS2_UseTypoMetrics: 0
CreationTime: 1472988369
ModificationTime: 1472988376
PfmFamily: 33
TTFWeight: 500
TTFWidth: 5
LineGap: 72
VLineGap: 0
Panose: 2 0 6 4 0 0 0 0 0 0
OS2TypoAscent: 0
OS2TypoAOffset: 1
OS2TypoDescent: 0
OS2TypoDOffset: 1
OS2TypoLinegap: 0
OS2WinAscent: 0
OS2WinAOffset: 1
OS2WinDescent: 0
OS2WinDOffset: 1
HheadAscent: 0
HheadAOffset: 1
HheadDescent: 0
HheadDOffset: 1
OS2Vendor: 'PfEd'
DEI: 91125
Encoding: UnicodeBmp
UnicodeInterp: none
NameList: AGL For New Fonts
DisplaySize: -24
AntiAlias: 1
FitToEm: 1
TeXData: 1 0 0 346030 173015 115343 0 1048576 115343 783286 444596 497025 792723 393216 433062 380633 303038 157286 324010 404750 52429 2506097 1059062 262144
BeginChars: 1054720 2068

StartChar: .notdef
Encoding: -1 -1 0
Width: 512
Flags: HW
LayerCount: 2
Fore
SplineSet
448 640 m 25
 448 704 l 25
 64 704 l 25
 64 640 l 25
 448 640 l 25
448 576 m 25
 448 640 l 25
 320 640 l 25
 320 576 l 25
 448 576 l 25
192 576 m 25
 192 640 l 25
 64 640 l 25
 64 576 l 25
 192 576 l 25
448 512 m 25
 448 576 l 25
 384 576 l 25
 384 512 l 25
 448 512 l 25
320 512 m 25
 320 576 l 25
 192 576 l 25
 192 512 l 25
 320 512 l 25
128 512 m 25
 128 576 l 25
 64 576 l 25
 64 512 l 25
 128 512 l 25
448 448 m 25
 448 512 l 25
 384 512 l 25
 384 448 l 25
 448 448 l 25
320 448 m 25
 320 512 l 25
 192 512 l 25
 192 448 l 25
 320 448 l 25
128 448 m 25
 128 512 l 25
 64 512 l 25
 64 448 l 25
 128 448 l 25
448 384 m 25
 448 448 l 25
 384 448 l 25
 384 384 l 25
 448 384 l 25
320 384 m 25
 320 448 l 25
 64 448 l 25
 64 384 l 25
 320 384 l 25
448 320 m 25
 448 384 l 25
 320 384 l 25
 320 320 l 25
 448 320 l 25
256 320 m 25
 256 384 l 25
 64 384 l 25
 64 320 l 25
 256 320 l 25
448 256 m 25
 448 320 l 25
 320 320 l 25
 320 256 l 25
 448 256 l 25
256 256 m 25
 256 320 l 25
 64 320 l 25
 64 256 l 25
 256 256 l 25
448 192 m 25
 448 256 l 25
 64 256 l 25
 64 192 l 25
 448 192 l 25
448 128 m 25
 448 192 l 25
 320 192 l 25
 320 128 l 25
 448 128 l 25
256 128 m 25
 256 192 l 25
 64 192 l 25
 64 128 l 25
 256 128 l 25
448 64 m 25
 448 128 l 25
 320 128 l 25
 320 64 l 25
 448 64 l 25
256 64 m 25
 256 128 l 25
 64 128 l 25
 64 64 l 25
 256 64 l 25
448 0 m 25
 448 64 l 25
 64 64 l 25
 64 0 l 25
 448 0 l 25
EndSplineSet
EndChar

StartChar: uni101000
Encoding: 1052672 1052672 20
Width: 512
Flags: HW
LayerCount: 2
Fore
SplineSet
448 256 m 1
 448 320 l 1
 320 320 l 1
 320 362.666666667 320 405.333333333 320 448 c 1
 256 448 l 1
 256 405.333333333 256 362.666666667 256 320 c 1
 192 320 l 1
 192 277.333333333 192 234.666666667 192 192 c 1
 128 192 l 1
 128 149.333333333 128 106.666666667 128 64 c 1
 64 64 l 1
 64 0 l 1
 128 0 l 1
 128 64 l 1
 192 64 l 1
 192 106.666666667 192 149.333333333 192 192 c 1
 256 192 l 1
 256 256 l 1
 448 256 l 1
448 576 m 1
 448 640 l 1
 384 640 l 1
 384 576 l 1
 320 576 l 1
 320 533.333333333 320 490.666666667 320 448 c 1
 384 448 l 1
 384 490.666666667 384 533.333333333 384 576 c 1
 448 576 l 1
EndSplineSet
EndChar

StartChar: uni101001
Encoding: 1052673 1052673 21
Width: 512
Flags: HW
LayerCount: 2
Fore
SplineSet
384 320 m 1
 384 0 l 1
 448 0 l 1
 448 213.333333333 448 426.666666667 448 640 c 1
 384 640 l 1
 384 554.666666667 384 469.333333333 384 384 c 1
 192 384 l 1
 192 320 l 1
 384 320 l 1
192 384 m 1
 192 448 l 1
 128 448 l 1
 128 384 l 1
 192 384 l 1
128 448 m 1
 128 640 l 1
 64 640 l 1
 64 448 l 1
 128 448 l 1
EndSplineSet
EndChar

StartChar: uni101002
Encoding: 1052674 1052674 22
Width: 512
Flags: HW
LayerCount: 2
Fore
SplineSet
448 0 m 1
 448 64 l 1
 64 64 l 1
 64 0 l 1
 448 0 l 1
448 192 m 1
 448 256 l 1
 384 256 l 1
 384 192 l 1
 128 192 l 1
 128 128 l 1
 384 128 l 1
 384 192 l 1
 448 192 l 1
448 512 m 1
 448 576 l 1
 384 576 l 1
 384 512 l 1
 448 512 l 1
128 192 m 1
 128 320 128 448 128 576 c 1
 64 576 l 1
 64 448 64 320 64 192 c 1
 128 192 l 1
128 576 m 1
 384 576 l 1
 384 640 l 1
 128 640 l 1
 128 576 l 1
EndSplineSet
EndChar

StartChar: uni101003
Encoding: 1052675 1052675 23
Width: 512
Flags: HW
LayerCount: 2
Fore
SplineSet
448 0 m 1
 448 64 l 1
 256 64 l 1
 256 0 l 1
 448 0 l 1
448 576 m 1
 448 640 l 1
 256 640 l 1
 256 576 l 1
 192 576 l 1
 192 512 l 1
 128 512 l 1
 128 448 l 1
 64 448 l 1
 64 362.666666667 64 277.333333333 64 192 c 1
 128 192 l 1
 128 128 l 1
 192 128 l 1
 192 64 l 1
 256 64 l 1
 256 128 l 1
 192 128 l 1
 192 192 l 1
 128 192 l 1
 128 277.333333333 128 362.666666667 128 448 c 1
 192 448 l 1
 192 512 l 1
 256 512 l 1
 256 576 l 1
 448 576 l 1
EndSplineSet
EndChar

StartChar: uni101004
Encoding: 1052676 1052676 24
Width: 512
Flags: HW
LayerCount: 2
Fore
SplineSet
512 512 m 1
 512 576 l 1
 448 576 l 1
 448 512 l 1
 384 512 l 1
 384 576 l 1
 320 576 l 1
 320 512 l 1
 256 512 l 1
 256 448 l 1
 128 448 l 1
 128 512 l 1
 64 512 l 1
 64 469.333333333 64 426.666666667 64 384 c 1
 0 384 l 1
 0 320 l 1
 64 320 l 1
 64 0 l 1
 128 0 l 1
 128 128 128 256 128 384 c 1
 256 384 l 1
 256 448 l 1
 384 448 l 1
 384 0 l 1
 448 0 l 1
 448 170.666666667 448 341.333333333 448 512 c 1
 512 512 l 1
128 512 m 1
 192 512 l 1
 192 576 l 1
 128 576 l 1
 128 512 l 1
192 576 m 1
 320 576 l 1
 320 640 l 1
 192 640 l 1
 192 576 l 1
EndSplineSet
EndChar

StartChar: uni101005
Encoding: 1052677 1052677 25
Width: 512
Flags: HW
LayerCount: 2
Fore
SplineSet
64 640 m 1
 64 426.666666667 64 213.333333333 64 0 c 1
 320 0 l 1
 320 64 l 1
 128 64 l 1
 128 234.666666667 128 405.333333333 128 576 c 1
 320 576 l 1
 320 512 l 1
 384 512 l 1
 384 384 384 256 384 128 c 1
 320 128 l 1
 320 64 l 1
 384 64 l 1
 384 128 l 1
 448 128 l 1
 448 256 448 384 448 512 c 1
 384 512 l 1
 384 576 l 1
 320 576 l 1
 320 640 l 1
 64 640 l 1
EndSplineSet
EndChar

StartChar: uni101006
Encoding: 1052678 1052678 26
Width: 512
Flags: HW
LayerCount: 2
Fore
SplineSet
448 0 m 1
 448 64 l 1
 320 64 l 1
 320 0 l 1
 448 0 l 1
192 64 m 1
 64 64 l 1
 64 0 l 1
 192 0 l 1
 192 64 l 1
192 64 m 1
 320 64 l 1
 320 128 l 1
 192 128 l 1
 192 64 l 1
192 128 m 1
 192 192 l 1
 128 192 l 1
 128 128 l 1
 192 128 l 1
320 128 m 1
 384 128 l 1
 384 170.666666667 384 213.333333333 384 256 c 1
 320 256 l 1
 320 213.333333333 320 170.666666667 320 128 c 1
128 192 m 1
 128 512 l 1
 64 512 l 1
 64 192 l 1
 128 192 l 1
384 256 m 1
 448 256 l 1
 448 341.333333333 448 426.666666667 448 512 c 1
 384 512 l 1
 384 426.666666667 384 341.333333333 384 256 c 1
128 512 m 1
 192 512 l 1
 192 576 l 1
 128 576 l 1
 128 512 l 1
384 512 m 1
 384 576 l 1
 320 576 l 1
 320 512 l 1
 384 512 l 1
192 576 m 1
 320 576 l 1
 320 640 l 1
 192 640 l 1
 192 576 l 1
EndSplineSet
EndChar

StartChar: uni101007
Encoding: 1052679 1052679 27
Width: 512
Flags: HW
LayerCount: 2
Fore
SplineSet
448 384 m 1
 448 448 l 1
 384 448 l 1
 384 384 l 1
 320 384 l 1
 320 469.333333333 320 554.666666667 320 640 c 1
 256 640 l 1
 256 320 l 1
 192 320 l 1
 192 256 l 1
 128 256 l 1
 128 192 l 1
 192 192 l 1
 192 256 l 1
 256 256 l 1
 256 170.666666667 256 85.3333333333 256 0 c 1
 320 0 l 1
 320 320 l 1
 384 320 l 1
 384 384 l 1
 448 384 l 1
EndSplineSet
EndChar

StartChar: uni101008
Encoding: 1052680 1052680 28
Width: 512
Flags: HW
LayerCount: 2
Fore
SplineSet
256 640 m 1
 256 426.666666667 256 213.333333333 256 0 c 1
 320 0 l 1
 320 213.333333333 320 426.666666667 320 640 c 1
 256 640 l 1
EndSplineSet
EndChar

StartChar: uni101009
Encoding: 1052681 1052681 29
Width: 512
Flags: HW
LayerCount: 2
Fore
SplineSet
448 448 m 1
 448 512 l 1
 384 512 l 1
 384 448 l 1
 448 448 l 1
384 576 m 1
 384 640 l 1
 320 640 l 1
 320 576 l 1
 384 576 l 1
64 192 m 1
 64 0 l 1
 128 0 l 1
 128 192 l 1
 64 192 l 1
384 192 m 1
 384 0 l 1
 448 0 l 1
 448 192 l 1
 384 192 l 1
128 192 m 1
 192 192 l 1
 192 277.333333333 192 362.666666667 192 448 c 1
 128 448 l 1
 128 362.666666667 128 277.333333333 128 192 c 1
384 192 m 1
 384 384 l 1
 320 384 l 1
 320 192 l 1
 384 192 l 1
320 384 m 1
 320 426.666666667 320 469.333333333 320 512 c 1
 256 512 l 1
 256 554.666666667 256 597.333333333 256 640 c 1
 192 640 l 1
 192 448 l 1
 256 448 l 1
 256 384 l 1
 320 384 l 1
EndSplineSet
EndChar

StartChar: uni10100A
Encoding: 1052682 1052682 30
Width: 512
Flags: HW
LayerCount: 2
Fore
SplineSet
384 256 m 1
 384 170.666666667 384 85.3333333333 384 0 c 1
 448 0 l 1
 448 213.333333333 448 426.666666667 448 640 c 1
 384 640 l 1
 384 576 l 1
 256 576 l 1
 256 512 l 1
 128 512 l 1
 128 448 l 1
 64 448 l 1
 64 384 l 1
 128 384 l 1
 128 320 l 1
 256 320 l 1
 256 256 l 1
 384 256 l 1
256 320 m 1
 256 384 l 1
 128 384 l 1
 128 448 l 1
 256 448 l 1
 256 512 l 1
 384 512 l 1
 384 320 l 1
 256 320 l 1
EndSplineSet
EndChar

StartChar: uni10100B
Encoding: 1052683 1052683 31
Width: 512
Flags: HW
LayerCount: 2
Fore
SplineSet
448 64 m 1
 448 128 l 1
 384 128 l 1
 384 64 l 1
 128 64 l 1
 128 0 l 1
 384 0 l 1
 384 64 l 1
 448 64 l 1
128 64 m 1
 128 256 l 1
 64 256 l 1
 64 64 l 1
 128 64 l 1
128 256 m 1
 256 256 l 1
 256 320 l 1
 128 320 l 1
 128 256 l 1
256 320 m 1
 384 320 l 1
 384 384 l 1
 256 384 l 1
 256 320 l 1
384 384 m 1
 448 384 l 1
 448 576 l 1
 384 576 l 1
 384 384 l 1
128 576 m 1
 64 576 l 1
 64 512 l 1
 128 512 l 1
 128 576 l 1
128 576 m 1
 384 576 l 1
 384 640 l 1
 128 640 l 1
 128 576 l 1
EndSplineSet
EndChar

StartChar: uni10100C
Encoding: 1052684 1052684 32
Width: 512
Flags: HW
LayerCount: 2
Fore
SplineSet
64 576 m 1
 64 0 l 1
 128 0 l 1
 128 576 l 1
 64 576 l 1
384 576 m 1
 384 0 l 1
 448 0 l 1
 448 576 l 1
 384 576 l 1
128 576 m 1
 384 576 l 1
 384 640 l 1
 128 640 l 1
 128 576 l 1
EndSplineSet
EndChar

StartChar: uni10100D
Encoding: 1052685 1052685 33
Width: 512
Flags: HW
LayerCount: 2
Fore
SplineSet
448 320 m 1
 448 384 l 1
 320 384 l 1
 320 469.333333333 320 554.666666667 320 640 c 1
 256 640 l 1
 256 554.666666667 256 469.333333333 256 384 c 1
 64 384 l 1
 64 341.333333333 64 298.666666667 64 256 c 1
 128 256 l 1
 128 213.333333333 128 170.666666667 128 128 c 1
 192 128 l 1
 192 85.3333333333 192 42.6666666667 192 0 c 1
 320 0 l 1
 320 320 l 1
 448 320 l 1
192 128 m 1
 192 170.666666667 192 213.333333333 192 256 c 1
 128 256 l 1
 128 320 l 1
 256 320 l 1
 256 128 l 1
 192 128 l 1
EndSplineSet
EndChar

StartChar: uni10100E
Encoding: 1052686 1052686 34
Width: 512
Flags: HW
LayerCount: 2
Fore
SplineSet
384 576 m 1
 384 640 l 1
 192 640 l 1
 192 576 l 1
 128 576 l 1
 128 512 l 1
 64 512 l 1
 64 384 64 256 64 128 c 1
 128 128 l 1
 128 64 l 1
 192 64 l 1
 192 0 l 1
 320 0 l 1
 320 64 l 1
 192 64 l 1
 192 128 l 1
 128 128 l 1
 128 256 128 384 128 512 c 1
 192 512 l 1
 192 576 l 1
 384 576 l 1
320 64 m 1
 384 64 l 1
 384 128 l 1
 320 128 l 1
 320 64 l 1
384 128 m 1
 448 128 l 1
 448 448 l 1
 384 448 l 1
 384 128 l 1
384 448 m 1
 384 512 l 1
 320 512 l 1
 320 448 l 1
 384 448 l 1
EndSplineSet
EndChar

StartChar: uni10100F
Encoding: 1052687 1052687 35
Width: 512
Flags: HW
LayerCount: 2
Fore
SplineSet
448 64 m 1
 448 128 l 1
 384 128 l 1
 384 64 l 1
 192 64 l 1
 192 0 l 1
 384 0 l 1
 384 64 l 1
 448 64 l 1
320 576 m 1
 320 640 l 1
 192 640 l 1
 192 576 l 1
 128 576 l 1
 128 512 l 1
 64 512 l 1
 64 384 64 256 64 128 c 1
 128 128 l 1
 128 64 l 1
 192 64 l 1
 192 128 l 1
 128 128 l 1
 128 256 128 384 128 512 c 1
 192 512 l 1
 192 576 l 1
 320 576 l 1
320 512 m 1
 320 426.666666667 320 341.333333333 320 256 c 1
 384 256 l 1
 384 341.333333333 384 426.666666667 384 512 c 1
 320 512 l 1
EndSplineSet
EndChar

StartChar: uni101010
Encoding: 1052688 1052688 36
Width: 512
Flags: HW
LayerCount: 2
Fore
SplineSet
448 0 m 1
 448 64 l 1
 384 64 l 1
 384 0 l 1
 448 0 l 1
64 640 m 1
 64 426.666666667 64 213.333333333 64 0 c 1
 128 0 l 1
 128 85.3333333333 128 170.666666667 128 256 c 1
 192 256 l 1
 192 320 l 1
 128 320 l 1
 128 640 l 1
 64 640 l 1
384 64 m 1
 384 149.333333333 384 234.666666667 384 320 c 1
 320 320 l 1
 320 234.666666667 320 149.333333333 320 64 c 1
 384 64 l 1
192 320 m 1
 320 320 l 1
 320 384 l 1
 192 384 l 1
 192 320 l 1
EndSplineSet
EndChar

StartChar: uni101011
Encoding: 1052689 1052689 37
Width: 512
Flags: HW
LayerCount: 2
Fore
SplineSet
256 64 m 1
 64 64 l 1
 64 0 l 1
 256 0 l 1
 256 64 l 1
256 64 m 1
 320 64 l 1
 320 128 l 1
 256 128 l 1
 256 64 l 1
320 128 m 1
 384 128 l 1
 384 192 l 1
 320 192 l 1
 320 128 l 1
384 192 m 1
 448 192 l 1
 448 277.333333333 448 362.666666667 448 448 c 1
 384 448 l 1
 384 362.666666667 384 277.333333333 384 192 c 1
384 448 m 1
 384 512 l 1
 320 512 l 1
 320 448 l 1
 384 448 l 1
320 512 m 1
 320 576 l 1
 256 576 l 1
 256 512 l 1
 320 512 l 1
256 576 m 1
 256 640 l 1
 64 640 l 1
 64 576 l 1
 256 576 l 1
EndSplineSet
EndChar

StartChar: uni101012
Encoding: 1052690 1052690 38
Width: 512
Flags: HW
LayerCount: 2
Fore
SplineSet
64 128 m 1
 64 85.3333333333 64 42.6666666667 64 0 c 1
 128 0 l 1
 128 42.6666666667 128 85.3333333333 128 128 c 1
 64 128 l 1
192 128 m 1
 192 85.3333333333 192 42.6666666667 192 0 c 1
 256 0 l 1
 256 42.6666666667 256 85.3333333333 256 128 c 1
 192 128 l 1
128 128 m 1
 192 128 l 1
 192 320 l 1
 128 320 l 1
 128 128 l 1
256 128 m 1
 320 128 l 1
 320 320 l 1
 256 320 l 1
 256 128 l 1
192 320 m 1
 256 320 l 1
 256 512 l 1
 192 512 l 1
 192 320 l 1
320 320 m 1
 384 320 l 1
 384 512 l 1
 320 512 l 1
 320 320 l 1
256 512 m 1
 320 512 l 1
 320 554.666666667 320 597.333333333 320 640 c 1
 256 640 l 1
 256 597.333333333 256 554.666666667 256 512 c 1
384 512 m 1
 448 512 l 1
 448 554.666666667 448 597.333333333 448 640 c 1
 384 640 l 1
 384 597.333333333 384 554.666666667 384 512 c 1
EndSplineSet
EndChar

StartChar: uni101013
Encoding: 1052691 1052691 39
Width: 512
Flags: HW
LayerCount: 2
Fore
SplineSet
448 0 m 1
 448 64 l 1
 384 64 l 1
 384 0 l 1
 448 0 l 1
64 576 m 1
 64 0 l 1
 128 0 l 1
 128 85.3333333333 128 170.666666667 128 256 c 1
 192 256 l 1
 192 192 l 1
 256 192 l 1
 256 128 l 1
 320 128 l 1
 320 64 l 1
 384 64 l 1
 384 128 l 1
 320 128 l 1
 320 192 l 1
 256 192 l 1
 256 256 l 1
 320 256 l 1
 320 320 l 1
 128 320 l 1
 128 405.333333333 128 490.666666667 128 576 c 1
 64 576 l 1
320 320 m 1
 384 320 l 1
 384 384 l 1
 320 384 l 1
 320 320 l 1
384 384 m 1
 448 384 l 1
 448 426.666666667 448 469.333333333 448 512 c 1
 384 512 l 1
 384 469.333333333 384 426.666666667 384 384 c 1
384 512 m 1
 384 576 l 1
 320 576 l 1
 320 512 l 1
 384 512 l 1
128 576 m 1
 320 576 l 1
 320 640 l 1
 128 640 l 1
 128 576 l 1
EndSplineSet
EndChar

StartChar: uni101014
Encoding: 1052692 1052692 40
Width: 512
Flags: HW
LayerCount: 2
Fore
SplineSet
512 256 m 1
 512 320 l 1
 448 320 l 1
 448 405.333333333 448 490.666666667 448 576 c 1
 384 576 l 1
 384 490.666666667 384 405.333333333 384 320 c 1
 192 320 l 1
 192 405.333333333 192 490.666666667 192 576 c 1
 128 576 l 1
 128 490.666666667 128 405.333333333 128 320 c 1
 64 320 l 1
 64 256 l 1
 128 256 l 1
 128 64 l 1
 192 64 l 1
 192 0 l 1
 384 0 l 1
 384 64 l 1
 192 64 l 1
 192 256 l 1
 384 256 l 1
 384 64 l 1
 448 64 l 1
 448 256 l 1
 512 256 l 1
192 576 m 1
 384 576 l 1
 384 640 l 1
 192 640 l 1
 192 576 l 1
EndSplineSet
EndChar

StartChar: uni101015
Encoding: 1052693 1052693 41
Width: 512
Flags: HW
LayerCount: 2
Fore
SplineSet
512 256 m 1
 512 320 l 1
 320 320 l 1
 320 640 l 1
 256 640 l 1
 256 320 l 1
 64 320 l 1
 64 256 l 1
 256 256 l 1
 256 170.666666667 256 85.3333333333 256 0 c 1
 320 0 l 1
 320 85.3333333333 320 170.666666667 320 256 c 1
 512 256 l 1
EndSplineSet
EndChar

StartChar: uni101016
Encoding: 1052694 1052694 42
Width: 512
Flags: HW
LayerCount: 2
Fore
SplineSet
128 64 m 1
 192 64 l 1
 192 106.666666667 192 149.333333333 192 192 c 1
 128 192 l 1
 128 640 l 1
 64 640 l 1
 64 426.666666667 64 213.333333333 64 0 c 1
 128 0 l 1
 128 64 l 1
384 448 m 1
 384 0 l 1
 448 0 l 1
 448 213.333333333 448 426.666666667 448 640 c 1
 384 640 l 1
 384 576 l 1
 320 576 l 1
 320 533.333333333 320 490.666666667 320 448 c 1
 256 448 l 1
 256 405.333333333 256 362.666666667 256 320 c 1
 192 320 l 1
 192 277.333333333 192 234.666666667 192 192 c 1
 256 192 l 1
 256 234.666666667 256 277.333333333 256 320 c 1
 320 320 l 1
 320 362.666666667 320 405.333333333 320 448 c 1
 384 448 l 1
EndSplineSet
EndChar

StartChar: uni101017
Encoding: 1052695 1052695 43
Width: 512
Flags: HW
LayerCount: 2
Fore
SplineSet
320 640 m 1
 320 704 l 1
 256 704 l 1
 256 640 l 1
 192 640 l 1
 192 597.333333333 192 554.666666667 192 512 c 1
 128 512 l 1
 128 704 l 1
 64 704 l 1
 64 0 l 1
 128 0 l 1
 128 64 l 1
 192 64 l 1
 192 106.666666667 192 149.333333333 192 192 c 1
 128 192 l 1
 128 384 l 1
 192 384 l 1
 192 426.666666667 192 469.333333333 192 512 c 1
 256 512 l 1
 256 554.666666667 256 597.333333333 256 640 c 1
 320 640 l 1
192 192 m 1
 256 192 l 1
 256 234.666666667 256 277.333333333 256 320 c 1
 192 320 l 1
 192 277.333333333 192 234.666666667 192 192 c 1
256 320 m 1
 320 320 l 1
 320 362.666666667 320 405.333333333 320 448 c 1
 256 448 l 1
 256 405.333333333 256 362.666666667 256 320 c 1
320 448 m 1
 384 448 l 1
 384 490.666666667 384 533.333333333 384 576 c 1
 320 576 l 1
 320 533.333333333 320 490.666666667 320 448 c 1
384 576 m 1
 448 576 l 1
 448 618.666666667 448 661.333333333 448 704 c 1
 384 704 l 1
 384 661.333333333 384 618.666666667 384 576 c 1
EndSplineSet
EndChar

StartChar: uni101018
Encoding: 1052696 1052696 44
Width: 512
Flags: HW
LayerCount: 2
Fore
SplineSet
64 128 m 1
 64 85.3333333333 64 42.6666666667 64 0 c 1
 448 0 l 1
 448 42.6666666667 448 85.3333333333 448 128 c 1
 384 128 l 1
 384 64 l 1
 128 64 l 1
 128 128 l 1
 64 128 l 1
128 128 m 1
 192 128 l 1
 192 170.666666667 192 213.333333333 192 256 c 1
 128 256 l 1
 128 213.333333333 128 170.666666667 128 128 c 1
384 128 m 1
 384 170.666666667 384 213.333333333 384 256 c 1
 320 256 l 1
 320 213.333333333 320 170.666666667 320 128 c 1
 384 128 l 1
192 256 m 1
 320 256 l 1
 320 298.666666667 320 341.333333333 320 384 c 1
 192 384 l 1
 192 341.333333333 192 298.666666667 192 256 c 1
192 384 m 1
 192 426.666666667 192 469.333333333 192 512 c 1
 128 512 l 1
 128 469.333333333 128 426.666666667 128 384 c 1
 192 384 l 1
320 384 m 1
 384 384 l 1
 384 426.666666667 384 469.333333333 384 512 c 1
 320 512 l 1
 320 469.333333333 320 426.666666667 320 384 c 1
128 512 m 1
 128 554.666666667 128 597.333333333 128 640 c 1
 64 640 l 1
 64 597.333333333 64 554.666666667 64 512 c 1
 128 512 l 1
384 512 m 1
 448 512 l 1
 448 554.666666667 448 597.333333333 448 640 c 1
 384 640 l 1
 384 597.333333333 384 554.666666667 384 512 c 1
EndSplineSet
EndChar

StartChar: uni101019
Encoding: 1052697 1052697 45
Width: 512
Flags: HW
LayerCount: 2
Fore
SplineSet
64 640 m 1
 64 426.666666667 64 213.333333333 64 0 c 1
 448 0 l 1
 448 213.333333333 448 426.666666667 448 640 c 1
 192 640 l 1
 192 576 l 1
 384 576 l 1
 384 405.333333333 384 234.666666667 384 64 c 1
 128 64 l 1
 128 640 l 1
 64 640 l 1
EndSplineSet
EndChar

StartChar: uni10101A
Encoding: 1052698 1052698 46
Width: 512
Flags: HW
LayerCount: 2
Fore
SplineSet
384 576 m 1
 384 362.666666667 384 149.333333333 384 -64 c 1
 448 -64 l 1
 448 640 l 1
 64 640 l 1
 64 597.333333333 64 554.666666667 64 512 c 1
 128 512 l 1
 128 469.333333333 128 426.666666667 128 384 c 1
 192 384 l 1
 192 192 l 1
 256 192 l 1
 256 149.333333333 256 106.666666667 256 64 c 1
 320 64 l 1
 320 106.666666667 320 149.333333333 320 192 c 1
 256 192 l 1
 256 384 l 1
 192 384 l 1
 192 426.666666667 192 469.333333333 192 512 c 1
 128 512 l 1
 128 576 l 1
 384 576 l 1
EndSplineSet
EndChar

StartChar: uni10101B
Encoding: 1052699 1052699 47
Width: 512
Flags: HW
LayerCount: 2
Fore
SplineSet
448 0 m 1
 448 64 l 1
 64 64 l 1
 64 0 l 1
 448 0 l 1
EndSplineSet
EndChar

StartChar: uni10101C
Encoding: 1052700 1052700 48
Width: 512
Flags: HW
LayerCount: 2
Fore
SplineSet
192 128 m 1
 192 85.3333333333 192 42.6666666667 192 0 c 1
 320 0 l 1
 320 42.6666666667 320 85.3333333333 320 128 c 1
 192 128 l 1
EndSplineSet
EndChar

StartChar: uni10101D
Encoding: 1052701 1052701 49
Width: 512
Flags: HW
LayerCount: 2
Fore
SplineSet
256 128 m 1
 256 85.3333333333 256 42.6666666667 256 0 c 1
 320 0 l 1
 320 42.6666666667 320 85.3333333333 320 128 c 1
 256 128 l 1
256 128 m 1
 256 170.666666667 256 213.333333333 256 256 c 1
 192 256 l 1
 192 213.333333333 192 170.666666667 192 128 c 1
 256 128 l 1
192 256 m 1
 192 320 l 1
 384 320 l 1
 384 362.666666667 384 405.333333333 384 448 c 1
 320 448 l 1
 320 384 l 1
 128 384 l 1
 128 341.333333333 128 298.666666667 128 256 c 1
 192 256 l 1
320 448 m 1
 320 490.666666667 320 533.333333333 320 576 c 1
 256 576 l 1
 256 533.333333333 256 490.666666667 256 448 c 1
 320 448 l 1
256 576 m 1
 256 640 l 1
 192 640 l 1
 192 576 l 1
 256 576 l 1
EndSplineSet
EndChar

StartChar: uni10101E
Encoding: 1052702 1052702 50
Width: 512
Flags: HW
LayerCount: 2
Fore
SplineSet
384 576 m 1
 384 640 l 1
 256 640 l 1
 256 597.333333333 256 554.666666667 256 512 c 1
 320 512 l 1
 320 576 l 1
 384 576 l 1
384 704 m 1
 384 768 l 1
 128 768 l 1
 128 682.666666667 128 597.333333333 128 512 c 1
 192 512 l 1
 192 704 l 1
 384 704 l 1
EndSplineSet
EndChar

StartChar: uni10101F
Encoding: 1052703 1052703 51
Width: 512
Flags: HW
LayerCount: 2
Fore
SplineSet
192 576 m 1
 192 512 l 1
 256 512 l 1
 256 554.666666667 256 597.333333333 256 640 c 1
 128 640 l 1
 128 576 l 1
 192 576 l 1
320 704 m 1
 320 512 l 1
 384 512 l 1
 384 597.333333333 384 682.666666667 384 768 c 1
 128 768 l 1
 128 704 l 1
 320 704 l 1
EndSplineSet
EndChar

StartChar: uni101020
Encoding: 1052704 1052704 52
Width: 512
Flags: HW
LayerCount: 2
Fore
SplineSet
448 256 m 1
 448 320 l 1
 128 320 l 1
 128 512 l 1
 64 512 l 1
 64 341.333333333 64 170.666666667 64 0 c 1
 128 0 l 1
 128 85.3333333333 128 170.666666667 128 256 c 1
 448 256 l 1
EndSplineSet
EndChar

StartChar: uni101021
Encoding: 1052705 1052705 53
Width: 512
Flags: HW
LayerCount: 2
Fore
SplineSet
384 64 m 1
 320 64 l 1
 320 0 l 1
 384 0 l 1
 384 64 l 1
384 64 m 1
 448 64 l 1
 448 256 l 1
 384 256 l 1
 384 64 l 1
384 256 m 1
 384 320 l 1
 256 320 l 1
 256 256 l 1
 384 256 l 1
256 320 m 1
 256 384 l 1
 128 384 l 1
 128 320 l 1
 256 320 l 1
128 384 m 1
 128 704 l 1
 64 704 l 1
 64 384 l 1
 128 384 l 1
EndSplineSet
EndChar

StartChar: uni101022
Encoding: 1052706 1052706 54
Width: 512
Flags: HW
LayerCount: 2
Fore
SplineSet
448 0 m 1
 448 64 l 1
 64 64 l 1
 64 0 l 1
 448 0 l 1
448 192 m 1
 448 256 l 1
 384 256 l 1
 384 192 l 1
 128 192 l 1
 128 128 l 1
 384 128 l 1
 384 192 l 1
 448 192 l 1
448 384 m 1
 448 448 l 1
 384 448 l 1
 384 384 l 1
 448 384 l 1
128 192 m 1
 128 277.333333333 128 362.666666667 128 448 c 1
 64 448 l 1
 64 362.666666667 64 277.333333333 64 192 c 1
 128 192 l 1
128 448 m 1
 384 448 l 1
 384 512 l 1
 128 512 l 1
 128 448 l 1
EndSplineSet
EndChar

StartChar: uni101023
Encoding: 1052707 1052707 55
Width: 512
Flags: HW
LayerCount: 2
Fore
SplineSet
448 0 m 1
 448 64 l 1
 192 64 l 1
 192 0 l 1
 448 0 l 1
448 448 m 1
 448 512 l 1
 192 512 l 1
 192 448 l 1
 128 448 l 1
 128 384 l 1
 64 384 l 1
 64 298.666666667 64 213.333333333 64 128 c 1
 128 128 l 1
 128 64 l 1
 192 64 l 1
 192 128 l 1
 128 128 l 1
 128 213.333333333 128 298.666666667 128 384 c 1
 192 384 l 1
 192 448 l 1
 448 448 l 1
EndSplineSet
EndChar

StartChar: uni101024
Encoding: 1052708 1052708 56
Width: 512
Flags: HW
LayerCount: 2
Fore
SplineSet
384 512 m 1
 384 576 l 1
 256 576 l 1
 256 512 l 1
 128 512 l 1
 128 448 l 1
 256 448 l 1
 256 512 l 1
 384 512 l 1
64 256 m 1
 64 170.666666667 64 85.3333333333 64 0 c 1
 128 0 l 1
 128 85.3333333333 128 170.666666667 128 256 c 1
 64 256 l 1
384 256 m 1
 384 170.666666667 384 85.3333333333 384 0 c 1
 448 0 l 1
 448 85.3333333333 448 170.666666667 448 256 c 1
 384 256 l 1
128 256 m 1
 192 256 l 1
 192 320 l 1
 128 320 l 1
 128 256 l 1
384 256 m 1
 384 320 l 1
 320 320 l 1
 320 256 l 1
 384 256 l 1
192 320 m 1
 320 320 l 1
 320 384 l 1
 192 384 l 1
 192 320 l 1
EndSplineSet
EndChar

StartChar: uni101025
Encoding: 1052709 1052709 57
Width: 512
Flags: HW
LayerCount: 2
Fore
SplineSet
64 512 m 1
 64 341.333333333 64 170.666666667 64 0 c 1
 320 0 l 1
 320 64 l 1
 128 64 l 1
 128 192 128 320 128 448 c 1
 320 448 l 1
 320 384 l 1
 384 384 l 1
 384 298.666666667 384 213.333333333 384 128 c 1
 320 128 l 1
 320 64 l 1
 384 64 l 1
 384 128 l 1
 448 128 l 1
 448 213.333333333 448 298.666666667 448 384 c 1
 384 384 l 1
 384 448 l 1
 320 448 l 1
 320 512 l 1
 64 512 l 1
EndSplineSet
EndChar

StartChar: uni101026
Encoding: 1052710 1052710 58
Width: 512
Flags: HW
LayerCount: 2
Fore
SplineSet
448 0 m 1
 448 64 l 1
 320 64 l 1
 320 0 l 1
 448 0 l 1
192 64 m 1
 64 64 l 1
 64 0 l 1
 192 0 l 1
 192 64 l 1
192 64 m 1
 320 64 l 1
 320 128 l 1
 192 128 l 1
 192 64 l 1
192 128 m 1
 192 192 l 1
 128 192 l 1
 128 128 l 1
 192 128 l 1
320 128 m 1
 384 128 l 1
 384 192 l 1
 320 192 l 1
 320 128 l 1
128 192 m 1
 128 384 l 1
 64 384 l 1
 64 192 l 1
 128 192 l 1
384 192 m 1
 448 192 l 1
 448 384 l 1
 384 384 l 1
 384 192 l 1
128 384 m 1
 192 384 l 1
 192 448 l 1
 128 448 l 1
 128 384 l 1
384 384 m 1
 384 448 l 1
 320 448 l 1
 320 384 l 1
 384 384 l 1
192 448 m 1
 320 448 l 1
 320 512 l 1
 192 512 l 1
 192 448 l 1
EndSplineSet
EndChar

StartChar: uni101027
Encoding: 1052711 1052711 59
Width: 512
Flags: HW
LayerCount: 2
Fore
SplineSet
384 512 m 1
 384 576 l 1
 256 576 l 1
 256 512 l 1
 128 512 l 1
 128 448 l 1
 256 448 l 1
 256 512 l 1
 384 512 l 1
192 384 m 1
 192 256 192 128 192 0 c 1
 256 0 l 1
 256 128 256 256 256 384 c 1
 192 384 l 1
EndSplineSet
EndChar

StartChar: uni101028
Encoding: 1052712 1052712 60
Width: 512
Flags: HW
LayerCount: 2
Fore
SplineSet
256 512 m 1
 256 341.333333333 256 170.666666667 256 0 c 1
 320 0 l 1
 320 170.666666667 320 341.333333333 320 512 c 1
 256 512 l 1
EndSplineSet
EndChar

StartChar: uni101029
Encoding: 1052713 1052713 61
Width: 512
Flags: HW
LayerCount: 2
Fore
SplineSet
448 320 m 1
 448 384 l 1
 384 384 l 1
 384 320 l 1
 448 320 l 1
384 448 m 1
 384 512 l 1
 320 512 l 1
 320 448 l 1
 384 448 l 1
64 128 m 1
 64 85.3333333333 64 42.6666666667 64 0 c 1
 128 0 l 1
 128 42.6666666667 128 85.3333333333 128 128 c 1
 64 128 l 1
384 128 m 1
 384 85.3333333333 384 42.6666666667 384 0 c 1
 448 0 l 1
 448 42.6666666667 448 85.3333333333 448 128 c 1
 384 128 l 1
128 128 m 1
 192 128 l 1
 192 320 l 1
 128 320 l 1
 128 128 l 1
384 128 m 1
 384 170.666666667 384 213.333333333 384 256 c 1
 320 256 l 1
 320 213.333333333 320 170.666666667 320 128 c 1
 384 128 l 1
320 256 m 1
 320 298.666666667 320 341.333333333 320 384 c 1
 256 384 l 1
 256 448 l 1
 192 448 l 1
 192 405.333333333 192 362.666666667 192 320 c 1
 256 320 l 1
 256 256 l 1
 320 256 l 1
EndSplineSet
EndChar

StartChar: uni10102A
Encoding: 1052714 1052714 62
Width: 512
Flags: HW
LayerCount: 2
Fore
SplineSet
192 128 m 1
 192 85.3333333333 192 42.6666666667 192 0 c 1
 256 0 l 1
 256 42.6666666667 256 85.3333333333 256 128 c 1
 192 128 l 1
192 128 m 1
 192 320 l 1
 128 320 l 1
 128 128 l 1
 192 128 l 1
256 128 m 1
 320 128 l 1
 320 170.666666667 320 213.333333333 320 256 c 1
 384 256 l 1
 384 298.666666667 384 341.333333333 384 384 c 1
 320 384 l 1
 320 320 l 1
 256 320 l 1
 256 128 l 1
128 320 m 1
 128 512 l 1
 64 512 l 1
 64 320 l 1
 128 320 l 1
192 320 m 1
 256 320 l 1
 256 512 l 1
 192 512 l 1
 192 320 l 1
384 384 m 1
 448 384 l 1
 448 426.666666667 448 469.333333333 448 512 c 1
 384 512 l 1
 384 469.333333333 384 426.666666667 384 384 c 1
EndSplineSet
EndChar

StartChar: uni10102B
Encoding: 1052715 1052715 63
Width: 512
Flags: HW
LayerCount: 2
Fore
SplineSet
448 64 m 1
 448 128 l 1
 384 128 l 1
 384 64 l 1
 128 64 l 1
 128 0 l 1
 384 0 l 1
 384 64 l 1
 448 64 l 1
128 64 m 1
 128 106.666666667 128 149.333333333 128 192 c 1
 64 192 l 1
 64 149.333333333 64 106.666666667 64 64 c 1
 128 64 l 1
128 192 m 1
 256 192 l 1
 256 256 l 1
 128 256 l 1
 128 192 l 1
256 256 m 1
 384 256 l 1
 384 320 l 1
 256 320 l 1
 256 256 l 1
384 320 m 1
 448 320 l 1
 448 362.666666667 448 405.333333333 448 448 c 1
 384 448 l 1
 384 405.333333333 384 362.666666667 384 320 c 1
128 448 m 1
 64 448 l 1
 64 384 l 1
 128 384 l 1
 128 448 l 1
128 448 m 1
 384 448 l 1
 384 512 l 1
 128 512 l 1
 128 448 l 1
EndSplineSet
EndChar

StartChar: uni10102C
Encoding: 1052716 1052716 64
Width: 512
Flags: HW
LayerCount: 2
Fore
SplineSet
192 64 m 1
 192 0 l 1
 320 0 l 1
 320 64 l 1
 192 64 l 1
192 64 m 1
 192 128 l 1
 128 128 l 1
 128 64 l 1
 192 64 l 1
320 64 m 1
 384 64 l 1
 384 128 l 1
 320 128 l 1
 320 64 l 1
128 128 m 1
 128 256 128 384 128 512 c 1
 64 512 l 1
 64 384 64 256 64 128 c 1
 128 128 l 1
384 128 m 1
 448 128 l 1
 448 256 448 384 448 512 c 1
 384 512 l 1
 384 384 384 256 384 128 c 1
EndSplineSet
EndChar

StartChar: uni10102D
Encoding: 1052717 1052717 65
Width: 512
Flags: HW
LayerCount: 2
Fore
SplineSet
256 64 m 1
 256 0 l 1
 320 0 l 1
 320 448 l 1
 384 448 l 1
 384 0 l 1
 448 0 l 1
 448 170.666666667 448 341.333333333 448 512 c 1
 64 512 l 1
 64 320 l 1
 128 320 l 1
 128 277.333333333 128 234.666666667 128 192 c 1
 192 192 l 1
 192 149.333333333 192 106.666666667 192 64 c 1
 256 64 l 1
192 192 m 1
 192 234.666666667 192 277.333333333 192 320 c 1
 128 320 l 1
 128 362.666666667 128 405.333333333 128 448 c 1
 256 448 l 1
 256 362.666666667 256 277.333333333 256 192 c 1
 192 192 l 1
EndSplineSet
EndChar

StartChar: uni10102E
Encoding: 1052718 1052718 66
Width: 512
Flags: HW
LayerCount: 2
Fore
SplineSet
320 448 m 1
 320 512 l 1
 192 512 l 1
 192 448 l 1
 128 448 l 1
 128 384 l 1
 64 384 l 1
 64 298.666666667 64 213.333333333 64 128 c 1
 128 128 l 1
 128 64 l 1
 192 64 l 1
 192 0 l 1
 320 0 l 1
 320 64 l 1
 192 64 l 1
 192 128 l 1
 128 128 l 1
 128 213.333333333 128 298.666666667 128 384 c 1
 192 384 l 1
 192 448 l 1
 320 448 l 1
320 64 m 1
 384 64 l 1
 384 128 l 1
 320 128 l 1
 320 64 l 1
384 128 m 1
 448 128 l 1
 448 320 l 1
 384 320 l 1
 384 128 l 1
384 320 m 1
 384 384 l 1
 320 384 l 1
 320 320 l 1
 384 320 l 1
EndSplineSet
EndChar

StartChar: uni10102F
Encoding: 1052719 1052719 67
Width: 512
Flags: HW
LayerCount: 2
Fore
SplineSet
384 64 m 1
 384 128 l 1
 320 128 l 1
 320 64 l 1
 192 64 l 1
 192 0 l 1
 320 0 l 1
 320 64 l 1
 384 64 l 1
448 384 m 1
 448 448 l 1
 384 448 l 1
 384 384 l 1
 320 384 l 1
 320 320 l 1
 384 320 l 1
 384 384 l 1
 448 384 l 1
320 448 m 1
 320 512 l 1
 192 512 l 1
 192 448 l 1
 128 448 l 1
 128 384 l 1
 64 384 l 1
 64 298.666666667 64 213.333333333 64 128 c 1
 128 128 l 1
 128 64 l 1
 192 64 l 1
 192 128 l 1
 128 128 l 1
 128 213.333333333 128 298.666666667 128 384 c 1
 192 384 l 1
 192 448 l 1
 320 448 l 1
EndSplineSet
EndChar

StartChar: uni101030
Encoding: 1052720 1052720 68
Width: 512
Flags: HW
LayerCount: 2
Fore
SplineSet
64 512 m 1
 64 341.333333333 64 170.666666667 64 0 c 1
 128 0 l 1
 128 128 128 256 128 384 c 1
 192 384 l 1
 192 341.333333333 192 298.666666667 192 256 c 1
 256 256 l 1
 256 213.333333333 256 170.666666667 256 128 c 1
 320 128 l 1
 320 85.3333333333 320 42.6666666667 320 0 c 1
 448 0 l 1
 448 170.666666667 448 341.333333333 448 512 c 1
 384 512 l 1
 384 384 384 256 384 128 c 1
 320 128 l 1
 320 170.666666667 320 213.333333333 320 256 c 1
 256 256 l 1
 256 298.666666667 256 341.333333333 256 384 c 1
 192 384 l 1
 192 426.666666667 192 469.333333333 192 512 c 1
 64 512 l 1
EndSplineSet
EndChar

StartChar: uni101031
Encoding: 1052721 1052721 69
Width: 512
Flags: HW
LayerCount: 2
Fore
SplineSet
320 64 m 1
 64 64 l 1
 64 0 l 1
 320 0 l 1
 320 64 l 1
320 64 m 1
 384 64 l 1
 384 128 l 1
 320 128 l 1
 320 64 l 1
384 128 m 1
 448 128 l 1
 448 213.333333333 448 298.666666667 448 384 c 1
 384 384 l 1
 384 298.666666667 384 213.333333333 384 128 c 1
384 384 m 1
 384 448 l 1
 320 448 l 1
 320 384 l 1
 384 384 l 1
320 448 m 1
 320 512 l 1
 64 512 l 1
 64 448 l 1
 320 448 l 1
EndSplineSet
EndChar

StartChar: uni101032
Encoding: 1052722 1052722 70
Width: 512
Flags: HW
LayerCount: 2
Fore
SplineSet
64 128 m 1
 64 85.3333333333 64 42.6666666667 64 0 c 1
 128 0 l 1
 128 42.6666666667 128 85.3333333333 128 128 c 1
 64 128 l 1
192 128 m 1
 192 85.3333333333 192 42.6666666667 192 0 c 1
 256 0 l 1
 256 42.6666666667 256 85.3333333333 256 128 c 1
 192 128 l 1
128 128 m 1
 192 128 l 1
 192 170.666666667 192 213.333333333 192 256 c 1
 128 256 l 1
 128 213.333333333 128 170.666666667 128 128 c 1
256 128 m 1
 320 128 l 1
 320 170.666666667 320 213.333333333 320 256 c 1
 256 256 l 1
 256 213.333333333 256 170.666666667 256 128 c 1
192 256 m 1
 256 256 l 1
 256 298.666666667 256 341.333333333 256 384 c 1
 192 384 l 1
 192 341.333333333 192 298.666666667 192 256 c 1
320 256 m 1
 384 256 l 1
 384 298.666666667 384 341.333333333 384 384 c 1
 320 384 l 1
 320 341.333333333 320 298.666666667 320 256 c 1
256 384 m 1
 320 384 l 1
 320 426.666666667 320 469.333333333 320 512 c 1
 256 512 l 1
 256 469.333333333 256 426.666666667 256 384 c 1
384 384 m 1
 448 384 l 1
 448 426.666666667 448 469.333333333 448 512 c 1
 384 512 l 1
 384 469.333333333 384 426.666666667 384 384 c 1
EndSplineSet
EndChar

StartChar: uni101033
Encoding: 1052723 1052723 71
Width: 512
Flags: HW
LayerCount: 2
Fore
SplineSet
384 64 m 1
 64 64 l 1
 64 0 l 1
 448 0 l 1
 448 42.6666666667 448 85.3333333333 448 128 c 1
 384 128 l 1
 384 64 l 1
384 128 m 1
 384 170.666666667 384 213.333333333 384 256 c 1
 320 256 l 1
 320 213.333333333 320 170.666666667 320 128 c 1
 384 128 l 1
128 192 m 1
 64 192 l 1
 64 128 l 1
 128 128 l 1
 128 192 l 1
128 192 m 1
 192 192 l 1
 192 234.666666667 192 277.333333333 192 320 c 1
 128 320 l 1
 128 277.333333333 128 234.666666667 128 192 c 1
320 256 m 1
 320 298.666666667 320 341.333333333 320 384 c 1
 256 384 l 1
 256 426.666666667 256 469.333333333 256 512 c 1
 192 512 l 1
 192 320 l 1
 256 320 l 1
 256 256 l 1
 320 256 l 1
EndSplineSet
EndChar

StartChar: uni101034
Encoding: 1052724 1052724 72
Width: 512
Flags: HW
LayerCount: 2
Fore
SplineSet
512 256 m 1
 512 320 l 1
 448 320 l 1
 448 362.666666667 448 405.333333333 448 448 c 1
 384 448 l 1
 384 405.333333333 384 362.666666667 384 320 c 1
 192 320 l 1
 192 362.666666667 192 405.333333333 192 448 c 1
 128 448 l 1
 128 405.333333333 128 362.666666667 128 320 c 1
 64 320 l 1
 64 256 l 1
 128 256 l 1
 128 64 l 1
 192 64 l 1
 192 0 l 1
 384 0 l 1
 384 64 l 1
 192 64 l 1
 192 256 l 1
 384 256 l 1
 384 64 l 1
 448 64 l 1
 448 256 l 1
 512 256 l 1
192 448 m 1
 384 448 l 1
 384 512 l 1
 192 512 l 1
 192 448 l 1
EndSplineSet
EndChar

StartChar: uni101035
Encoding: 1052725 1052725 73
Width: 512
Flags: HW
LayerCount: 2
Fore
SplineSet
448 256 m 1
 448 320 l 1
 320 320 l 1
 320 512 l 1
 256 512 l 1
 256 448 l 1
 192 448 l 1
 192 384 l 1
 128 384 l 1
 128 320 l 1
 64 320 l 1
 64 256 l 1
 256 256 l 1
 256 170.666666667 256 85.3333333333 256 0 c 1
 320 0 l 1
 320 85.3333333333 320 170.666666667 320 256 c 1
 448 256 l 1
192 320 m 1
 192 384 l 1
 256 384 l 1
 256 320 l 1
 192 320 l 1
EndSplineSet
EndChar

StartChar: uni101036
Encoding: 1052726 1052726 74
Width: 512
Flags: HW
LayerCount: 2
Fore
SplineSet
128 64 m 1
 128 0 l 1
 192 0 l 1
 192 64 l 1
 128 64 l 1
128 64 m 1
 128 512 l 1
 64 512 l 1
 64 64 l 1
 128 64 l 1
192 64 m 1
 256 64 l 1
 256 256 l 1
 192 256 l 1
 192 64 l 1
384 448 m 1
 384 0 l 1
 448 0 l 1
 448 448 l 1
 384 448 l 1
256 256 m 1
 320 256 l 1
 320 448 l 1
 256 448 l 1
 256 256 l 1
320 448 m 1
 384 448 l 1
 384 512 l 1
 320 512 l 1
 320 448 l 1
EndSplineSet
EndChar

StartChar: uni101037
Encoding: 1052727 1052727 75
Width: 512
Flags: HW
LayerCount: 2
Fore
SplineSet
448 448 m 1
 448 512 l 1
 384 512 l 1
 384 448 l 1
 320 448 l 1
 320 405.333333333 320 362.666666667 320 320 c 1
 256 320 l 1
 256 256 l 1
 192 256 l 1
 192 192 l 1
 128 192 l 1
 128 234.666666667 128 277.333333333 128 320 c 1
 192 320 l 1
 192 384 l 1
 128 384 l 1
 128 426.666666667 128 469.333333333 128 512 c 1
 64 512 l 1
 64 341.333333333 64 170.666666667 64 0 c 1
 128 0 l 1
 128 64 l 1
 192 64 l 1
 192 106.666666667 192 149.333333333 192 192 c 1
 256 192 l 1
 256 256 l 1
 320 256 l 1
 320 320 l 1
 384 320 l 1
 384 362.666666667 384 405.333333333 384 448 c 1
 448 448 l 1
192 384 m 1
 256 384 l 1
 256 426.666666667 256 469.333333333 256 512 c 1
 192 512 l 1
 192 469.333333333 192 426.666666667 192 384 c 1
EndSplineSet
EndChar

StartChar: uni101038
Encoding: 1052728 1052728 76
Width: 512
Flags: HW
LayerCount: 2
Fore
SplineSet
192 192 m 1
 192 0 l 1
 256 0 l 1
 256 192 l 1
 192 192 l 1
192 192 m 1
 192 384 l 1
 128 384 l 1
 128 192 l 1
 192 192 l 1
320 320 m 1
 320 277.333333333 320 234.666666667 320 192 c 1
 384 192 l 1
 384 234.666666667 384 277.333333333 384 320 c 1
 320 320 l 1
384 320 m 1
 448 320 l 1
 448 512 l 1
 64 512 l 1
 64 469.333333333 64 426.666666667 64 384 c 1
 128 384 l 1
 128 448 l 1
 384 448 l 1
 384 405.333333333 384 362.666666667 384 320 c 1
EndSplineSet
EndChar

StartChar: uni101039
Encoding: 1052729 1052729 77
Width: 512
Flags: HW
LayerCount: 2
Fore
SplineSet
64 512 m 1
 64 341.333333333 64 170.666666667 64 0 c 1
 448 0 l 1
 448 170.666666667 448 341.333333333 448 512 c 1
 192 512 l 1
 192 448 l 1
 384 448 l 1
 384 320 384 192 384 64 c 1
 128 64 l 1
 128 512 l 1
 64 512 l 1
EndSplineSet
EndChar

StartChar: uni10103A
Encoding: 1052730 1052730 78
Width: 512
Flags: HW
LayerCount: 2
Fore
SplineSet
256 128 m 1
 256 85.3333333333 256 42.6666666667 256 0 c 1
 320 0 l 1
 320 42.6666666667 320 85.3333333333 320 128 c 1
 384 128 l 1
 384 170.666666667 384 213.333333333 384 256 c 1
 320 256 l 1
 320 341.333333333 320 426.666666667 320 512 c 1
 256 512 l 1
 256 426.666666667 256 341.333333333 256 256 c 1
 192 256 l 1
 192 213.333333333 192 170.666666667 192 128 c 1
 256 128 l 1
192 256 m 1
 192 298.666666667 192 341.333333333 192 384 c 1
 128 384 l 1
 128 341.333333333 128 298.666666667 128 256 c 1
 192 256 l 1
384 256 m 1
 448 256 l 1
 448 298.666666667 448 341.333333333 448 384 c 1
 384 384 l 1
 384 341.333333333 384 298.666666667 384 256 c 1
128 384 m 1
 128 426.666666667 128 469.333333333 128 512 c 1
 64 512 l 1
 64 469.333333333 64 426.666666667 64 384 c 1
 128 384 l 1
448 384 m 1
 512 384 l 1
 512 426.666666667 512 469.333333333 512 512 c 1
 448 512 l 1
 448 469.333333333 448 426.666666667 448 384 c 1
EndSplineSet
EndChar

StartChar: uni10103B
Encoding: 1052731 1052731 79
Width: 512
Flags: HW
LayerCount: 2
Fore
SplineSet
448 256 m 1
 448 320 l 1
 64 320 l 1
 64 256 l 1
 448 256 l 1
EndSplineSet
EndChar

StartChar: uni10103C
Encoding: 1052732 1052732 80
Width: 512
Flags: HW
LayerCount: 2
Fore
SplineSet
192 128 m 1
 192 85.3333333333 192 42.6666666667 192 0 c 1
 320 0 l 1
 320 42.6666666667 320 85.3333333333 320 128 c 1
 192 128 l 1
192 384 m 1
 192 192 l 1
 256 192 l 1
 256 384 l 1
 192 384 l 1
256 384 m 1
 320 384 l 1
 320 469.333333333 320 554.666666667 320 640 c 1
 256 640 l 1
 256 554.666666667 256 469.333333333 256 384 c 1
EndSplineSet
EndChar

StartChar: uni10103D
Encoding: 1052733 1052733 81
Width: 512
Flags: HW
LayerCount: 2
Fore
SplineSet
384 256 m 1
 384 320 l 1
 128 320 l 1
 128 256 l 1
 384 256 l 1
EndSplineSet
EndChar

StartChar: uni10103E
Encoding: 1052734 1052734 82
Width: 512
Flags: HW
LayerCount: 2
Fore
SplineSet
384 640 m 1
 384 704 l 1
 192 704 l 1
 192 512 l 1
 256 512 l 1
 256 554.666666667 256 597.333333333 256 640 c 1
 384 640 l 1
EndSplineSet
EndChar

StartChar: uni10103F
Encoding: 1052735 1052735 83
Width: 512
Flags: HW
LayerCount: 2
Fore
SplineSet
256 640 m 1
 256 597.333333333 256 554.666666667 256 512 c 1
 320 512 l 1
 320 704 l 1
 128 704 l 1
 128 640 l 1
 256 640 l 1
EndSplineSet
EndChar

StartChar: uni101040
Encoding: 1052736 1052736 84
Width: 512
Flags: HW
LayerCount: 2
Fore
SplineSet
384 640 m 1
 384 704 l 1
 128 704 l 1
 128 448 128 192 128 -64 c 1
 192 -64 l 1
 192 640 l 1
 384 640 l 1
EndSplineSet
EndChar

StartChar: uni101041
Encoding: 1052737 1052737 85
Width: 512
Flags: HW
LayerCount: 2
Fore
SplineSet
320 0 m 1
 128 0 l 1
 128 -64 l 1
 384 -64 l 1
 384 192 384 448 384 704 c 1
 320 704 l 1
 320 0 l 1
EndSplineSet
EndChar

StartChar: uni101042
Encoding: 1052738 1052738 86
Width: 512
Flags: HW
LayerCount: 2
Fore
SplineSet
384 -64 m 1
 384 0 l 1
 192 0 l 1
 192 213.333333333 192 426.666666667 192 640 c 1
 384 640 l 1
 384 704 l 1
 128 704 l 1
 128 448 128 192 128 -64 c 1
 384 -64 l 1
EndSplineSet
EndChar

StartChar: uni101043
Encoding: 1052739 1052739 87
Width: 512
Flags: HW
LayerCount: 2
Fore
SplineSet
320 0 m 1
 128 0 l 1
 128 -64 l 1
 384 -64 l 1
 384 192 384 448 384 704 c 1
 128 704 l 1
 128 640 l 1
 320 640 l 1
 320 426.666666667 320 213.333333333 320 0 c 1
EndSplineSet
EndChar

StartChar: uni101044
Encoding: 1052740 1052740 88
Width: 512
Flags: HW
LayerCount: 2
Fore
SplineSet
448 0 m 1
 448 64 l 1
 64 64 l 1
 64 0 l 1
 448 0 l 1
128 320 m 1
 128 277.333333333 128 234.666666667 128 192 c 1
 192 192 l 1
 192 234.666666667 192 277.333333333 192 320 c 1
 128 320 l 1
320 320 m 1
 320 277.333333333 320 234.666666667 320 192 c 1
 384 192 l 1
 384 234.666666667 384 277.333333333 384 320 c 1
 320 320 l 1
192 320 m 1
 320 320 l 1
 320 362.666666667 320 405.333333333 320 448 c 1
 192 448 l 1
 192 405.333333333 192 362.666666667 192 320 c 1
EndSplineSet
EndChar

StartChar: uni101045
Encoding: 1052741 1052741 89
Width: 512
Flags: HW
LayerCount: 2
Fore
SplineSet
448 0 m 1
 448 64 l 1
 64 64 l 1
 64 0 l 1
 448 0 l 1
192 384 m 1
 192 341.333333333 192 298.666666667 192 256 c 1
 320 256 l 1
 320 298.666666667 320 341.333333333 320 384 c 1
 192 384 l 1
EndSplineSet
EndChar

StartChar: uni101046
Encoding: 1052742 1052742 90
Width: 1024
Flags: HW
LayerCount: 2
Fore
SplineSet
0 832 m 1
 -0 533.333333333 0 234.666666667 0 -64 c 1
 1024 -64 l 1
 1024 234.666666667 1024 533.333333333 1024 832 c 1
 0 832 l 1
128 0 m 1
 128 64 l 1
 64 64 l 1
 64 256 l 1
 128 256 l 1
 128 64 l 1
 256 64 l 1
 256 0 l 1
 128 0 l 1
576 0 m 1
 576 42.6666666667 576 85.3333333333 576 128 c 1
 384 128 l 1
 384 320 l 1
 448 320 l 1
 448 277.333333333 448 234.666666667 448 192 c 1
 576 192 l 1
 576 234.666666667 576 277.333333333 576 320 c 1
 640 320 l 1
 640 0 l 1
 576 0 l 1
768 0 m 1
 768 64 l 1
 704 64 l 1
 704 256 l 1
 768 256 l 1
 768 192 l 1
 896 192 l 1
 896 128 l 1
 768 128 l 1
 768 64 l 1
 896 64 l 1
 896 0 l 1
 768 0 l 1
256 64 m 1
 256 256 l 1
 128 256 l 1
 128 320 l 1
 256 320 l 1
 256 256 l 1
 320 256 l 1
 320 64 l 1
 256 64 l 1
896 64 m 1
 896 128 l 1
 960 128 l 1
 960 64 l 1
 896 64 l 1
768 256 m 1
 768 320 l 1
 896 320 l 1
 896 256 l 1
 768 256 l 1
128 448 m 1
 128 512 l 1
 192 512 l 1
 192 554.666666667 192 597.333333333 192 640 c 1
 128 640 l 1
 128 704 l 1
 192 704 l 1
 192 768 l 1
 256 768 l 1
 256 682.666666667 256 597.333333333 256 512 c 1
 320 512 l 1
 320 448 l 1
 128 448 l 1
448 448 m 1
 448 512 l 1
 384 512 l 1
 384 704 l 1
 448 704 l 1
 448 512 l 1
 576 512 l 1
 576 448 l 1
 448 448 l 1
768 448 m 1
 768 512 l 1
 832 512 l 1
 832 554.666666667 832 597.333333333 832 640 c 1
 768 640 l 1
 768 704 l 1
 832 704 l 1
 832 768 l 1
 896 768 l 1
 896 682.666666667 896 597.333333333 896 512 c 1
 960 512 l 1
 960 448 l 1
 768 448 l 1
576 512 m 1
 576 704 l 1
 448 704 l 1
 448 768 l 1
 576 768 l 1
 576 704 l 1
 640 704 l 1
 640 512 l 1
 576 512 l 1
EndSplineSet
EndChar

StartChar: uni101047
Encoding: 1052743 1052743 91
Width: 1024
Flags: HW
LayerCount: 2
Fore
SplineSet
0 832 m 1
 -0 533.333333333 0 234.666666667 0 -64 c 1
 1024 -64 l 1
 1024 234.666666667 1024 533.333333333 1024 832 c 1
 0 832 l 1
128 0 m 1
 128 64 l 1
 64 64 l 1
 64 256 l 1
 128 256 l 1
 128 64 l 1
 256 64 l 1
 256 0 l 1
 128 0 l 1
576 0 m 1
 576 42.6666666667 576 85.3333333333 576 128 c 1
 384 128 l 1
 384 320 l 1
 448 320 l 1
 448 277.333333333 448 234.666666667 448 192 c 1
 576 192 l 1
 576 234.666666667 576 277.333333333 576 320 c 1
 640 320 l 1
 640 0 l 1
 576 0 l 1
768 0 m 1
 768 42.6666666667 768 85.3333333333 768 128 c 1
 832 128 l 1
 832 85.3333333333 832 42.6666666667 832 0 c 1
 768 0 l 1
256 64 m 1
 256 256 l 1
 128 256 l 1
 128 320 l 1
 256 320 l 1
 256 256 l 1
 320 256 l 1
 320 64 l 1
 256 64 l 1
832 128 m 1
 832 192 l 1
 896 192 l 1
 896 128 l 1
 832 128 l 1
896 192 m 1
 896 256 l 1
 704 256 l 1
 704 320 l 1
 960 320 l 1
 960 277.333333333 960 234.666666667 960 192 c 1
 896 192 l 1
128 448 m 1
 128 512 l 1
 192 512 l 1
 192 554.666666667 192 597.333333333 192 640 c 1
 128 640 l 1
 128 704 l 1
 192 704 l 1
 192 768 l 1
 256 768 l 1
 256 682.666666667 256 597.333333333 256 512 c 1
 320 512 l 1
 320 448 l 1
 128 448 l 1
448 448 m 1
 448 512 l 1
 384 512 l 1
 384 704 l 1
 448 704 l 1
 448 512 l 1
 576 512 l 1
 576 448 l 1
 448 448 l 1
768 448 m 1
 768 512 l 1
 832 512 l 1
 832 554.666666667 832 597.333333333 832 640 c 1
 768 640 l 1
 768 704 l 1
 832 704 l 1
 832 768 l 1
 896 768 l 1
 896 682.666666667 896 597.333333333 896 512 c 1
 960 512 l 1
 960 448 l 1
 768 448 l 1
576 512 m 1
 576 704 l 1
 448 704 l 1
 448 768 l 1
 576 768 l 1
 576 704 l 1
 640 704 l 1
 640 512 l 1
 576 512 l 1
EndSplineSet
EndChar

StartChar: uni101048
Encoding: 1052744 1052744 92
Width: 1024
Flags: HW
LayerCount: 2
Fore
SplineSet
0 832 m 1
 -0 533.333333333 0 234.666666667 0 -64 c 1
 1024 -64 l 1
 1024 234.666666667 1024 533.333333333 1024 832 c 1
 0 832 l 1
128 0 m 1
 128 64 l 1
 64 64 l 1
 64 256 l 1
 128 256 l 1
 128 64 l 1
 256 64 l 1
 256 0 l 1
 128 0 l 1
576 0 m 1
 576 42.6666666667 576 85.3333333333 576 128 c 1
 384 128 l 1
 384 320 l 1
 448 320 l 1
 448 277.333333333 448 234.666666667 448 192 c 1
 576 192 l 1
 576 234.666666667 576 277.333333333 576 320 c 1
 640 320 l 1
 640 0 l 1
 576 0 l 1
768 0 m 1
 768 64 l 1
 704 64 l 1
 704 128 l 1
 768 128 l 1
 768 64 l 1
 896 64 l 1
 896 0 l 1
 768 0 l 1
256 64 m 1
 256 256 l 1
 128 256 l 1
 128 320 l 1
 256 320 l 1
 256 256 l 1
 320 256 l 1
 320 64 l 1
 256 64 l 1
896 64 m 1
 896 128 l 1
 768 128 l 1
 768 192 l 1
 704 192 l 1
 704 256 l 1
 768 256 l 1
 768 192 l 1
 896 192 l 1
 896 128 l 1
 960 128 l 1
 960 64 l 1
 896 64 l 1
896 192 m 1
 896 256 l 1
 768 256 l 1
 768 320 l 1
 896 320 l 1
 896 256 l 1
 960 256 l 1
 960 192 l 1
 896 192 l 1
128 448 m 1
 128 512 l 1
 192 512 l 1
 192 554.666666667 192 597.333333333 192 640 c 1
 128 640 l 1
 128 704 l 1
 192 704 l 1
 192 768 l 1
 256 768 l 1
 256 682.666666667 256 597.333333333 256 512 c 1
 320 512 l 1
 320 448 l 1
 128 448 l 1
448 448 m 1
 448 512 l 1
 384 512 l 1
 384 704 l 1
 448 704 l 1
 448 512 l 1
 576 512 l 1
 576 448 l 1
 448 448 l 1
768 448 m 1
 768 512 l 1
 832 512 l 1
 832 554.666666667 832 597.333333333 832 640 c 1
 768 640 l 1
 768 704 l 1
 832 704 l 1
 832 768 l 1
 896 768 l 1
 896 682.666666667 896 597.333333333 896 512 c 1
 960 512 l 1
 960 448 l 1
 768 448 l 1
576 512 m 1
 576 704 l 1
 448 704 l 1
 448 768 l 1
 576 768 l 1
 576 704 l 1
 640 704 l 1
 640 512 l 1
 576 512 l 1
EndSplineSet
EndChar

StartChar: uni101049
Encoding: 1052745 1052745 93
Width: 1024
Flags: HW
LayerCount: 2
Fore
SplineSet
0 832 m 1
 -0 533.333333333 0 234.666666667 0 -64 c 1
 1024 -64 l 1
 1024 234.666666667 1024 533.333333333 1024 832 c 1
 0 832 l 1
128 0 m 1
 128 64 l 1
 64 64 l 1
 64 256 l 1
 128 256 l 1
 128 64 l 1
 256 64 l 1
 256 0 l 1
 128 0 l 1
576 0 m 1
 576 42.6666666667 576 85.3333333333 576 128 c 1
 384 128 l 1
 384 320 l 1
 448 320 l 1
 448 277.333333333 448 234.666666667 448 192 c 1
 576 192 l 1
 576 234.666666667 576 277.333333333 576 320 c 1
 640 320 l 1
 640 0 l 1
 576 0 l 1
768 0 m 1
 768 64 l 1
 896 64 l 1
 896 0 l 1
 768 0 l 1
256 64 m 1
 256 256 l 1
 128 256 l 1
 128 320 l 1
 256 320 l 1
 256 256 l 1
 320 256 l 1
 320 64 l 1
 256 64 l 1
896 64 m 1
 896 128 l 1
 768 128 l 1
 768 192 l 1
 704 192 l 1
 704 256 l 1
 768 256 l 1
 768 192 l 1
 896 192 l 1
 896 256 l 1
 768 256 l 1
 768 320 l 1
 896 320 l 1
 896 256 l 1
 960 256 l 1
 960 64 l 1
 896 64 l 1
128 448 m 1
 128 512 l 1
 192 512 l 1
 192 554.666666667 192 597.333333333 192 640 c 1
 128 640 l 1
 128 704 l 1
 192 704 l 1
 192 768 l 1
 256 768 l 1
 256 682.666666667 256 597.333333333 256 512 c 1
 320 512 l 1
 320 448 l 1
 128 448 l 1
448 448 m 1
 448 512 l 1
 384 512 l 1
 384 704 l 1
 448 704 l 1
 448 512 l 1
 576 512 l 1
 576 448 l 1
 448 448 l 1
768 448 m 1
 768 512 l 1
 832 512 l 1
 832 554.666666667 832 597.333333333 832 640 c 1
 768 640 l 1
 768 704 l 1
 832 704 l 1
 832 768 l 1
 896 768 l 1
 896 682.666666667 896 597.333333333 896 512 c 1
 960 512 l 1
 960 448 l 1
 768 448 l 1
576 512 m 1
 576 704 l 1
 448 704 l 1
 448 768 l 1
 576 768 l 1
 576 704 l 1
 640 704 l 1
 640 512 l 1
 576 512 l 1
EndSplineSet
EndChar

StartChar: uni10104A
Encoding: 1052746 1052746 94
Width: 1024
Flags: HW
LayerCount: 2
Fore
SplineSet
896 192 m 1
 896 256 l 1
 768 256 l 1
 768 192 l 1
 896 192 l 1
0 832 m 1
 -0 533.333333333 0 234.666666667 0 -64 c 1
 1024 -64 l 1
 1024 234.666666667 1024 533.333333333 1024 832 c 1
 0 832 l 1
128 0 m 1
 128 64 l 1
 64 64 l 1
 64 256 l 1
 128 256 l 1
 128 64 l 1
 256 64 l 1
 256 0 l 1
 128 0 l 1
576 0 m 1
 576 42.6666666667 576 85.3333333333 576 128 c 1
 384 128 l 1
 384 320 l 1
 448 320 l 1
 448 277.333333333 448 234.666666667 448 192 c 1
 576 192 l 1
 576 234.666666667 576 277.333333333 576 320 c 1
 640 320 l 1
 640 0 l 1
 576 0 l 1
704 0 m 1
 704 320 l 1
 960 320 l 1
 960 0 l 1
 896 0 l 1
 896 42.6666666667 896 85.3333333333 896 128 c 1
 768 128 l 1
 768 85.3333333333 768 42.6666666667 768 0 c 1
 704 0 l 1
256 64 m 1
 256 256 l 1
 128 256 l 1
 128 320 l 1
 256 320 l 1
 256 256 l 1
 320 256 l 1
 320 64 l 1
 256 64 l 1
128 448 m 1
 128 512 l 1
 192 512 l 1
 192 554.666666667 192 597.333333333 192 640 c 1
 128 640 l 1
 128 704 l 1
 192 704 l 1
 192 768 l 1
 256 768 l 1
 256 682.666666667 256 597.333333333 256 512 c 1
 320 512 l 1
 320 448 l 1
 128 448 l 1
448 448 m 1
 448 512 l 1
 384 512 l 1
 384 704 l 1
 448 704 l 1
 448 512 l 1
 576 512 l 1
 576 448 l 1
 448 448 l 1
768 448 m 1
 768 512 l 1
 832 512 l 1
 832 554.666666667 832 597.333333333 832 640 c 1
 768 640 l 1
 768 704 l 1
 832 704 l 1
 832 768 l 1
 896 768 l 1
 896 682.666666667 896 597.333333333 896 512 c 1
 960 512 l 1
 960 448 l 1
 768 448 l 1
576 512 m 1
 576 704 l 1
 448 704 l 1
 448 768 l 1
 576 768 l 1
 576 704 l 1
 640 704 l 1
 640 512 l 1
 576 512 l 1
EndSplineSet
EndChar

StartChar: uni10104B
Encoding: 1052747 1052747 95
Width: 1024
Flags: HW
LayerCount: 2
Fore
SplineSet
0 832 m 1
 -0 533.333333333 0 234.666666667 0 -64 c 1
 1024 -64 l 1
 1024 234.666666667 1024 533.333333333 1024 832 c 1
 0 832 l 1
128 0 m 1
 128 64 l 1
 64 64 l 1
 64 256 l 1
 128 256 l 1
 128 64 l 1
 256 64 l 1
 256 0 l 1
 128 0 l 1
576 0 m 1
 576 42.6666666667 576 85.3333333333 576 128 c 1
 384 128 l 1
 384 320 l 1
 448 320 l 1
 448 277.333333333 448 234.666666667 448 192 c 1
 576 192 l 1
 576 234.666666667 576 277.333333333 576 320 c 1
 640 320 l 1
 640 0 l 1
 576 0 l 1
704 0 m 1
 704 320 l 1
 896 320 l 1
 896 256 l 1
 768 256 l 1
 768 192 l 1
 896 192 l 1
 896 128 l 1
 768 128 l 1
 768 64 l 1
 896 64 l 1
 896 0 l 1
 704 0 l 1
256 64 m 1
 256 256 l 1
 128 256 l 1
 128 320 l 1
 256 320 l 1
 256 256 l 1
 320 256 l 1
 320 64 l 1
 256 64 l 1
896 64 m 1
 896 128 l 1
 960 128 l 1
 960 64 l 1
 896 64 l 1
896 192 m 1
 896 256 l 1
 960 256 l 1
 960 192 l 1
 896 192 l 1
128 448 m 1
 128 512 l 1
 192 512 l 1
 192 554.666666667 192 597.333333333 192 640 c 1
 128 640 l 1
 128 704 l 1
 192 704 l 1
 192 768 l 1
 256 768 l 1
 256 682.666666667 256 597.333333333 256 512 c 1
 320 512 l 1
 320 448 l 1
 128 448 l 1
448 448 m 1
 448 512 l 1
 384 512 l 1
 384 704 l 1
 448 704 l 1
 448 512 l 1
 576 512 l 1
 576 448 l 1
 448 448 l 1
768 448 m 1
 768 512 l 1
 832 512 l 1
 832 554.666666667 832 597.333333333 832 640 c 1
 768 640 l 1
 768 704 l 1
 832 704 l 1
 832 768 l 1
 896 768 l 1
 896 682.666666667 896 597.333333333 896 512 c 1
 960 512 l 1
 960 448 l 1
 768 448 l 1
576 512 m 1
 576 704 l 1
 448 704 l 1
 448 768 l 1
 576 768 l 1
 576 704 l 1
 640 704 l 1
 640 512 l 1
 576 512 l 1
EndSplineSet
EndChar

StartChar: uni10104C
Encoding: 1052748 1052748 96
Width: 1024
Flags: HW
LayerCount: 2
Fore
SplineSet
0 832 m 1
 -0 533.333333333 0 234.666666667 0 -64 c 1
 1024 -64 l 1
 1024 234.666666667 1024 533.333333333 1024 832 c 1
 0 832 l 1
128 0 m 1
 128 64 l 1
 64 64 l 1
 64 256 l 1
 128 256 l 1
 128 64 l 1
 256 64 l 1
 256 0 l 1
 128 0 l 1
576 0 m 1
 576 42.6666666667 576 85.3333333333 576 128 c 1
 384 128 l 1
 384 320 l 1
 448 320 l 1
 448 277.333333333 448 234.666666667 448 192 c 1
 576 192 l 1
 576 234.666666667 576 277.333333333 576 320 c 1
 640 320 l 1
 640 0 l 1
 576 0 l 1
768 0 m 1
 768 64 l 1
 704 64 l 1
 704 256 l 1
 768 256 l 1
 768 64 l 1
 960 64 l 1
 960 0 l 1
 768 0 l 1
256 64 m 1
 256 256 l 1
 128 256 l 1
 128 320 l 1
 256 320 l 1
 256 256 l 1
 320 256 l 1
 320 64 l 1
 256 64 l 1
768 256 m 1
 768 320 l 1
 960 320 l 1
 960 256 l 1
 768 256 l 1
128 448 m 1
 128 512 l 1
 192 512 l 1
 192 554.666666667 192 597.333333333 192 640 c 1
 128 640 l 1
 128 704 l 1
 192 704 l 1
 192 768 l 1
 256 768 l 1
 256 682.666666667 256 597.333333333 256 512 c 1
 320 512 l 1
 320 448 l 1
 128 448 l 1
448 448 m 1
 448 512 l 1
 384 512 l 1
 384 704 l 1
 448 704 l 1
 448 512 l 1
 576 512 l 1
 576 448 l 1
 448 448 l 1
768 448 m 1
 768 512 l 1
 832 512 l 1
 832 554.666666667 832 597.333333333 832 640 c 1
 768 640 l 1
 768 704 l 1
 832 704 l 1
 832 768 l 1
 896 768 l 1
 896 682.666666667 896 597.333333333 896 512 c 1
 960 512 l 1
 960 448 l 1
 768 448 l 1
576 512 m 1
 576 704 l 1
 448 704 l 1
 448 768 l 1
 576 768 l 1
 576 704 l 1
 640 704 l 1
 640 512 l 1
 576 512 l 1
EndSplineSet
EndChar

StartChar: uni10104D
Encoding: 1052749 1052749 97
Width: 1024
Flags: HW
LayerCount: 2
Fore
SplineSet
0 832 m 1
 -0 533.333333333 0 234.666666667 0 -64 c 1
 1024 -64 l 1
 1024 234.666666667 1024 533.333333333 1024 832 c 1
 0 832 l 1
128 0 m 1
 128 64 l 1
 64 64 l 1
 64 256 l 1
 128 256 l 1
 128 64 l 1
 256 64 l 1
 256 0 l 1
 128 0 l 1
576 0 m 1
 576 42.6666666667 576 85.3333333333 576 128 c 1
 384 128 l 1
 384 320 l 1
 448 320 l 1
 448 277.333333333 448 234.666666667 448 192 c 1
 576 192 l 1
 576 234.666666667 576 277.333333333 576 320 c 1
 640 320 l 1
 640 0 l 1
 576 0 l 1
704 0 m 1
 704 320 l 1
 896 320 l 1
 896 256 l 1
 768 256 l 1
 768 64 l 1
 896 64 l 1
 896 0 l 1
 704 0 l 1
256 64 m 1
 256 256 l 1
 128 256 l 1
 128 320 l 1
 256 320 l 1
 256 256 l 1
 320 256 l 1
 320 64 l 1
 256 64 l 1
896 64 m 1
 896 256 l 1
 960 256 l 1
 960 64 l 1
 896 64 l 1
128 448 m 1
 128 512 l 1
 192 512 l 1
 192 554.666666667 192 597.333333333 192 640 c 1
 128 640 l 1
 128 704 l 1
 192 704 l 1
 192 768 l 1
 256 768 l 1
 256 682.666666667 256 597.333333333 256 512 c 1
 320 512 l 1
 320 448 l 1
 128 448 l 1
448 448 m 1
 448 512 l 1
 384 512 l 1
 384 704 l 1
 448 704 l 1
 448 512 l 1
 576 512 l 1
 576 448 l 1
 448 448 l 1
768 448 m 1
 768 512 l 1
 832 512 l 1
 832 554.666666667 832 597.333333333 832 640 c 1
 768 640 l 1
 768 704 l 1
 832 704 l 1
 832 768 l 1
 896 768 l 1
 896 682.666666667 896 597.333333333 896 512 c 1
 960 512 l 1
 960 448 l 1
 768 448 l 1
576 512 m 1
 576 704 l 1
 448 704 l 1
 448 768 l 1
 576 768 l 1
 576 704 l 1
 640 704 l 1
 640 512 l 1
 576 512 l 1
EndSplineSet
EndChar

StartChar: uni10104E
Encoding: 1052750 1052750 98
Width: 1024
Flags: HW
LayerCount: 2
Fore
SplineSet
0 832 m 1
 -0 533.333333333 0 234.666666667 0 -64 c 1
 1024 -64 l 1
 1024 234.666666667 1024 533.333333333 1024 832 c 1
 0 832 l 1
128 0 m 1
 128 64 l 1
 64 64 l 1
 64 256 l 1
 128 256 l 1
 128 64 l 1
 256 64 l 1
 256 0 l 1
 128 0 l 1
576 0 m 1
 576 42.6666666667 576 85.3333333333 576 128 c 1
 384 128 l 1
 384 320 l 1
 448 320 l 1
 448 277.333333333 448 234.666666667 448 192 c 1
 576 192 l 1
 576 234.666666667 576 277.333333333 576 320 c 1
 640 320 l 1
 640 0 l 1
 576 0 l 1
704 0 m 1
 704 320 l 1
 960 320 l 1
 960 256 l 1
 768 256 l 1
 768 192 l 1
 896 192 l 1
 896 128 l 1
 768 128 l 1
 768 64 l 1
 960 64 l 1
 960 0 l 1
 704 0 l 1
256 64 m 1
 256 256 l 1
 128 256 l 1
 128 320 l 1
 256 320 l 1
 256 256 l 1
 320 256 l 1
 320 64 l 1
 256 64 l 1
128 448 m 1
 128 512 l 1
 192 512 l 1
 192 554.666666667 192 597.333333333 192 640 c 1
 128 640 l 1
 128 704 l 1
 192 704 l 1
 192 768 l 1
 256 768 l 1
 256 682.666666667 256 597.333333333 256 512 c 1
 320 512 l 1
 320 448 l 1
 128 448 l 1
448 448 m 1
 448 512 l 1
 384 512 l 1
 384 704 l 1
 448 704 l 1
 448 512 l 1
 576 512 l 1
 576 448 l 1
 448 448 l 1
768 448 m 1
 768 512 l 1
 832 512 l 1
 832 554.666666667 832 597.333333333 832 640 c 1
 768 640 l 1
 768 704 l 1
 832 704 l 1
 832 768 l 1
 896 768 l 1
 896 682.666666667 896 597.333333333 896 512 c 1
 960 512 l 1
 960 448 l 1
 768 448 l 1
576 512 m 1
 576 704 l 1
 448 704 l 1
 448 768 l 1
 576 768 l 1
 576 704 l 1
 640 704 l 1
 640 512 l 1
 576 512 l 1
EndSplineSet
EndChar

StartChar: uni10104F
Encoding: 1052751 1052751 99
Width: 1024
Flags: HW
LayerCount: 2
Fore
SplineSet
0 832 m 1
 -0 533.333333333 0 234.666666667 0 -64 c 1
 1024 -64 l 1
 1024 234.666666667 1024 533.333333333 1024 832 c 1
 0 832 l 1
128 0 m 1
 128 64 l 1
 64 64 l 1
 64 256 l 1
 128 256 l 1
 128 64 l 1
 256 64 l 1
 256 0 l 1
 128 0 l 1
576 0 m 1
 576 42.6666666667 576 85.3333333333 576 128 c 1
 384 128 l 1
 384 320 l 1
 448 320 l 1
 448 277.333333333 448 234.666666667 448 192 c 1
 576 192 l 1
 576 234.666666667 576 277.333333333 576 320 c 1
 640 320 l 1
 640 0 l 1
 576 0 l 1
704 0 m 1
 704 320 l 1
 960 320 l 1
 960 256 l 1
 768 256 l 1
 768 192 l 1
 896 192 l 1
 896 128 l 1
 768 128 l 1
 768 85.3333333333 768 42.6666666667 768 0 c 1
 704 0 l 1
256 64 m 1
 256 256 l 1
 128 256 l 1
 128 320 l 1
 256 320 l 1
 256 256 l 1
 320 256 l 1
 320 64 l 1
 256 64 l 1
128 448 m 1
 128 512 l 1
 192 512 l 1
 192 554.666666667 192 597.333333333 192 640 c 1
 128 640 l 1
 128 704 l 1
 192 704 l 1
 192 768 l 1
 256 768 l 1
 256 682.666666667 256 597.333333333 256 512 c 1
 320 512 l 1
 320 448 l 1
 128 448 l 1
448 448 m 1
 448 512 l 1
 384 512 l 1
 384 704 l 1
 448 704 l 1
 448 512 l 1
 576 512 l 1
 576 448 l 1
 448 448 l 1
768 448 m 1
 768 512 l 1
 832 512 l 1
 832 554.666666667 832 597.333333333 832 640 c 1
 768 640 l 1
 768 704 l 1
 832 704 l 1
 832 768 l 1
 896 768 l 1
 896 682.666666667 896 597.333333333 896 512 c 1
 960 512 l 1
 960 448 l 1
 768 448 l 1
576 512 m 1
 576 704 l 1
 448 704 l 1
 448 768 l 1
 576 768 l 1
 576 704 l 1
 640 704 l 1
 640 512 l 1
 576 512 l 1
EndSplineSet
EndChar

StartChar: uni101050
Encoding: 1052752 1052752 100
Width: 1024
Flags: HW
LayerCount: 2
Fore
SplineSet
576 64 m 1
 576 128 l 1
 384 128 l 1
 384 320 l 1
 640 320 l 1
 640 256 l 1
 448 256 l 1
 448 192 l 1
 640 192 l 1
 640 0 l 1
 384 0 l 1
 384 64 l 1
 576 64 l 1
0 832 m 1
 -0 533.333333333 0 234.666666667 0 -64 c 1
 1024 -64 l 1
 1024 234.666666667 1024 533.333333333 1024 832 c 1
 0 832 l 1
128 0 m 1
 128 64 l 1
 64 64 l 1
 64 256 l 1
 128 256 l 1
 128 64 l 1
 256 64 l 1
 256 0 l 1
 128 0 l 1
768 0 m 1
 768 64 l 1
 704 64 l 1
 704 256 l 1
 768 256 l 1
 768 64 l 1
 896 64 l 1
 896 0 l 1
 768 0 l 1
256 64 m 1
 256 256 l 1
 128 256 l 1
 128 320 l 1
 256 320 l 1
 256 256 l 1
 320 256 l 1
 320 64 l 1
 256 64 l 1
896 64 m 1
 896 256 l 1
 768 256 l 1
 768 320 l 1
 896 320 l 1
 896 256 l 1
 960 256 l 1
 960 64 l 1
 896 64 l 1
128 448 m 1
 128 512 l 1
 192 512 l 1
 192 554.666666667 192 597.333333333 192 640 c 1
 128 640 l 1
 128 704 l 1
 192 704 l 1
 192 768 l 1
 256 768 l 1
 256 682.666666667 256 597.333333333 256 512 c 1
 320 512 l 1
 320 448 l 1
 128 448 l 1
448 448 m 1
 448 512 l 1
 384 512 l 1
 384 704 l 1
 448 704 l 1
 448 512 l 1
 576 512 l 1
 576 448 l 1
 448 448 l 1
768 448 m 1
 768 512 l 1
 832 512 l 1
 832 554.666666667 832 597.333333333 832 640 c 1
 768 640 l 1
 768 704 l 1
 832 704 l 1
 832 768 l 1
 896 768 l 1
 896 682.666666667 896 597.333333333 896 512 c 1
 960 512 l 1
 960 448 l 1
 768 448 l 1
576 512 m 1
 576 704 l 1
 448 704 l 1
 448 768 l 1
 576 768 l 1
 576 704 l 1
 640 704 l 1
 640 512 l 1
 576 512 l 1
EndSplineSet
EndChar

StartChar: uni101051
Encoding: 1052753 1052753 101
Width: 1024
Flags: HW
LayerCount: 2
Fore
SplineSet
576 64 m 1
 576 128 l 1
 384 128 l 1
 384 320 l 1
 640 320 l 1
 640 256 l 1
 448 256 l 1
 448 192 l 1
 640 192 l 1
 640 0 l 1
 384 0 l 1
 384 64 l 1
 576 64 l 1
0 832 m 1
 -0 533.333333333 0 234.666666667 0 -64 c 1
 1024 -64 l 1
 1024 234.666666667 1024 533.333333333 1024 832 c 1
 0 832 l 1
128 0 m 1
 128 64 l 1
 64 64 l 1
 64 256 l 1
 128 256 l 1
 128 64 l 1
 256 64 l 1
 256 0 l 1
 128 0 l 1
768 0 m 1
 768 64 l 1
 832 64 l 1
 832 106.666666667 832 149.333333333 832 192 c 1
 768 192 l 1
 768 256 l 1
 832 256 l 1
 832 320 l 1
 896 320 l 1
 896 234.666666667 896 149.333333333 896 64 c 1
 960 64 l 1
 960 0 l 1
 768 0 l 1
256 64 m 1
 256 256 l 1
 128 256 l 1
 128 320 l 1
 256 320 l 1
 256 256 l 1
 320 256 l 1
 320 64 l 1
 256 64 l 1
128 448 m 1
 128 512 l 1
 192 512 l 1
 192 554.666666667 192 597.333333333 192 640 c 1
 128 640 l 1
 128 704 l 1
 192 704 l 1
 192 768 l 1
 256 768 l 1
 256 682.666666667 256 597.333333333 256 512 c 1
 320 512 l 1
 320 448 l 1
 128 448 l 1
448 448 m 1
 448 512 l 1
 384 512 l 1
 384 704 l 1
 448 704 l 1
 448 512 l 1
 576 512 l 1
 576 448 l 1
 448 448 l 1
768 448 m 1
 768 512 l 1
 832 512 l 1
 832 554.666666667 832 597.333333333 832 640 c 1
 768 640 l 1
 768 704 l 1
 832 704 l 1
 832 768 l 1
 896 768 l 1
 896 682.666666667 896 597.333333333 896 512 c 1
 960 512 l 1
 960 448 l 1
 768 448 l 1
576 512 m 1
 576 704 l 1
 448 704 l 1
 448 768 l 1
 576 768 l 1
 576 704 l 1
 640 704 l 1
 640 512 l 1
 576 512 l 1
EndSplineSet
EndChar

StartChar: uni101052
Encoding: 1052754 1052754 102
Width: 1024
Flags: HW
LayerCount: 2
Fore
SplineSet
576 64 m 1
 576 128 l 1
 384 128 l 1
 384 320 l 1
 640 320 l 1
 640 256 l 1
 448 256 l 1
 448 192 l 1
 640 192 l 1
 640 0 l 1
 384 0 l 1
 384 64 l 1
 576 64 l 1
896 192 m 1
 896 256 l 1
 704 256 l 1
 704 320 l 1
 960 320 l 1
 960 128 l 1
 768 128 l 1
 768 64 l 1
 960 64 l 1
 960 0 l 1
 704 0 l 1
 704 192 l 1
 896 192 l 1
0 832 m 1
 -0 533.333333333 0 234.666666667 0 -64 c 1
 1024 -64 l 1
 1024 234.666666667 1024 533.333333333 1024 832 c 1
 0 832 l 1
128 0 m 1
 128 64 l 1
 64 64 l 1
 64 256 l 1
 128 256 l 1
 128 64 l 1
 256 64 l 1
 256 0 l 1
 128 0 l 1
256 64 m 1
 256 256 l 1
 128 256 l 1
 128 320 l 1
 256 320 l 1
 256 256 l 1
 320 256 l 1
 320 64 l 1
 256 64 l 1
128 448 m 1
 128 512 l 1
 192 512 l 1
 192 554.666666667 192 597.333333333 192 640 c 1
 128 640 l 1
 128 704 l 1
 192 704 l 1
 192 768 l 1
 256 768 l 1
 256 682.666666667 256 597.333333333 256 512 c 1
 320 512 l 1
 320 448 l 1
 128 448 l 1
448 448 m 1
 448 512 l 1
 384 512 l 1
 384 704 l 1
 448 704 l 1
 448 512 l 1
 576 512 l 1
 576 448 l 1
 448 448 l 1
768 448 m 1
 768 512 l 1
 832 512 l 1
 832 554.666666667 832 597.333333333 832 640 c 1
 768 640 l 1
 768 704 l 1
 832 704 l 1
 832 768 l 1
 896 768 l 1
 896 682.666666667 896 597.333333333 896 512 c 1
 960 512 l 1
 960 448 l 1
 768 448 l 1
576 512 m 1
 576 704 l 1
 448 704 l 1
 448 768 l 1
 576 768 l 1
 576 704 l 1
 640 704 l 1
 640 512 l 1
 576 512 l 1
EndSplineSet
EndChar

StartChar: uni101053
Encoding: 1052755 1052755 103
Width: 1024
Flags: HW
LayerCount: 2
Fore
SplineSet
576 64 m 1
 576 128 l 1
 384 128 l 1
 384 320 l 1
 640 320 l 1
 640 256 l 1
 448 256 l 1
 448 192 l 1
 640 192 l 1
 640 0 l 1
 384 0 l 1
 384 64 l 1
 576 64 l 1
0 832 m 1
 -0 533.333333333 0 234.666666667 0 -64 c 1
 1024 -64 l 1
 1024 234.666666667 1024 533.333333333 1024 832 c 1
 0 832 l 1
128 0 m 1
 128 64 l 1
 64 64 l 1
 64 256 l 1
 128 256 l 1
 128 64 l 1
 256 64 l 1
 256 0 l 1
 128 0 l 1
704 0 m 1
 704 64 l 1
 896 64 l 1
 896 0 l 1
 704 0 l 1
256 64 m 1
 256 256 l 1
 128 256 l 1
 128 320 l 1
 256 320 l 1
 256 256 l 1
 320 256 l 1
 320 64 l 1
 256 64 l 1
896 64 m 1
 896 128 l 1
 768 128 l 1
 768 192 l 1
 896 192 l 1
 896 256 l 1
 704 256 l 1
 704 320 l 1
 896 320 l 1
 896 256 l 1
 960 256 l 1
 960 64 l 1
 896 64 l 1
128 448 m 1
 128 512 l 1
 192 512 l 1
 192 554.666666667 192 597.333333333 192 640 c 1
 128 640 l 1
 128 704 l 1
 192 704 l 1
 192 768 l 1
 256 768 l 1
 256 682.666666667 256 597.333333333 256 512 c 1
 320 512 l 1
 320 448 l 1
 128 448 l 1
448 448 m 1
 448 512 l 1
 384 512 l 1
 384 704 l 1
 448 704 l 1
 448 512 l 1
 576 512 l 1
 576 448 l 1
 448 448 l 1
768 448 m 1
 768 512 l 1
 832 512 l 1
 832 554.666666667 832 597.333333333 832 640 c 1
 768 640 l 1
 768 704 l 1
 832 704 l 1
 832 768 l 1
 896 768 l 1
 896 682.666666667 896 597.333333333 896 512 c 1
 960 512 l 1
 960 448 l 1
 768 448 l 1
576 512 m 1
 576 704 l 1
 448 704 l 1
 448 768 l 1
 576 768 l 1
 576 704 l 1
 640 704 l 1
 640 512 l 1
 576 512 l 1
EndSplineSet
EndChar

StartChar: uni101054
Encoding: 1052756 1052756 104
Width: 1024
Flags: HW
LayerCount: 2
Fore
SplineSet
576 64 m 1
 576 128 l 1
 384 128 l 1
 384 320 l 1
 640 320 l 1
 640 256 l 1
 448 256 l 1
 448 192 l 1
 640 192 l 1
 640 0 l 1
 384 0 l 1
 384 64 l 1
 576 64 l 1
0 832 m 1
 -0 533.333333333 0 234.666666667 0 -64 c 1
 1024 -64 l 1
 1024 234.666666667 1024 533.333333333 1024 832 c 1
 0 832 l 1
128 0 m 1
 128 64 l 1
 64 64 l 1
 64 256 l 1
 128 256 l 1
 128 64 l 1
 256 64 l 1
 256 0 l 1
 128 0 l 1
896 0 m 1
 896 42.6666666667 896 85.3333333333 896 128 c 1
 704 128 l 1
 704 320 l 1
 768 320 l 1
 768 277.333333333 768 234.666666667 768 192 c 1
 896 192 l 1
 896 234.666666667 896 277.333333333 896 320 c 1
 960 320 l 1
 960 0 l 1
 896 0 l 1
256 64 m 1
 256 256 l 1
 128 256 l 1
 128 320 l 1
 256 320 l 1
 256 256 l 1
 320 256 l 1
 320 64 l 1
 256 64 l 1
128 448 m 1
 128 512 l 1
 192 512 l 1
 192 554.666666667 192 597.333333333 192 640 c 1
 128 640 l 1
 128 704 l 1
 192 704 l 1
 192 768 l 1
 256 768 l 1
 256 682.666666667 256 597.333333333 256 512 c 1
 320 512 l 1
 320 448 l 1
 128 448 l 1
448 448 m 1
 448 512 l 1
 384 512 l 1
 384 704 l 1
 448 704 l 1
 448 512 l 1
 576 512 l 1
 576 448 l 1
 448 448 l 1
768 448 m 1
 768 512 l 1
 832 512 l 1
 832 554.666666667 832 597.333333333 832 640 c 1
 768 640 l 1
 768 704 l 1
 832 704 l 1
 832 768 l 1
 896 768 l 1
 896 682.666666667 896 597.333333333 896 512 c 1
 960 512 l 1
 960 448 l 1
 768 448 l 1
576 512 m 1
 576 704 l 1
 448 704 l 1
 448 768 l 1
 576 768 l 1
 576 704 l 1
 640 704 l 1
 640 512 l 1
 576 512 l 1
EndSplineSet
EndChar

StartChar: uni101055
Encoding: 1052757 1052757 105
Width: 1024
Flags: HW
LayerCount: 2
Fore
SplineSet
576 64 m 1
 576 128 l 1
 384 128 l 1
 384 320 l 1
 640 320 l 1
 640 256 l 1
 448 256 l 1
 448 192 l 1
 640 192 l 1
 640 0 l 1
 384 0 l 1
 384 64 l 1
 576 64 l 1
896 64 m 1
 896 128 l 1
 704 128 l 1
 704 320 l 1
 960 320 l 1
 960 256 l 1
 768 256 l 1
 768 192 l 1
 960 192 l 1
 960 0 l 1
 704 0 l 1
 704 64 l 1
 896 64 l 1
0 832 m 1
 -0 533.333333333 0 234.666666667 0 -64 c 1
 1024 -64 l 1
 1024 234.666666667 1024 533.333333333 1024 832 c 1
 0 832 l 1
128 0 m 1
 128 64 l 1
 64 64 l 1
 64 256 l 1
 128 256 l 1
 128 64 l 1
 256 64 l 1
 256 0 l 1
 128 0 l 1
256 64 m 1
 256 256 l 1
 128 256 l 1
 128 320 l 1
 256 320 l 1
 256 256 l 1
 320 256 l 1
 320 64 l 1
 256 64 l 1
128 448 m 1
 128 512 l 1
 192 512 l 1
 192 554.666666667 192 597.333333333 192 640 c 1
 128 640 l 1
 128 704 l 1
 192 704 l 1
 192 768 l 1
 256 768 l 1
 256 682.666666667 256 597.333333333 256 512 c 1
 320 512 l 1
 320 448 l 1
 128 448 l 1
448 448 m 1
 448 512 l 1
 384 512 l 1
 384 704 l 1
 448 704 l 1
 448 512 l 1
 576 512 l 1
 576 448 l 1
 448 448 l 1
768 448 m 1
 768 512 l 1
 832 512 l 1
 832 554.666666667 832 597.333333333 832 640 c 1
 768 640 l 1
 768 704 l 1
 832 704 l 1
 832 768 l 1
 896 768 l 1
 896 682.666666667 896 597.333333333 896 512 c 1
 960 512 l 1
 960 448 l 1
 768 448 l 1
576 512 m 1
 576 704 l 1
 448 704 l 1
 448 768 l 1
 576 768 l 1
 576 704 l 1
 640 704 l 1
 640 512 l 1
 576 512 l 1
EndSplineSet
EndChar

StartChar: uni101056
Encoding: 1052758 1052758 106
Width: 1024
Flags: HW
LayerCount: 2
Fore
SplineSet
576 64 m 1
 576 128 l 1
 384 128 l 1
 384 320 l 1
 640 320 l 1
 640 256 l 1
 448 256 l 1
 448 192 l 1
 640 192 l 1
 640 0 l 1
 384 0 l 1
 384 64 l 1
 576 64 l 1
0 832 m 1
 -0 533.333333333 0 234.666666667 0 -64 c 1
 1024 -64 l 1
 1024 234.666666667 1024 533.333333333 1024 832 c 1
 0 832 l 1
128 0 m 1
 128 64 l 1
 64 64 l 1
 64 256 l 1
 128 256 l 1
 128 64 l 1
 256 64 l 1
 256 0 l 1
 128 0 l 1
768 0 m 1
 768 64 l 1
 704 64 l 1
 704 256 l 1
 768 256 l 1
 768 192 l 1
 896 192 l 1
 896 128 l 1
 768 128 l 1
 768 64 l 1
 896 64 l 1
 896 0 l 1
 768 0 l 1
256 64 m 1
 256 256 l 1
 128 256 l 1
 128 320 l 1
 256 320 l 1
 256 256 l 1
 320 256 l 1
 320 64 l 1
 256 64 l 1
896 64 m 1
 896 128 l 1
 960 128 l 1
 960 64 l 1
 896 64 l 1
768 256 m 1
 768 320 l 1
 896 320 l 1
 896 256 l 1
 768 256 l 1
128 448 m 1
 128 512 l 1
 192 512 l 1
 192 554.666666667 192 597.333333333 192 640 c 1
 128 640 l 1
 128 704 l 1
 192 704 l 1
 192 768 l 1
 256 768 l 1
 256 682.666666667 256 597.333333333 256 512 c 1
 320 512 l 1
 320 448 l 1
 128 448 l 1
448 448 m 1
 448 512 l 1
 384 512 l 1
 384 704 l 1
 448 704 l 1
 448 512 l 1
 576 512 l 1
 576 448 l 1
 448 448 l 1
768 448 m 1
 768 512 l 1
 832 512 l 1
 832 554.666666667 832 597.333333333 832 640 c 1
 768 640 l 1
 768 704 l 1
 832 704 l 1
 832 768 l 1
 896 768 l 1
 896 682.666666667 896 597.333333333 896 512 c 1
 960 512 l 1
 960 448 l 1
 768 448 l 1
576 512 m 1
 576 704 l 1
 448 704 l 1
 448 768 l 1
 576 768 l 1
 576 704 l 1
 640 704 l 1
 640 512 l 1
 576 512 l 1
EndSplineSet
EndChar

StartChar: uni101057
Encoding: 1052759 1052759 107
Width: 1024
Flags: HW
LayerCount: 2
Fore
SplineSet
576 64 m 1
 576 128 l 1
 384 128 l 1
 384 320 l 1
 640 320 l 1
 640 256 l 1
 448 256 l 1
 448 192 l 1
 640 192 l 1
 640 0 l 1
 384 0 l 1
 384 64 l 1
 576 64 l 1
0 832 m 1
 -0 533.333333333 0 234.666666667 0 -64 c 1
 1024 -64 l 1
 1024 234.666666667 1024 533.333333333 1024 832 c 1
 0 832 l 1
128 0 m 1
 128 64 l 1
 64 64 l 1
 64 256 l 1
 128 256 l 1
 128 64 l 1
 256 64 l 1
 256 0 l 1
 128 0 l 1
768 0 m 1
 768 42.6666666667 768 85.3333333333 768 128 c 1
 832 128 l 1
 832 85.3333333333 832 42.6666666667 832 0 c 1
 768 0 l 1
256 64 m 1
 256 256 l 1
 128 256 l 1
 128 320 l 1
 256 320 l 1
 256 256 l 1
 320 256 l 1
 320 64 l 1
 256 64 l 1
832 128 m 1
 832 192 l 1
 896 192 l 1
 896 128 l 1
 832 128 l 1
896 192 m 1
 896 256 l 1
 704 256 l 1
 704 320 l 1
 960 320 l 1
 960 277.333333333 960 234.666666667 960 192 c 1
 896 192 l 1
128 448 m 1
 128 512 l 1
 192 512 l 1
 192 554.666666667 192 597.333333333 192 640 c 1
 128 640 l 1
 128 704 l 1
 192 704 l 1
 192 768 l 1
 256 768 l 1
 256 682.666666667 256 597.333333333 256 512 c 1
 320 512 l 1
 320 448 l 1
 128 448 l 1
448 448 m 1
 448 512 l 1
 384 512 l 1
 384 704 l 1
 448 704 l 1
 448 512 l 1
 576 512 l 1
 576 448 l 1
 448 448 l 1
768 448 m 1
 768 512 l 1
 832 512 l 1
 832 554.666666667 832 597.333333333 832 640 c 1
 768 640 l 1
 768 704 l 1
 832 704 l 1
 832 768 l 1
 896 768 l 1
 896 682.666666667 896 597.333333333 896 512 c 1
 960 512 l 1
 960 448 l 1
 768 448 l 1
576 512 m 1
 576 704 l 1
 448 704 l 1
 448 768 l 1
 576 768 l 1
 576 704 l 1
 640 704 l 1
 640 512 l 1
 576 512 l 1
EndSplineSet
EndChar

StartChar: uni101058
Encoding: 1052760 1052760 108
Width: 1024
Flags: HW
LayerCount: 2
Fore
SplineSet
576 64 m 1
 576 128 l 1
 384 128 l 1
 384 320 l 1
 640 320 l 1
 640 256 l 1
 448 256 l 1
 448 192 l 1
 640 192 l 1
 640 0 l 1
 384 0 l 1
 384 64 l 1
 576 64 l 1
0 832 m 1
 -0 533.333333333 0 234.666666667 0 -64 c 1
 1024 -64 l 1
 1024 234.666666667 1024 533.333333333 1024 832 c 1
 0 832 l 1
128 0 m 1
 128 64 l 1
 64 64 l 1
 64 256 l 1
 128 256 l 1
 128 64 l 1
 256 64 l 1
 256 0 l 1
 128 0 l 1
768 0 m 1
 768 64 l 1
 704 64 l 1
 704 128 l 1
 768 128 l 1
 768 64 l 1
 896 64 l 1
 896 0 l 1
 768 0 l 1
256 64 m 1
 256 256 l 1
 128 256 l 1
 128 320 l 1
 256 320 l 1
 256 256 l 1
 320 256 l 1
 320 64 l 1
 256 64 l 1
896 64 m 1
 896 128 l 1
 768 128 l 1
 768 192 l 1
 704 192 l 1
 704 256 l 1
 768 256 l 1
 768 192 l 1
 896 192 l 1
 896 128 l 1
 960 128 l 1
 960 64 l 1
 896 64 l 1
896 192 m 1
 896 256 l 1
 768 256 l 1
 768 320 l 1
 896 320 l 1
 896 256 l 1
 960 256 l 1
 960 192 l 1
 896 192 l 1
128 448 m 1
 128 512 l 1
 192 512 l 1
 192 554.666666667 192 597.333333333 192 640 c 1
 128 640 l 1
 128 704 l 1
 192 704 l 1
 192 768 l 1
 256 768 l 1
 256 682.666666667 256 597.333333333 256 512 c 1
 320 512 l 1
 320 448 l 1
 128 448 l 1
448 448 m 1
 448 512 l 1
 384 512 l 1
 384 704 l 1
 448 704 l 1
 448 512 l 1
 576 512 l 1
 576 448 l 1
 448 448 l 1
768 448 m 1
 768 512 l 1
 832 512 l 1
 832 554.666666667 832 597.333333333 832 640 c 1
 768 640 l 1
 768 704 l 1
 832 704 l 1
 832 768 l 1
 896 768 l 1
 896 682.666666667 896 597.333333333 896 512 c 1
 960 512 l 1
 960 448 l 1
 768 448 l 1
576 512 m 1
 576 704 l 1
 448 704 l 1
 448 768 l 1
 576 768 l 1
 576 704 l 1
 640 704 l 1
 640 512 l 1
 576 512 l 1
EndSplineSet
EndChar

StartChar: uni101059
Encoding: 1052761 1052761 109
Width: 1024
Flags: HW
LayerCount: 2
Fore
SplineSet
576 64 m 1
 576 128 l 1
 384 128 l 1
 384 320 l 1
 640 320 l 1
 640 256 l 1
 448 256 l 1
 448 192 l 1
 640 192 l 1
 640 0 l 1
 384 0 l 1
 384 64 l 1
 576 64 l 1
0 832 m 1
 -0 533.333333333 0 234.666666667 0 -64 c 1
 1024 -64 l 1
 1024 234.666666667 1024 533.333333333 1024 832 c 1
 0 832 l 1
128 0 m 1
 128 64 l 1
 64 64 l 1
 64 256 l 1
 128 256 l 1
 128 64 l 1
 256 64 l 1
 256 0 l 1
 128 0 l 1
768 0 m 1
 768 64 l 1
 896 64 l 1
 896 0 l 1
 768 0 l 1
256 64 m 1
 256 256 l 1
 128 256 l 1
 128 320 l 1
 256 320 l 1
 256 256 l 1
 320 256 l 1
 320 64 l 1
 256 64 l 1
896 64 m 1
 896 128 l 1
 768 128 l 1
 768 192 l 1
 704 192 l 1
 704 256 l 1
 768 256 l 1
 768 192 l 1
 896 192 l 1
 896 256 l 1
 768 256 l 1
 768 320 l 1
 896 320 l 1
 896 256 l 1
 960 256 l 1
 960 64 l 1
 896 64 l 1
128 448 m 1
 128 512 l 1
 192 512 l 1
 192 554.666666667 192 597.333333333 192 640 c 1
 128 640 l 1
 128 704 l 1
 192 704 l 1
 192 768 l 1
 256 768 l 1
 256 682.666666667 256 597.333333333 256 512 c 1
 320 512 l 1
 320 448 l 1
 128 448 l 1
448 448 m 1
 448 512 l 1
 384 512 l 1
 384 704 l 1
 448 704 l 1
 448 512 l 1
 576 512 l 1
 576 448 l 1
 448 448 l 1
768 448 m 1
 768 512 l 1
 832 512 l 1
 832 554.666666667 832 597.333333333 832 640 c 1
 768 640 l 1
 768 704 l 1
 832 704 l 1
 832 768 l 1
 896 768 l 1
 896 682.666666667 896 597.333333333 896 512 c 1
 960 512 l 1
 960 448 l 1
 768 448 l 1
576 512 m 1
 576 704 l 1
 448 704 l 1
 448 768 l 1
 576 768 l 1
 576 704 l 1
 640 704 l 1
 640 512 l 1
 576 512 l 1
EndSplineSet
EndChar

StartChar: uni10105A
Encoding: 1052762 1052762 110
Width: 1024
Flags: HW
LayerCount: 2
Fore
SplineSet
576 64 m 1
 576 128 l 1
 384 128 l 1
 384 320 l 1
 640 320 l 1
 640 256 l 1
 448 256 l 1
 448 192 l 1
 640 192 l 1
 640 0 l 1
 384 0 l 1
 384 64 l 1
 576 64 l 1
896 192 m 1
 896 256 l 1
 768 256 l 1
 768 192 l 1
 896 192 l 1
0 832 m 1
 -0 533.333333333 0 234.666666667 0 -64 c 1
 1024 -64 l 1
 1024 234.666666667 1024 533.333333333 1024 832 c 1
 0 832 l 1
128 0 m 1
 128 64 l 1
 64 64 l 1
 64 256 l 1
 128 256 l 1
 128 64 l 1
 256 64 l 1
 256 0 l 1
 128 0 l 1
704 0 m 1
 704 320 l 1
 960 320 l 1
 960 0 l 1
 896 0 l 1
 896 42.6666666667 896 85.3333333333 896 128 c 1
 768 128 l 1
 768 85.3333333333 768 42.6666666667 768 0 c 1
 704 0 l 1
256 64 m 1
 256 256 l 1
 128 256 l 1
 128 320 l 1
 256 320 l 1
 256 256 l 1
 320 256 l 1
 320 64 l 1
 256 64 l 1
128 448 m 1
 128 512 l 1
 192 512 l 1
 192 554.666666667 192 597.333333333 192 640 c 1
 128 640 l 1
 128 704 l 1
 192 704 l 1
 192 768 l 1
 256 768 l 1
 256 682.666666667 256 597.333333333 256 512 c 1
 320 512 l 1
 320 448 l 1
 128 448 l 1
448 448 m 1
 448 512 l 1
 384 512 l 1
 384 704 l 1
 448 704 l 1
 448 512 l 1
 576 512 l 1
 576 448 l 1
 448 448 l 1
768 448 m 1
 768 512 l 1
 832 512 l 1
 832 554.666666667 832 597.333333333 832 640 c 1
 768 640 l 1
 768 704 l 1
 832 704 l 1
 832 768 l 1
 896 768 l 1
 896 682.666666667 896 597.333333333 896 512 c 1
 960 512 l 1
 960 448 l 1
 768 448 l 1
576 512 m 1
 576 704 l 1
 448 704 l 1
 448 768 l 1
 576 768 l 1
 576 704 l 1
 640 704 l 1
 640 512 l 1
 576 512 l 1
EndSplineSet
EndChar

StartChar: uni10105B
Encoding: 1052763 1052763 111
Width: 1024
Flags: HW
LayerCount: 2
Fore
SplineSet
576 64 m 1
 576 128 l 1
 384 128 l 1
 384 320 l 1
 640 320 l 1
 640 256 l 1
 448 256 l 1
 448 192 l 1
 640 192 l 1
 640 0 l 1
 384 0 l 1
 384 64 l 1
 576 64 l 1
0 832 m 1
 -0 533.333333333 0 234.666666667 0 -64 c 1
 1024 -64 l 1
 1024 234.666666667 1024 533.333333333 1024 832 c 1
 0 832 l 1
128 0 m 1
 128 64 l 1
 64 64 l 1
 64 256 l 1
 128 256 l 1
 128 64 l 1
 256 64 l 1
 256 0 l 1
 128 0 l 1
704 0 m 1
 704 320 l 1
 896 320 l 1
 896 256 l 1
 768 256 l 1
 768 192 l 1
 896 192 l 1
 896 128 l 1
 768 128 l 1
 768 64 l 1
 896 64 l 1
 896 0 l 1
 704 0 l 1
256 64 m 1
 256 256 l 1
 128 256 l 1
 128 320 l 1
 256 320 l 1
 256 256 l 1
 320 256 l 1
 320 64 l 1
 256 64 l 1
896 64 m 1
 896 128 l 1
 960 128 l 1
 960 64 l 1
 896 64 l 1
896 192 m 1
 896 256 l 1
 960 256 l 1
 960 192 l 1
 896 192 l 1
128 448 m 1
 128 512 l 1
 192 512 l 1
 192 554.666666667 192 597.333333333 192 640 c 1
 128 640 l 1
 128 704 l 1
 192 704 l 1
 192 768 l 1
 256 768 l 1
 256 682.666666667 256 597.333333333 256 512 c 1
 320 512 l 1
 320 448 l 1
 128 448 l 1
448 448 m 1
 448 512 l 1
 384 512 l 1
 384 704 l 1
 448 704 l 1
 448 512 l 1
 576 512 l 1
 576 448 l 1
 448 448 l 1
768 448 m 1
 768 512 l 1
 832 512 l 1
 832 554.666666667 832 597.333333333 832 640 c 1
 768 640 l 1
 768 704 l 1
 832 704 l 1
 832 768 l 1
 896 768 l 1
 896 682.666666667 896 597.333333333 896 512 c 1
 960 512 l 1
 960 448 l 1
 768 448 l 1
576 512 m 1
 576 704 l 1
 448 704 l 1
 448 768 l 1
 576 768 l 1
 576 704 l 1
 640 704 l 1
 640 512 l 1
 576 512 l 1
EndSplineSet
EndChar

StartChar: uni10105C
Encoding: 1052764 1052764 112
Width: 1024
Flags: HW
LayerCount: 2
Fore
SplineSet
576 64 m 1
 576 128 l 1
 384 128 l 1
 384 320 l 1
 640 320 l 1
 640 256 l 1
 448 256 l 1
 448 192 l 1
 640 192 l 1
 640 0 l 1
 384 0 l 1
 384 64 l 1
 576 64 l 1
0 832 m 1
 -0 533.333333333 0 234.666666667 0 -64 c 1
 1024 -64 l 1
 1024 234.666666667 1024 533.333333333 1024 832 c 1
 0 832 l 1
128 0 m 1
 128 64 l 1
 64 64 l 1
 64 256 l 1
 128 256 l 1
 128 64 l 1
 256 64 l 1
 256 0 l 1
 128 0 l 1
768 0 m 1
 768 64 l 1
 704 64 l 1
 704 256 l 1
 768 256 l 1
 768 64 l 1
 960 64 l 1
 960 0 l 1
 768 0 l 1
256 64 m 1
 256 256 l 1
 128 256 l 1
 128 320 l 1
 256 320 l 1
 256 256 l 1
 320 256 l 1
 320 64 l 1
 256 64 l 1
768 256 m 1
 768 320 l 1
 960 320 l 1
 960 256 l 1
 768 256 l 1
128 448 m 1
 128 512 l 1
 192 512 l 1
 192 554.666666667 192 597.333333333 192 640 c 1
 128 640 l 1
 128 704 l 1
 192 704 l 1
 192 768 l 1
 256 768 l 1
 256 682.666666667 256 597.333333333 256 512 c 1
 320 512 l 1
 320 448 l 1
 128 448 l 1
448 448 m 1
 448 512 l 1
 384 512 l 1
 384 704 l 1
 448 704 l 1
 448 512 l 1
 576 512 l 1
 576 448 l 1
 448 448 l 1
768 448 m 1
 768 512 l 1
 832 512 l 1
 832 554.666666667 832 597.333333333 832 640 c 1
 768 640 l 1
 768 704 l 1
 832 704 l 1
 832 768 l 1
 896 768 l 1
 896 682.666666667 896 597.333333333 896 512 c 1
 960 512 l 1
 960 448 l 1
 768 448 l 1
576 512 m 1
 576 704 l 1
 448 704 l 1
 448 768 l 1
 576 768 l 1
 576 704 l 1
 640 704 l 1
 640 512 l 1
 576 512 l 1
EndSplineSet
EndChar

StartChar: uni10105D
Encoding: 1052765 1052765 113
Width: 1024
Flags: HW
LayerCount: 2
Fore
SplineSet
576 64 m 1
 576 128 l 1
 384 128 l 1
 384 320 l 1
 640 320 l 1
 640 256 l 1
 448 256 l 1
 448 192 l 1
 640 192 l 1
 640 0 l 1
 384 0 l 1
 384 64 l 1
 576 64 l 1
0 832 m 1
 -0 533.333333333 0 234.666666667 0 -64 c 1
 1024 -64 l 1
 1024 234.666666667 1024 533.333333333 1024 832 c 1
 0 832 l 1
128 0 m 1
 128 64 l 1
 64 64 l 1
 64 256 l 1
 128 256 l 1
 128 64 l 1
 256 64 l 1
 256 0 l 1
 128 0 l 1
704 0 m 1
 704 320 l 1
 896 320 l 1
 896 256 l 1
 768 256 l 1
 768 64 l 1
 896 64 l 1
 896 0 l 1
 704 0 l 1
256 64 m 1
 256 256 l 1
 128 256 l 1
 128 320 l 1
 256 320 l 1
 256 256 l 1
 320 256 l 1
 320 64 l 1
 256 64 l 1
896 64 m 1
 896 256 l 1
 960 256 l 1
 960 64 l 1
 896 64 l 1
128 448 m 1
 128 512 l 1
 192 512 l 1
 192 554.666666667 192 597.333333333 192 640 c 1
 128 640 l 1
 128 704 l 1
 192 704 l 1
 192 768 l 1
 256 768 l 1
 256 682.666666667 256 597.333333333 256 512 c 1
 320 512 l 1
 320 448 l 1
 128 448 l 1
448 448 m 1
 448 512 l 1
 384 512 l 1
 384 704 l 1
 448 704 l 1
 448 512 l 1
 576 512 l 1
 576 448 l 1
 448 448 l 1
768 448 m 1
 768 512 l 1
 832 512 l 1
 832 554.666666667 832 597.333333333 832 640 c 1
 768 640 l 1
 768 704 l 1
 832 704 l 1
 832 768 l 1
 896 768 l 1
 896 682.666666667 896 597.333333333 896 512 c 1
 960 512 l 1
 960 448 l 1
 768 448 l 1
576 512 m 1
 576 704 l 1
 448 704 l 1
 448 768 l 1
 576 768 l 1
 576 704 l 1
 640 704 l 1
 640 512 l 1
 576 512 l 1
EndSplineSet
EndChar

StartChar: uni10105E
Encoding: 1052766 1052766 114
Width: 1024
Flags: HW
LayerCount: 2
Fore
SplineSet
576 64 m 1
 576 128 l 1
 384 128 l 1
 384 320 l 1
 640 320 l 1
 640 256 l 1
 448 256 l 1
 448 192 l 1
 640 192 l 1
 640 0 l 1
 384 0 l 1
 384 64 l 1
 576 64 l 1
0 832 m 1
 -0 533.333333333 0 234.666666667 0 -64 c 1
 1024 -64 l 1
 1024 234.666666667 1024 533.333333333 1024 832 c 1
 0 832 l 1
128 0 m 1
 128 64 l 1
 64 64 l 1
 64 256 l 1
 128 256 l 1
 128 64 l 1
 256 64 l 1
 256 0 l 1
 128 0 l 1
704 0 m 1
 704 320 l 1
 960 320 l 1
 960 256 l 1
 768 256 l 1
 768 192 l 1
 896 192 l 1
 896 128 l 1
 768 128 l 1
 768 64 l 1
 960 64 l 1
 960 0 l 1
 704 0 l 1
256 64 m 1
 256 256 l 1
 128 256 l 1
 128 320 l 1
 256 320 l 1
 256 256 l 1
 320 256 l 1
 320 64 l 1
 256 64 l 1
128 448 m 1
 128 512 l 1
 192 512 l 1
 192 554.666666667 192 597.333333333 192 640 c 1
 128 640 l 1
 128 704 l 1
 192 704 l 1
 192 768 l 1
 256 768 l 1
 256 682.666666667 256 597.333333333 256 512 c 1
 320 512 l 1
 320 448 l 1
 128 448 l 1
448 448 m 1
 448 512 l 1
 384 512 l 1
 384 704 l 1
 448 704 l 1
 448 512 l 1
 576 512 l 1
 576 448 l 1
 448 448 l 1
768 448 m 1
 768 512 l 1
 832 512 l 1
 832 554.666666667 832 597.333333333 832 640 c 1
 768 640 l 1
 768 704 l 1
 832 704 l 1
 832 768 l 1
 896 768 l 1
 896 682.666666667 896 597.333333333 896 512 c 1
 960 512 l 1
 960 448 l 1
 768 448 l 1
576 512 m 1
 576 704 l 1
 448 704 l 1
 448 768 l 1
 576 768 l 1
 576 704 l 1
 640 704 l 1
 640 512 l 1
 576 512 l 1
EndSplineSet
EndChar

StartChar: uni10105F
Encoding: 1052767 1052767 115
Width: 1024
Flags: HW
LayerCount: 2
Fore
SplineSet
576 64 m 1
 576 128 l 1
 384 128 l 1
 384 320 l 1
 640 320 l 1
 640 256 l 1
 448 256 l 1
 448 192 l 1
 640 192 l 1
 640 0 l 1
 384 0 l 1
 384 64 l 1
 576 64 l 1
0 832 m 1
 -0 533.333333333 0 234.666666667 0 -64 c 1
 1024 -64 l 1
 1024 234.666666667 1024 533.333333333 1024 832 c 1
 0 832 l 1
128 0 m 1
 128 64 l 1
 64 64 l 1
 64 256 l 1
 128 256 l 1
 128 64 l 1
 256 64 l 1
 256 0 l 1
 128 0 l 1
704 0 m 1
 704 320 l 1
 960 320 l 1
 960 256 l 1
 768 256 l 1
 768 192 l 1
 896 192 l 1
 896 128 l 1
 768 128 l 1
 768 85.3333333333 768 42.6666666667 768 0 c 1
 704 0 l 1
256 64 m 1
 256 256 l 1
 128 256 l 1
 128 320 l 1
 256 320 l 1
 256 256 l 1
 320 256 l 1
 320 64 l 1
 256 64 l 1
128 448 m 1
 128 512 l 1
 192 512 l 1
 192 554.666666667 192 597.333333333 192 640 c 1
 128 640 l 1
 128 704 l 1
 192 704 l 1
 192 768 l 1
 256 768 l 1
 256 682.666666667 256 597.333333333 256 512 c 1
 320 512 l 1
 320 448 l 1
 128 448 l 1
448 448 m 1
 448 512 l 1
 384 512 l 1
 384 704 l 1
 448 704 l 1
 448 512 l 1
 576 512 l 1
 576 448 l 1
 448 448 l 1
768 448 m 1
 768 512 l 1
 832 512 l 1
 832 554.666666667 832 597.333333333 832 640 c 1
 768 640 l 1
 768 704 l 1
 832 704 l 1
 832 768 l 1
 896 768 l 1
 896 682.666666667 896 597.333333333 896 512 c 1
 960 512 l 1
 960 448 l 1
 768 448 l 1
576 512 m 1
 576 704 l 1
 448 704 l 1
 448 768 l 1
 576 768 l 1
 576 704 l 1
 640 704 l 1
 640 512 l 1
 576 512 l 1
EndSplineSet
EndChar

StartChar: uni101060
Encoding: 1052768 1052768 116
Width: 1024
Flags: HW
LayerCount: 2
Fore
SplineSet
0 832 m 1
 -0 533.333333333 0 234.666666667 0 -64 c 1
 1024 -64 l 1
 1024 234.666666667 1024 533.333333333 1024 832 c 1
 0 832 l 1
128 0 m 1
 128 64 l 1
 64 64 l 1
 64 256 l 1
 128 256 l 1
 128 64 l 1
 256 64 l 1
 256 0 l 1
 128 0 l 1
448 0 m 1
 448 64 l 1
 384 64 l 1
 384 256 l 1
 448 256 l 1
 448 192 l 1
 576 192 l 1
 576 128 l 1
 448 128 l 1
 448 64 l 1
 576 64 l 1
 576 0 l 1
 448 0 l 1
768 0 m 1
 768 64 l 1
 704 64 l 1
 704 256 l 1
 768 256 l 1
 768 64 l 1
 896 64 l 1
 896 0 l 1
 768 0 l 1
256 64 m 1
 256 256 l 1
 128 256 l 1
 128 320 l 1
 256 320 l 1
 256 256 l 1
 320 256 l 1
 320 64 l 1
 256 64 l 1
576 64 m 1
 576 128 l 1
 640 128 l 1
 640 64 l 1
 576 64 l 1
896 64 m 1
 896 256 l 1
 768 256 l 1
 768 320 l 1
 896 320 l 1
 896 256 l 1
 960 256 l 1
 960 64 l 1
 896 64 l 1
448 256 m 1
 448 320 l 1
 576 320 l 1
 576 256 l 1
 448 256 l 1
128 448 m 1
 128 512 l 1
 192 512 l 1
 192 554.666666667 192 597.333333333 192 640 c 1
 128 640 l 1
 128 704 l 1
 192 704 l 1
 192 768 l 1
 256 768 l 1
 256 682.666666667 256 597.333333333 256 512 c 1
 320 512 l 1
 320 448 l 1
 128 448 l 1
448 448 m 1
 448 512 l 1
 384 512 l 1
 384 704 l 1
 448 704 l 1
 448 512 l 1
 576 512 l 1
 576 448 l 1
 448 448 l 1
768 448 m 1
 768 512 l 1
 832 512 l 1
 832 554.666666667 832 597.333333333 832 640 c 1
 768 640 l 1
 768 704 l 1
 832 704 l 1
 832 768 l 1
 896 768 l 1
 896 682.666666667 896 597.333333333 896 512 c 1
 960 512 l 1
 960 448 l 1
 768 448 l 1
576 512 m 1
 576 704 l 1
 448 704 l 1
 448 768 l 1
 576 768 l 1
 576 704 l 1
 640 704 l 1
 640 512 l 1
 576 512 l 1
EndSplineSet
EndChar

StartChar: uni101061
Encoding: 1052769 1052769 117
Width: 1024
Flags: HW
LayerCount: 2
Fore
SplineSet
0 832 m 1
 -0 533.333333333 0 234.666666667 0 -64 c 1
 1024 -64 l 1
 1024 234.666666667 1024 533.333333333 1024 832 c 1
 0 832 l 1
128 0 m 1
 128 64 l 1
 64 64 l 1
 64 256 l 1
 128 256 l 1
 128 64 l 1
 256 64 l 1
 256 0 l 1
 128 0 l 1
448 0 m 1
 448 64 l 1
 384 64 l 1
 384 256 l 1
 448 256 l 1
 448 192 l 1
 576 192 l 1
 576 128 l 1
 448 128 l 1
 448 64 l 1
 576 64 l 1
 576 0 l 1
 448 0 l 1
768 0 m 1
 768 64 l 1
 832 64 l 1
 832 106.666666667 832 149.333333333 832 192 c 1
 768 192 l 1
 768 256 l 1
 832 256 l 1
 832 320 l 1
 896 320 l 1
 896 234.666666667 896 149.333333333 896 64 c 1
 960 64 l 1
 960 0 l 1
 768 0 l 1
256 64 m 1
 256 256 l 1
 128 256 l 1
 128 320 l 1
 256 320 l 1
 256 256 l 1
 320 256 l 1
 320 64 l 1
 256 64 l 1
576 64 m 1
 576 128 l 1
 640 128 l 1
 640 64 l 1
 576 64 l 1
448 256 m 1
 448 320 l 1
 576 320 l 1
 576 256 l 1
 448 256 l 1
128 448 m 1
 128 512 l 1
 192 512 l 1
 192 554.666666667 192 597.333333333 192 640 c 1
 128 640 l 1
 128 704 l 1
 192 704 l 1
 192 768 l 1
 256 768 l 1
 256 682.666666667 256 597.333333333 256 512 c 1
 320 512 l 1
 320 448 l 1
 128 448 l 1
448 448 m 1
 448 512 l 1
 384 512 l 1
 384 704 l 1
 448 704 l 1
 448 512 l 1
 576 512 l 1
 576 448 l 1
 448 448 l 1
768 448 m 1
 768 512 l 1
 832 512 l 1
 832 554.666666667 832 597.333333333 832 640 c 1
 768 640 l 1
 768 704 l 1
 832 704 l 1
 832 768 l 1
 896 768 l 1
 896 682.666666667 896 597.333333333 896 512 c 1
 960 512 l 1
 960 448 l 1
 768 448 l 1
576 512 m 1
 576 704 l 1
 448 704 l 1
 448 768 l 1
 576 768 l 1
 576 704 l 1
 640 704 l 1
 640 512 l 1
 576 512 l 1
EndSplineSet
EndChar

StartChar: uni101062
Encoding: 1052770 1052770 118
Width: 1024
Flags: HW
LayerCount: 2
Fore
SplineSet
896 192 m 1
 896 256 l 1
 704 256 l 1
 704 320 l 1
 960 320 l 1
 960 128 l 1
 768 128 l 1
 768 64 l 1
 960 64 l 1
 960 0 l 1
 704 0 l 1
 704 192 l 1
 896 192 l 1
0 832 m 1
 -0 533.333333333 0 234.666666667 0 -64 c 1
 1024 -64 l 1
 1024 234.666666667 1024 533.333333333 1024 832 c 1
 0 832 l 1
128 0 m 1
 128 64 l 1
 64 64 l 1
 64 256 l 1
 128 256 l 1
 128 64 l 1
 256 64 l 1
 256 0 l 1
 128 0 l 1
448 0 m 1
 448 64 l 1
 384 64 l 1
 384 256 l 1
 448 256 l 1
 448 192 l 1
 576 192 l 1
 576 128 l 1
 448 128 l 1
 448 64 l 1
 576 64 l 1
 576 0 l 1
 448 0 l 1
256 64 m 1
 256 256 l 1
 128 256 l 1
 128 320 l 1
 256 320 l 1
 256 256 l 1
 320 256 l 1
 320 64 l 1
 256 64 l 1
576 64 m 1
 576 128 l 1
 640 128 l 1
 640 64 l 1
 576 64 l 1
448 256 m 1
 448 320 l 1
 576 320 l 1
 576 256 l 1
 448 256 l 1
128 448 m 1
 128 512 l 1
 192 512 l 1
 192 554.666666667 192 597.333333333 192 640 c 1
 128 640 l 1
 128 704 l 1
 192 704 l 1
 192 768 l 1
 256 768 l 1
 256 682.666666667 256 597.333333333 256 512 c 1
 320 512 l 1
 320 448 l 1
 128 448 l 1
448 448 m 1
 448 512 l 1
 384 512 l 1
 384 704 l 1
 448 704 l 1
 448 512 l 1
 576 512 l 1
 576 448 l 1
 448 448 l 1
768 448 m 1
 768 512 l 1
 832 512 l 1
 832 554.666666667 832 597.333333333 832 640 c 1
 768 640 l 1
 768 704 l 1
 832 704 l 1
 832 768 l 1
 896 768 l 1
 896 682.666666667 896 597.333333333 896 512 c 1
 960 512 l 1
 960 448 l 1
 768 448 l 1
576 512 m 1
 576 704 l 1
 448 704 l 1
 448 768 l 1
 576 768 l 1
 576 704 l 1
 640 704 l 1
 640 512 l 1
 576 512 l 1
EndSplineSet
EndChar

StartChar: uni101063
Encoding: 1052771 1052771 119
Width: 1024
Flags: HW
LayerCount: 2
Fore
SplineSet
0 832 m 1
 -0 533.333333333 0 234.666666667 0 -64 c 1
 1024 -64 l 1
 1024 234.666666667 1024 533.333333333 1024 832 c 1
 0 832 l 1
128 0 m 1
 128 64 l 1
 64 64 l 1
 64 256 l 1
 128 256 l 1
 128 64 l 1
 256 64 l 1
 256 0 l 1
 128 0 l 1
448 0 m 1
 448 64 l 1
 384 64 l 1
 384 256 l 1
 448 256 l 1
 448 192 l 1
 576 192 l 1
 576 128 l 1
 448 128 l 1
 448 64 l 1
 576 64 l 1
 576 0 l 1
 448 0 l 1
704 0 m 1
 704 64 l 1
 896 64 l 1
 896 0 l 1
 704 0 l 1
256 64 m 1
 256 256 l 1
 128 256 l 1
 128 320 l 1
 256 320 l 1
 256 256 l 1
 320 256 l 1
 320 64 l 1
 256 64 l 1
576 64 m 1
 576 128 l 1
 640 128 l 1
 640 64 l 1
 576 64 l 1
896 64 m 1
 896 128 l 1
 768 128 l 1
 768 192 l 1
 896 192 l 1
 896 256 l 1
 704 256 l 1
 704 320 l 1
 896 320 l 1
 896 256 l 1
 960 256 l 1
 960 64 l 1
 896 64 l 1
448 256 m 1
 448 320 l 1
 576 320 l 1
 576 256 l 1
 448 256 l 1
128 448 m 1
 128 512 l 1
 192 512 l 1
 192 554.666666667 192 597.333333333 192 640 c 1
 128 640 l 1
 128 704 l 1
 192 704 l 1
 192 768 l 1
 256 768 l 1
 256 682.666666667 256 597.333333333 256 512 c 1
 320 512 l 1
 320 448 l 1
 128 448 l 1
448 448 m 1
 448 512 l 1
 384 512 l 1
 384 704 l 1
 448 704 l 1
 448 512 l 1
 576 512 l 1
 576 448 l 1
 448 448 l 1
768 448 m 1
 768 512 l 1
 832 512 l 1
 832 554.666666667 832 597.333333333 832 640 c 1
 768 640 l 1
 768 704 l 1
 832 704 l 1
 832 768 l 1
 896 768 l 1
 896 682.666666667 896 597.333333333 896 512 c 1
 960 512 l 1
 960 448 l 1
 768 448 l 1
576 512 m 1
 576 704 l 1
 448 704 l 1
 448 768 l 1
 576 768 l 1
 576 704 l 1
 640 704 l 1
 640 512 l 1
 576 512 l 1
EndSplineSet
EndChar

StartChar: uni101064
Encoding: 1052772 1052772 120
Width: 1024
Flags: HW
LayerCount: 2
Fore
SplineSet
0 832 m 1
 -0 533.333333333 0 234.666666667 0 -64 c 1
 1024 -64 l 1
 1024 234.666666667 1024 533.333333333 1024 832 c 1
 0 832 l 1
128 0 m 1
 128 64 l 1
 64 64 l 1
 64 256 l 1
 128 256 l 1
 128 64 l 1
 256 64 l 1
 256 0 l 1
 128 0 l 1
448 0 m 1
 448 64 l 1
 384 64 l 1
 384 256 l 1
 448 256 l 1
 448 192 l 1
 576 192 l 1
 576 128 l 1
 448 128 l 1
 448 64 l 1
 576 64 l 1
 576 0 l 1
 448 0 l 1
896 0 m 1
 896 42.6666666667 896 85.3333333333 896 128 c 1
 704 128 l 1
 704 320 l 1
 768 320 l 1
 768 277.333333333 768 234.666666667 768 192 c 1
 896 192 l 1
 896 234.666666667 896 277.333333333 896 320 c 1
 960 320 l 1
 960 0 l 1
 896 0 l 1
256 64 m 1
 256 256 l 1
 128 256 l 1
 128 320 l 1
 256 320 l 1
 256 256 l 1
 320 256 l 1
 320 64 l 1
 256 64 l 1
576 64 m 1
 576 128 l 1
 640 128 l 1
 640 64 l 1
 576 64 l 1
448 256 m 1
 448 320 l 1
 576 320 l 1
 576 256 l 1
 448 256 l 1
128 448 m 1
 128 512 l 1
 192 512 l 1
 192 554.666666667 192 597.333333333 192 640 c 1
 128 640 l 1
 128 704 l 1
 192 704 l 1
 192 768 l 1
 256 768 l 1
 256 682.666666667 256 597.333333333 256 512 c 1
 320 512 l 1
 320 448 l 1
 128 448 l 1
448 448 m 1
 448 512 l 1
 384 512 l 1
 384 704 l 1
 448 704 l 1
 448 512 l 1
 576 512 l 1
 576 448 l 1
 448 448 l 1
768 448 m 1
 768 512 l 1
 832 512 l 1
 832 554.666666667 832 597.333333333 832 640 c 1
 768 640 l 1
 768 704 l 1
 832 704 l 1
 832 768 l 1
 896 768 l 1
 896 682.666666667 896 597.333333333 896 512 c 1
 960 512 l 1
 960 448 l 1
 768 448 l 1
576 512 m 1
 576 704 l 1
 448 704 l 1
 448 768 l 1
 576 768 l 1
 576 704 l 1
 640 704 l 1
 640 512 l 1
 576 512 l 1
EndSplineSet
EndChar

StartChar: uni101065
Encoding: 1052773 1052773 121
Width: 1024
Flags: HW
LayerCount: 2
Fore
SplineSet
896 64 m 1
 896 128 l 1
 704 128 l 1
 704 320 l 1
 960 320 l 1
 960 256 l 1
 768 256 l 1
 768 192 l 1
 960 192 l 1
 960 0 l 1
 704 0 l 1
 704 64 l 1
 896 64 l 1
0 832 m 1
 -0 533.333333333 0 234.666666667 0 -64 c 1
 1024 -64 l 1
 1024 234.666666667 1024 533.333333333 1024 832 c 1
 0 832 l 1
128 0 m 1
 128 64 l 1
 64 64 l 1
 64 256 l 1
 128 256 l 1
 128 64 l 1
 256 64 l 1
 256 0 l 1
 128 0 l 1
448 0 m 1
 448 64 l 1
 384 64 l 1
 384 256 l 1
 448 256 l 1
 448 192 l 1
 576 192 l 1
 576 128 l 1
 448 128 l 1
 448 64 l 1
 576 64 l 1
 576 0 l 1
 448 0 l 1
256 64 m 1
 256 256 l 1
 128 256 l 1
 128 320 l 1
 256 320 l 1
 256 256 l 1
 320 256 l 1
 320 64 l 1
 256 64 l 1
576 64 m 1
 576 128 l 1
 640 128 l 1
 640 64 l 1
 576 64 l 1
448 256 m 1
 448 320 l 1
 576 320 l 1
 576 256 l 1
 448 256 l 1
128 448 m 1
 128 512 l 1
 192 512 l 1
 192 554.666666667 192 597.333333333 192 640 c 1
 128 640 l 1
 128 704 l 1
 192 704 l 1
 192 768 l 1
 256 768 l 1
 256 682.666666667 256 597.333333333 256 512 c 1
 320 512 l 1
 320 448 l 1
 128 448 l 1
448 448 m 1
 448 512 l 1
 384 512 l 1
 384 704 l 1
 448 704 l 1
 448 512 l 1
 576 512 l 1
 576 448 l 1
 448 448 l 1
768 448 m 1
 768 512 l 1
 832 512 l 1
 832 554.666666667 832 597.333333333 832 640 c 1
 768 640 l 1
 768 704 l 1
 832 704 l 1
 832 768 l 1
 896 768 l 1
 896 682.666666667 896 597.333333333 896 512 c 1
 960 512 l 1
 960 448 l 1
 768 448 l 1
576 512 m 1
 576 704 l 1
 448 704 l 1
 448 768 l 1
 576 768 l 1
 576 704 l 1
 640 704 l 1
 640 512 l 1
 576 512 l 1
EndSplineSet
EndChar

StartChar: uni101066
Encoding: 1052774 1052774 122
Width: 1024
Flags: HW
LayerCount: 2
Fore
SplineSet
0 832 m 1
 -0 533.333333333 0 234.666666667 0 -64 c 1
 1024 -64 l 1
 1024 234.666666667 1024 533.333333333 1024 832 c 1
 0 832 l 1
128 0 m 1
 128 64 l 1
 64 64 l 1
 64 256 l 1
 128 256 l 1
 128 64 l 1
 256 64 l 1
 256 0 l 1
 128 0 l 1
448 0 m 1
 448 64 l 1
 384 64 l 1
 384 256 l 1
 448 256 l 1
 448 192 l 1
 576 192 l 1
 576 128 l 1
 448 128 l 1
 448 64 l 1
 576 64 l 1
 576 0 l 1
 448 0 l 1
768 0 m 1
 768 64 l 1
 704 64 l 1
 704 256 l 1
 768 256 l 1
 768 192 l 1
 896 192 l 1
 896 128 l 1
 768 128 l 1
 768 64 l 1
 896 64 l 1
 896 0 l 1
 768 0 l 1
256 64 m 1
 256 256 l 1
 128 256 l 1
 128 320 l 1
 256 320 l 1
 256 256 l 1
 320 256 l 1
 320 64 l 1
 256 64 l 1
576 64 m 1
 576 128 l 1
 640 128 l 1
 640 64 l 1
 576 64 l 1
896 64 m 1
 896 128 l 1
 960 128 l 1
 960 64 l 1
 896 64 l 1
448 256 m 1
 448 320 l 1
 576 320 l 1
 576 256 l 1
 448 256 l 1
768 256 m 1
 768 320 l 1
 896 320 l 1
 896 256 l 1
 768 256 l 1
128 448 m 1
 128 512 l 1
 192 512 l 1
 192 554.666666667 192 597.333333333 192 640 c 1
 128 640 l 1
 128 704 l 1
 192 704 l 1
 192 768 l 1
 256 768 l 1
 256 682.666666667 256 597.333333333 256 512 c 1
 320 512 l 1
 320 448 l 1
 128 448 l 1
448 448 m 1
 448 512 l 1
 384 512 l 1
 384 704 l 1
 448 704 l 1
 448 512 l 1
 576 512 l 1
 576 448 l 1
 448 448 l 1
768 448 m 1
 768 512 l 1
 832 512 l 1
 832 554.666666667 832 597.333333333 832 640 c 1
 768 640 l 1
 768 704 l 1
 832 704 l 1
 832 768 l 1
 896 768 l 1
 896 682.666666667 896 597.333333333 896 512 c 1
 960 512 l 1
 960 448 l 1
 768 448 l 1
576 512 m 1
 576 704 l 1
 448 704 l 1
 448 768 l 1
 576 768 l 1
 576 704 l 1
 640 704 l 1
 640 512 l 1
 576 512 l 1
EndSplineSet
EndChar

StartChar: uni101067
Encoding: 1052775 1052775 123
Width: 1024
Flags: HW
LayerCount: 2
Fore
SplineSet
0 832 m 1
 -0 533.333333333 0 234.666666667 0 -64 c 1
 1024 -64 l 1
 1024 234.666666667 1024 533.333333333 1024 832 c 1
 0 832 l 1
128 0 m 1
 128 64 l 1
 64 64 l 1
 64 256 l 1
 128 256 l 1
 128 64 l 1
 256 64 l 1
 256 0 l 1
 128 0 l 1
448 0 m 1
 448 64 l 1
 384 64 l 1
 384 256 l 1
 448 256 l 1
 448 192 l 1
 576 192 l 1
 576 128 l 1
 448 128 l 1
 448 64 l 1
 576 64 l 1
 576 0 l 1
 448 0 l 1
768 0 m 1
 768 42.6666666667 768 85.3333333333 768 128 c 1
 832 128 l 1
 832 85.3333333333 832 42.6666666667 832 0 c 1
 768 0 l 1
256 64 m 1
 256 256 l 1
 128 256 l 1
 128 320 l 1
 256 320 l 1
 256 256 l 1
 320 256 l 1
 320 64 l 1
 256 64 l 1
576 64 m 1
 576 128 l 1
 640 128 l 1
 640 64 l 1
 576 64 l 1
832 128 m 1
 832 192 l 1
 896 192 l 1
 896 128 l 1
 832 128 l 1
896 192 m 1
 896 256 l 1
 704 256 l 1
 704 320 l 1
 960 320 l 1
 960 277.333333333 960 234.666666667 960 192 c 1
 896 192 l 1
448 256 m 1
 448 320 l 1
 576 320 l 1
 576 256 l 1
 448 256 l 1
128 448 m 1
 128 512 l 1
 192 512 l 1
 192 554.666666667 192 597.333333333 192 640 c 1
 128 640 l 1
 128 704 l 1
 192 704 l 1
 192 768 l 1
 256 768 l 1
 256 682.666666667 256 597.333333333 256 512 c 1
 320 512 l 1
 320 448 l 1
 128 448 l 1
448 448 m 1
 448 512 l 1
 384 512 l 1
 384 704 l 1
 448 704 l 1
 448 512 l 1
 576 512 l 1
 576 448 l 1
 448 448 l 1
768 448 m 1
 768 512 l 1
 832 512 l 1
 832 554.666666667 832 597.333333333 832 640 c 1
 768 640 l 1
 768 704 l 1
 832 704 l 1
 832 768 l 1
 896 768 l 1
 896 682.666666667 896 597.333333333 896 512 c 1
 960 512 l 1
 960 448 l 1
 768 448 l 1
576 512 m 1
 576 704 l 1
 448 704 l 1
 448 768 l 1
 576 768 l 1
 576 704 l 1
 640 704 l 1
 640 512 l 1
 576 512 l 1
EndSplineSet
EndChar

StartChar: uni101068
Encoding: 1052776 1052776 124
Width: 1024
Flags: HW
LayerCount: 2
Fore
SplineSet
0 832 m 1
 -0 533.333333333 0 234.666666667 0 -64 c 1
 1024 -64 l 1
 1024 234.666666667 1024 533.333333333 1024 832 c 1
 0 832 l 1
128 0 m 1
 128 64 l 1
 64 64 l 1
 64 256 l 1
 128 256 l 1
 128 64 l 1
 256 64 l 1
 256 0 l 1
 128 0 l 1
448 0 m 1
 448 64 l 1
 384 64 l 1
 384 256 l 1
 448 256 l 1
 448 192 l 1
 576 192 l 1
 576 128 l 1
 448 128 l 1
 448 64 l 1
 576 64 l 1
 576 0 l 1
 448 0 l 1
768 0 m 1
 768 64 l 1
 704 64 l 1
 704 128 l 1
 768 128 l 1
 768 64 l 1
 896 64 l 1
 896 0 l 1
 768 0 l 1
256 64 m 1
 256 256 l 1
 128 256 l 1
 128 320 l 1
 256 320 l 1
 256 256 l 1
 320 256 l 1
 320 64 l 1
 256 64 l 1
576 64 m 1
 576 128 l 1
 640 128 l 1
 640 64 l 1
 576 64 l 1
896 64 m 1
 896 128 l 1
 768 128 l 1
 768 192 l 1
 704 192 l 1
 704 256 l 1
 768 256 l 1
 768 192 l 1
 896 192 l 1
 896 128 l 1
 960 128 l 1
 960 64 l 1
 896 64 l 1
896 192 m 1
 896 256 l 1
 768 256 l 1
 768 320 l 1
 896 320 l 1
 896 256 l 1
 960 256 l 1
 960 192 l 1
 896 192 l 1
448 256 m 1
 448 320 l 1
 576 320 l 1
 576 256 l 1
 448 256 l 1
128 448 m 1
 128 512 l 1
 192 512 l 1
 192 554.666666667 192 597.333333333 192 640 c 1
 128 640 l 1
 128 704 l 1
 192 704 l 1
 192 768 l 1
 256 768 l 1
 256 682.666666667 256 597.333333333 256 512 c 1
 320 512 l 1
 320 448 l 1
 128 448 l 1
448 448 m 1
 448 512 l 1
 384 512 l 1
 384 704 l 1
 448 704 l 1
 448 512 l 1
 576 512 l 1
 576 448 l 1
 448 448 l 1
768 448 m 1
 768 512 l 1
 832 512 l 1
 832 554.666666667 832 597.333333333 832 640 c 1
 768 640 l 1
 768 704 l 1
 832 704 l 1
 832 768 l 1
 896 768 l 1
 896 682.666666667 896 597.333333333 896 512 c 1
 960 512 l 1
 960 448 l 1
 768 448 l 1
576 512 m 1
 576 704 l 1
 448 704 l 1
 448 768 l 1
 576 768 l 1
 576 704 l 1
 640 704 l 1
 640 512 l 1
 576 512 l 1
EndSplineSet
EndChar

StartChar: uni101069
Encoding: 1052777 1052777 125
Width: 1024
Flags: HW
LayerCount: 2
Fore
SplineSet
0 832 m 1
 -0 533.333333333 0 234.666666667 0 -64 c 1
 1024 -64 l 1
 1024 234.666666667 1024 533.333333333 1024 832 c 1
 0 832 l 1
128 0 m 1
 128 64 l 1
 64 64 l 1
 64 256 l 1
 128 256 l 1
 128 64 l 1
 256 64 l 1
 256 0 l 1
 128 0 l 1
448 0 m 1
 448 64 l 1
 384 64 l 1
 384 256 l 1
 448 256 l 1
 448 192 l 1
 576 192 l 1
 576 128 l 1
 448 128 l 1
 448 64 l 1
 576 64 l 1
 576 0 l 1
 448 0 l 1
768 0 m 1
 768 64 l 1
 896 64 l 1
 896 0 l 1
 768 0 l 1
256 64 m 1
 256 256 l 1
 128 256 l 1
 128 320 l 1
 256 320 l 1
 256 256 l 1
 320 256 l 1
 320 64 l 1
 256 64 l 1
576 64 m 1
 576 128 l 1
 640 128 l 1
 640 64 l 1
 576 64 l 1
896 64 m 1
 896 128 l 1
 768 128 l 1
 768 192 l 1
 704 192 l 1
 704 256 l 1
 768 256 l 1
 768 192 l 1
 896 192 l 1
 896 256 l 1
 768 256 l 1
 768 320 l 1
 896 320 l 1
 896 256 l 1
 960 256 l 1
 960 64 l 1
 896 64 l 1
448 256 m 1
 448 320 l 1
 576 320 l 1
 576 256 l 1
 448 256 l 1
128 448 m 1
 128 512 l 1
 192 512 l 1
 192 554.666666667 192 597.333333333 192 640 c 1
 128 640 l 1
 128 704 l 1
 192 704 l 1
 192 768 l 1
 256 768 l 1
 256 682.666666667 256 597.333333333 256 512 c 1
 320 512 l 1
 320 448 l 1
 128 448 l 1
448 448 m 1
 448 512 l 1
 384 512 l 1
 384 704 l 1
 448 704 l 1
 448 512 l 1
 576 512 l 1
 576 448 l 1
 448 448 l 1
768 448 m 1
 768 512 l 1
 832 512 l 1
 832 554.666666667 832 597.333333333 832 640 c 1
 768 640 l 1
 768 704 l 1
 832 704 l 1
 832 768 l 1
 896 768 l 1
 896 682.666666667 896 597.333333333 896 512 c 1
 960 512 l 1
 960 448 l 1
 768 448 l 1
576 512 m 1
 576 704 l 1
 448 704 l 1
 448 768 l 1
 576 768 l 1
 576 704 l 1
 640 704 l 1
 640 512 l 1
 576 512 l 1
EndSplineSet
EndChar

StartChar: uni10106A
Encoding: 1052778 1052778 126
Width: 1024
Flags: HW
LayerCount: 2
Fore
SplineSet
896 192 m 1
 896 256 l 1
 768 256 l 1
 768 192 l 1
 896 192 l 1
0 832 m 1
 -0 533.333333333 0 234.666666667 0 -64 c 1
 1024 -64 l 1
 1024 234.666666667 1024 533.333333333 1024 832 c 1
 0 832 l 1
128 0 m 1
 128 64 l 1
 64 64 l 1
 64 256 l 1
 128 256 l 1
 128 64 l 1
 256 64 l 1
 256 0 l 1
 128 0 l 1
448 0 m 1
 448 64 l 1
 384 64 l 1
 384 256 l 1
 448 256 l 1
 448 192 l 1
 576 192 l 1
 576 128 l 1
 448 128 l 1
 448 64 l 1
 576 64 l 1
 576 0 l 1
 448 0 l 1
704 0 m 1
 704 320 l 1
 960 320 l 1
 960 0 l 1
 896 0 l 1
 896 42.6666666667 896 85.3333333333 896 128 c 1
 768 128 l 1
 768 85.3333333333 768 42.6666666667 768 0 c 1
 704 0 l 1
256 64 m 1
 256 256 l 1
 128 256 l 1
 128 320 l 1
 256 320 l 1
 256 256 l 1
 320 256 l 1
 320 64 l 1
 256 64 l 1
576 64 m 1
 576 128 l 1
 640 128 l 1
 640 64 l 1
 576 64 l 1
448 256 m 1
 448 320 l 1
 576 320 l 1
 576 256 l 1
 448 256 l 1
128 448 m 1
 128 512 l 1
 192 512 l 1
 192 554.666666667 192 597.333333333 192 640 c 1
 128 640 l 1
 128 704 l 1
 192 704 l 1
 192 768 l 1
 256 768 l 1
 256 682.666666667 256 597.333333333 256 512 c 1
 320 512 l 1
 320 448 l 1
 128 448 l 1
448 448 m 1
 448 512 l 1
 384 512 l 1
 384 704 l 1
 448 704 l 1
 448 512 l 1
 576 512 l 1
 576 448 l 1
 448 448 l 1
768 448 m 1
 768 512 l 1
 832 512 l 1
 832 554.666666667 832 597.333333333 832 640 c 1
 768 640 l 1
 768 704 l 1
 832 704 l 1
 832 768 l 1
 896 768 l 1
 896 682.666666667 896 597.333333333 896 512 c 1
 960 512 l 1
 960 448 l 1
 768 448 l 1
576 512 m 1
 576 704 l 1
 448 704 l 1
 448 768 l 1
 576 768 l 1
 576 704 l 1
 640 704 l 1
 640 512 l 1
 576 512 l 1
EndSplineSet
EndChar

StartChar: uni10106B
Encoding: 1052779 1052779 127
Width: 1024
Flags: HW
LayerCount: 2
Fore
SplineSet
0 832 m 1
 -0 533.333333333 0 234.666666667 0 -64 c 1
 1024 -64 l 1
 1024 234.666666667 1024 533.333333333 1024 832 c 1
 0 832 l 1
128 0 m 1
 128 64 l 1
 64 64 l 1
 64 256 l 1
 128 256 l 1
 128 64 l 1
 256 64 l 1
 256 0 l 1
 128 0 l 1
448 0 m 1
 448 64 l 1
 384 64 l 1
 384 256 l 1
 448 256 l 1
 448 192 l 1
 576 192 l 1
 576 128 l 1
 448 128 l 1
 448 64 l 1
 576 64 l 1
 576 0 l 1
 448 0 l 1
704 0 m 1
 704 320 l 1
 896 320 l 1
 896 256 l 1
 768 256 l 1
 768 192 l 1
 896 192 l 1
 896 128 l 1
 768 128 l 1
 768 64 l 1
 896 64 l 1
 896 0 l 1
 704 0 l 1
256 64 m 1
 256 256 l 1
 128 256 l 1
 128 320 l 1
 256 320 l 1
 256 256 l 1
 320 256 l 1
 320 64 l 1
 256 64 l 1
576 64 m 1
 576 128 l 1
 640 128 l 1
 640 64 l 1
 576 64 l 1
896 64 m 1
 896 128 l 1
 960 128 l 1
 960 64 l 1
 896 64 l 1
896 192 m 1
 896 256 l 1
 960 256 l 1
 960 192 l 1
 896 192 l 1
448 256 m 1
 448 320 l 1
 576 320 l 1
 576 256 l 1
 448 256 l 1
128 448 m 1
 128 512 l 1
 192 512 l 1
 192 554.666666667 192 597.333333333 192 640 c 1
 128 640 l 1
 128 704 l 1
 192 704 l 1
 192 768 l 1
 256 768 l 1
 256 682.666666667 256 597.333333333 256 512 c 1
 320 512 l 1
 320 448 l 1
 128 448 l 1
448 448 m 1
 448 512 l 1
 384 512 l 1
 384 704 l 1
 448 704 l 1
 448 512 l 1
 576 512 l 1
 576 448 l 1
 448 448 l 1
768 448 m 1
 768 512 l 1
 832 512 l 1
 832 554.666666667 832 597.333333333 832 640 c 1
 768 640 l 1
 768 704 l 1
 832 704 l 1
 832 768 l 1
 896 768 l 1
 896 682.666666667 896 597.333333333 896 512 c 1
 960 512 l 1
 960 448 l 1
 768 448 l 1
576 512 m 1
 576 704 l 1
 448 704 l 1
 448 768 l 1
 576 768 l 1
 576 704 l 1
 640 704 l 1
 640 512 l 1
 576 512 l 1
EndSplineSet
EndChar

StartChar: uni10106C
Encoding: 1052780 1052780 128
Width: 1024
Flags: HW
LayerCount: 2
Fore
SplineSet
0 832 m 1
 -0 533.333333333 0 234.666666667 0 -64 c 1
 1024 -64 l 1
 1024 234.666666667 1024 533.333333333 1024 832 c 1
 0 832 l 1
128 0 m 1
 128 64 l 1
 64 64 l 1
 64 256 l 1
 128 256 l 1
 128 64 l 1
 256 64 l 1
 256 0 l 1
 128 0 l 1
448 0 m 1
 448 64 l 1
 384 64 l 1
 384 256 l 1
 448 256 l 1
 448 192 l 1
 576 192 l 1
 576 128 l 1
 448 128 l 1
 448 64 l 1
 576 64 l 1
 576 0 l 1
 448 0 l 1
768 0 m 1
 768 64 l 1
 704 64 l 1
 704 256 l 1
 768 256 l 1
 768 64 l 1
 960 64 l 1
 960 0 l 1
 768 0 l 1
256 64 m 1
 256 256 l 1
 128 256 l 1
 128 320 l 1
 256 320 l 1
 256 256 l 1
 320 256 l 1
 320 64 l 1
 256 64 l 1
576 64 m 1
 576 128 l 1
 640 128 l 1
 640 64 l 1
 576 64 l 1
448 256 m 1
 448 320 l 1
 576 320 l 1
 576 256 l 1
 448 256 l 1
768 256 m 1
 768 320 l 1
 960 320 l 1
 960 256 l 1
 768 256 l 1
128 448 m 1
 128 512 l 1
 192 512 l 1
 192 554.666666667 192 597.333333333 192 640 c 1
 128 640 l 1
 128 704 l 1
 192 704 l 1
 192 768 l 1
 256 768 l 1
 256 682.666666667 256 597.333333333 256 512 c 1
 320 512 l 1
 320 448 l 1
 128 448 l 1
448 448 m 1
 448 512 l 1
 384 512 l 1
 384 704 l 1
 448 704 l 1
 448 512 l 1
 576 512 l 1
 576 448 l 1
 448 448 l 1
768 448 m 1
 768 512 l 1
 832 512 l 1
 832 554.666666667 832 597.333333333 832 640 c 1
 768 640 l 1
 768 704 l 1
 832 704 l 1
 832 768 l 1
 896 768 l 1
 896 682.666666667 896 597.333333333 896 512 c 1
 960 512 l 1
 960 448 l 1
 768 448 l 1
576 512 m 1
 576 704 l 1
 448 704 l 1
 448 768 l 1
 576 768 l 1
 576 704 l 1
 640 704 l 1
 640 512 l 1
 576 512 l 1
EndSplineSet
EndChar

StartChar: uni10106D
Encoding: 1052781 1052781 129
Width: 1024
Flags: HW
LayerCount: 2
Fore
SplineSet
0 832 m 1
 -0 533.333333333 0 234.666666667 0 -64 c 1
 1024 -64 l 1
 1024 234.666666667 1024 533.333333333 1024 832 c 1
 0 832 l 1
128 0 m 1
 128 64 l 1
 64 64 l 1
 64 256 l 1
 128 256 l 1
 128 64 l 1
 256 64 l 1
 256 0 l 1
 128 0 l 1
448 0 m 1
 448 64 l 1
 384 64 l 1
 384 256 l 1
 448 256 l 1
 448 192 l 1
 576 192 l 1
 576 128 l 1
 448 128 l 1
 448 64 l 1
 576 64 l 1
 576 0 l 1
 448 0 l 1
704 0 m 1
 704 320 l 1
 896 320 l 1
 896 256 l 1
 768 256 l 1
 768 64 l 1
 896 64 l 1
 896 0 l 1
 704 0 l 1
256 64 m 1
 256 256 l 1
 128 256 l 1
 128 320 l 1
 256 320 l 1
 256 256 l 1
 320 256 l 1
 320 64 l 1
 256 64 l 1
576 64 m 1
 576 128 l 1
 640 128 l 1
 640 64 l 1
 576 64 l 1
896 64 m 1
 896 256 l 1
 960 256 l 1
 960 64 l 1
 896 64 l 1
448 256 m 1
 448 320 l 1
 576 320 l 1
 576 256 l 1
 448 256 l 1
128 448 m 1
 128 512 l 1
 192 512 l 1
 192 554.666666667 192 597.333333333 192 640 c 1
 128 640 l 1
 128 704 l 1
 192 704 l 1
 192 768 l 1
 256 768 l 1
 256 682.666666667 256 597.333333333 256 512 c 1
 320 512 l 1
 320 448 l 1
 128 448 l 1
448 448 m 1
 448 512 l 1
 384 512 l 1
 384 704 l 1
 448 704 l 1
 448 512 l 1
 576 512 l 1
 576 448 l 1
 448 448 l 1
768 448 m 1
 768 512 l 1
 832 512 l 1
 832 554.666666667 832 597.333333333 832 640 c 1
 768 640 l 1
 768 704 l 1
 832 704 l 1
 832 768 l 1
 896 768 l 1
 896 682.666666667 896 597.333333333 896 512 c 1
 960 512 l 1
 960 448 l 1
 768 448 l 1
576 512 m 1
 576 704 l 1
 448 704 l 1
 448 768 l 1
 576 768 l 1
 576 704 l 1
 640 704 l 1
 640 512 l 1
 576 512 l 1
EndSplineSet
EndChar

StartChar: uni10106E
Encoding: 1052782 1052782 130
Width: 1024
Flags: HW
LayerCount: 2
Fore
SplineSet
0 832 m 1
 -0 533.333333333 0 234.666666667 0 -64 c 1
 1024 -64 l 1
 1024 234.666666667 1024 533.333333333 1024 832 c 1
 0 832 l 1
128 0 m 1
 128 64 l 1
 64 64 l 1
 64 256 l 1
 128 256 l 1
 128 64 l 1
 256 64 l 1
 256 0 l 1
 128 0 l 1
448 0 m 1
 448 64 l 1
 384 64 l 1
 384 256 l 1
 448 256 l 1
 448 192 l 1
 576 192 l 1
 576 128 l 1
 448 128 l 1
 448 64 l 1
 576 64 l 1
 576 0 l 1
 448 0 l 1
704 0 m 1
 704 320 l 1
 960 320 l 1
 960 256 l 1
 768 256 l 1
 768 192 l 1
 896 192 l 1
 896 128 l 1
 768 128 l 1
 768 64 l 1
 960 64 l 1
 960 0 l 1
 704 0 l 1
256 64 m 1
 256 256 l 1
 128 256 l 1
 128 320 l 1
 256 320 l 1
 256 256 l 1
 320 256 l 1
 320 64 l 1
 256 64 l 1
576 64 m 1
 576 128 l 1
 640 128 l 1
 640 64 l 1
 576 64 l 1
448 256 m 1
 448 320 l 1
 576 320 l 1
 576 256 l 1
 448 256 l 1
128 448 m 1
 128 512 l 1
 192 512 l 1
 192 554.666666667 192 597.333333333 192 640 c 1
 128 640 l 1
 128 704 l 1
 192 704 l 1
 192 768 l 1
 256 768 l 1
 256 682.666666667 256 597.333333333 256 512 c 1
 320 512 l 1
 320 448 l 1
 128 448 l 1
448 448 m 1
 448 512 l 1
 384 512 l 1
 384 704 l 1
 448 704 l 1
 448 512 l 1
 576 512 l 1
 576 448 l 1
 448 448 l 1
768 448 m 1
 768 512 l 1
 832 512 l 1
 832 554.666666667 832 597.333333333 832 640 c 1
 768 640 l 1
 768 704 l 1
 832 704 l 1
 832 768 l 1
 896 768 l 1
 896 682.666666667 896 597.333333333 896 512 c 1
 960 512 l 1
 960 448 l 1
 768 448 l 1
576 512 m 1
 576 704 l 1
 448 704 l 1
 448 768 l 1
 576 768 l 1
 576 704 l 1
 640 704 l 1
 640 512 l 1
 576 512 l 1
EndSplineSet
EndChar

StartChar: uni10106F
Encoding: 1052783 1052783 131
Width: 1024
Flags: HW
LayerCount: 2
Fore
SplineSet
0 832 m 1
 -0 533.333333333 0 234.666666667 0 -64 c 1
 1024 -64 l 1
 1024 234.666666667 1024 533.333333333 1024 832 c 1
 0 832 l 1
128 0 m 1
 128 64 l 1
 64 64 l 1
 64 256 l 1
 128 256 l 1
 128 64 l 1
 256 64 l 1
 256 0 l 1
 128 0 l 1
448 0 m 1
 448 64 l 1
 384 64 l 1
 384 256 l 1
 448 256 l 1
 448 192 l 1
 576 192 l 1
 576 128 l 1
 448 128 l 1
 448 64 l 1
 576 64 l 1
 576 0 l 1
 448 0 l 1
704 0 m 1
 704 320 l 1
 960 320 l 1
 960 256 l 1
 768 256 l 1
 768 192 l 1
 896 192 l 1
 896 128 l 1
 768 128 l 1
 768 85.3333333333 768 42.6666666667 768 0 c 1
 704 0 l 1
256 64 m 1
 256 256 l 1
 128 256 l 1
 128 320 l 1
 256 320 l 1
 256 256 l 1
 320 256 l 1
 320 64 l 1
 256 64 l 1
576 64 m 1
 576 128 l 1
 640 128 l 1
 640 64 l 1
 576 64 l 1
448 256 m 1
 448 320 l 1
 576 320 l 1
 576 256 l 1
 448 256 l 1
128 448 m 1
 128 512 l 1
 192 512 l 1
 192 554.666666667 192 597.333333333 192 640 c 1
 128 640 l 1
 128 704 l 1
 192 704 l 1
 192 768 l 1
 256 768 l 1
 256 682.666666667 256 597.333333333 256 512 c 1
 320 512 l 1
 320 448 l 1
 128 448 l 1
448 448 m 1
 448 512 l 1
 384 512 l 1
 384 704 l 1
 448 704 l 1
 448 512 l 1
 576 512 l 1
 576 448 l 1
 448 448 l 1
768 448 m 1
 768 512 l 1
 832 512 l 1
 832 554.666666667 832 597.333333333 832 640 c 1
 768 640 l 1
 768 704 l 1
 832 704 l 1
 832 768 l 1
 896 768 l 1
 896 682.666666667 896 597.333333333 896 512 c 1
 960 512 l 1
 960 448 l 1
 768 448 l 1
576 512 m 1
 576 704 l 1
 448 704 l 1
 448 768 l 1
 576 768 l 1
 576 704 l 1
 640 704 l 1
 640 512 l 1
 576 512 l 1
EndSplineSet
EndChar

StartChar: uni101070
Encoding: 1052784 1052784 132
Width: 1024
Flags: HW
LayerCount: 2
Fore
SplineSet
0 832 m 1
 -0 533.333333333 0 234.666666667 0 -64 c 1
 1024 -64 l 1
 1024 234.666666667 1024 533.333333333 1024 832 c 1
 0 832 l 1
128 0 m 1
 128 64 l 1
 64 64 l 1
 64 256 l 1
 128 256 l 1
 128 64 l 1
 256 64 l 1
 256 0 l 1
 128 0 l 1
448 0 m 1
 448 42.6666666667 448 85.3333333333 448 128 c 1
 512 128 l 1
 512 85.3333333333 512 42.6666666667 512 0 c 1
 448 0 l 1
768 0 m 1
 768 64 l 1
 704 64 l 1
 704 256 l 1
 768 256 l 1
 768 64 l 1
 896 64 l 1
 896 0 l 1
 768 0 l 1
256 64 m 1
 256 256 l 1
 128 256 l 1
 128 320 l 1
 256 320 l 1
 256 256 l 1
 320 256 l 1
 320 64 l 1
 256 64 l 1
896 64 m 1
 896 256 l 1
 768 256 l 1
 768 320 l 1
 896 320 l 1
 896 256 l 1
 960 256 l 1
 960 64 l 1
 896 64 l 1
512 128 m 1
 512 192 l 1
 576 192 l 1
 576 128 l 1
 512 128 l 1
576 192 m 1
 576 256 l 1
 384 256 l 1
 384 320 l 1
 640 320 l 1
 640 277.333333333 640 234.666666667 640 192 c 1
 576 192 l 1
128 448 m 1
 128 512 l 1
 192 512 l 1
 192 554.666666667 192 597.333333333 192 640 c 1
 128 640 l 1
 128 704 l 1
 192 704 l 1
 192 768 l 1
 256 768 l 1
 256 682.666666667 256 597.333333333 256 512 c 1
 320 512 l 1
 320 448 l 1
 128 448 l 1
448 448 m 1
 448 512 l 1
 384 512 l 1
 384 704 l 1
 448 704 l 1
 448 512 l 1
 576 512 l 1
 576 448 l 1
 448 448 l 1
768 448 m 1
 768 512 l 1
 832 512 l 1
 832 554.666666667 832 597.333333333 832 640 c 1
 768 640 l 1
 768 704 l 1
 832 704 l 1
 832 768 l 1
 896 768 l 1
 896 682.666666667 896 597.333333333 896 512 c 1
 960 512 l 1
 960 448 l 1
 768 448 l 1
576 512 m 1
 576 704 l 1
 448 704 l 1
 448 768 l 1
 576 768 l 1
 576 704 l 1
 640 704 l 1
 640 512 l 1
 576 512 l 1
EndSplineSet
EndChar

StartChar: uni101071
Encoding: 1052785 1052785 133
Width: 1024
Flags: HW
LayerCount: 2
Fore
SplineSet
0 832 m 1
 -0 533.333333333 0 234.666666667 0 -64 c 1
 1024 -64 l 1
 1024 234.666666667 1024 533.333333333 1024 832 c 1
 0 832 l 1
128 0 m 1
 128 64 l 1
 64 64 l 1
 64 256 l 1
 128 256 l 1
 128 64 l 1
 256 64 l 1
 256 0 l 1
 128 0 l 1
448 0 m 1
 448 42.6666666667 448 85.3333333333 448 128 c 1
 512 128 l 1
 512 85.3333333333 512 42.6666666667 512 0 c 1
 448 0 l 1
768 0 m 1
 768 64 l 1
 832 64 l 1
 832 106.666666667 832 149.333333333 832 192 c 1
 768 192 l 1
 768 256 l 1
 832 256 l 1
 832 320 l 1
 896 320 l 1
 896 234.666666667 896 149.333333333 896 64 c 1
 960 64 l 1
 960 0 l 1
 768 0 l 1
256 64 m 1
 256 256 l 1
 128 256 l 1
 128 320 l 1
 256 320 l 1
 256 256 l 1
 320 256 l 1
 320 64 l 1
 256 64 l 1
512 128 m 1
 512 192 l 1
 576 192 l 1
 576 128 l 1
 512 128 l 1
576 192 m 1
 576 256 l 1
 384 256 l 1
 384 320 l 1
 640 320 l 1
 640 277.333333333 640 234.666666667 640 192 c 1
 576 192 l 1
128 448 m 1
 128 512 l 1
 192 512 l 1
 192 554.666666667 192 597.333333333 192 640 c 1
 128 640 l 1
 128 704 l 1
 192 704 l 1
 192 768 l 1
 256 768 l 1
 256 682.666666667 256 597.333333333 256 512 c 1
 320 512 l 1
 320 448 l 1
 128 448 l 1
448 448 m 1
 448 512 l 1
 384 512 l 1
 384 704 l 1
 448 704 l 1
 448 512 l 1
 576 512 l 1
 576 448 l 1
 448 448 l 1
768 448 m 1
 768 512 l 1
 832 512 l 1
 832 554.666666667 832 597.333333333 832 640 c 1
 768 640 l 1
 768 704 l 1
 832 704 l 1
 832 768 l 1
 896 768 l 1
 896 682.666666667 896 597.333333333 896 512 c 1
 960 512 l 1
 960 448 l 1
 768 448 l 1
576 512 m 1
 576 704 l 1
 448 704 l 1
 448 768 l 1
 576 768 l 1
 576 704 l 1
 640 704 l 1
 640 512 l 1
 576 512 l 1
EndSplineSet
EndChar

StartChar: uni101072
Encoding: 1052786 1052786 134
Width: 1024
Flags: HW
LayerCount: 2
Fore
SplineSet
896 192 m 1
 896 256 l 1
 704 256 l 1
 704 320 l 1
 960 320 l 1
 960 128 l 1
 768 128 l 1
 768 64 l 1
 960 64 l 1
 960 0 l 1
 704 0 l 1
 704 192 l 1
 896 192 l 1
0 832 m 1
 -0 533.333333333 0 234.666666667 0 -64 c 1
 1024 -64 l 1
 1024 234.666666667 1024 533.333333333 1024 832 c 1
 0 832 l 1
128 0 m 1
 128 64 l 1
 64 64 l 1
 64 256 l 1
 128 256 l 1
 128 64 l 1
 256 64 l 1
 256 0 l 1
 128 0 l 1
448 0 m 1
 448 42.6666666667 448 85.3333333333 448 128 c 1
 512 128 l 1
 512 85.3333333333 512 42.6666666667 512 0 c 1
 448 0 l 1
256 64 m 1
 256 256 l 1
 128 256 l 1
 128 320 l 1
 256 320 l 1
 256 256 l 1
 320 256 l 1
 320 64 l 1
 256 64 l 1
512 128 m 1
 512 192 l 1
 576 192 l 1
 576 128 l 1
 512 128 l 1
576 192 m 1
 576 256 l 1
 384 256 l 1
 384 320 l 1
 640 320 l 1
 640 277.333333333 640 234.666666667 640 192 c 1
 576 192 l 1
128 448 m 1
 128 512 l 1
 192 512 l 1
 192 554.666666667 192 597.333333333 192 640 c 1
 128 640 l 1
 128 704 l 1
 192 704 l 1
 192 768 l 1
 256 768 l 1
 256 682.666666667 256 597.333333333 256 512 c 1
 320 512 l 1
 320 448 l 1
 128 448 l 1
448 448 m 1
 448 512 l 1
 384 512 l 1
 384 704 l 1
 448 704 l 1
 448 512 l 1
 576 512 l 1
 576 448 l 1
 448 448 l 1
768 448 m 1
 768 512 l 1
 832 512 l 1
 832 554.666666667 832 597.333333333 832 640 c 1
 768 640 l 1
 768 704 l 1
 832 704 l 1
 832 768 l 1
 896 768 l 1
 896 682.666666667 896 597.333333333 896 512 c 1
 960 512 l 1
 960 448 l 1
 768 448 l 1
576 512 m 1
 576 704 l 1
 448 704 l 1
 448 768 l 1
 576 768 l 1
 576 704 l 1
 640 704 l 1
 640 512 l 1
 576 512 l 1
EndSplineSet
EndChar

StartChar: uni101073
Encoding: 1052787 1052787 135
Width: 1024
Flags: HW
LayerCount: 2
Fore
SplineSet
0 832 m 1
 -0 533.333333333 0 234.666666667 0 -64 c 1
 1024 -64 l 1
 1024 234.666666667 1024 533.333333333 1024 832 c 1
 0 832 l 1
128 0 m 1
 128 64 l 1
 64 64 l 1
 64 256 l 1
 128 256 l 1
 128 64 l 1
 256 64 l 1
 256 0 l 1
 128 0 l 1
448 0 m 1
 448 42.6666666667 448 85.3333333333 448 128 c 1
 512 128 l 1
 512 85.3333333333 512 42.6666666667 512 0 c 1
 448 0 l 1
704 0 m 1
 704 64 l 1
 896 64 l 1
 896 0 l 1
 704 0 l 1
256 64 m 1
 256 256 l 1
 128 256 l 1
 128 320 l 1
 256 320 l 1
 256 256 l 1
 320 256 l 1
 320 64 l 1
 256 64 l 1
896 64 m 1
 896 128 l 1
 768 128 l 1
 768 192 l 1
 896 192 l 1
 896 256 l 1
 704 256 l 1
 704 320 l 1
 896 320 l 1
 896 256 l 1
 960 256 l 1
 960 64 l 1
 896 64 l 1
512 128 m 1
 512 192 l 1
 576 192 l 1
 576 128 l 1
 512 128 l 1
576 192 m 1
 576 256 l 1
 384 256 l 1
 384 320 l 1
 640 320 l 1
 640 277.333333333 640 234.666666667 640 192 c 1
 576 192 l 1
128 448 m 1
 128 512 l 1
 192 512 l 1
 192 554.666666667 192 597.333333333 192 640 c 1
 128 640 l 1
 128 704 l 1
 192 704 l 1
 192 768 l 1
 256 768 l 1
 256 682.666666667 256 597.333333333 256 512 c 1
 320 512 l 1
 320 448 l 1
 128 448 l 1
448 448 m 1
 448 512 l 1
 384 512 l 1
 384 704 l 1
 448 704 l 1
 448 512 l 1
 576 512 l 1
 576 448 l 1
 448 448 l 1
768 448 m 1
 768 512 l 1
 832 512 l 1
 832 554.666666667 832 597.333333333 832 640 c 1
 768 640 l 1
 768 704 l 1
 832 704 l 1
 832 768 l 1
 896 768 l 1
 896 682.666666667 896 597.333333333 896 512 c 1
 960 512 l 1
 960 448 l 1
 768 448 l 1
576 512 m 1
 576 704 l 1
 448 704 l 1
 448 768 l 1
 576 768 l 1
 576 704 l 1
 640 704 l 1
 640 512 l 1
 576 512 l 1
EndSplineSet
EndChar

StartChar: uni101074
Encoding: 1052788 1052788 136
Width: 1024
Flags: HW
LayerCount: 2
Fore
SplineSet
0 832 m 1
 -0 533.333333333 0 234.666666667 0 -64 c 1
 1024 -64 l 1
 1024 234.666666667 1024 533.333333333 1024 832 c 1
 0 832 l 1
128 0 m 1
 128 64 l 1
 64 64 l 1
 64 256 l 1
 128 256 l 1
 128 64 l 1
 256 64 l 1
 256 0 l 1
 128 0 l 1
448 0 m 1
 448 42.6666666667 448 85.3333333333 448 128 c 1
 512 128 l 1
 512 85.3333333333 512 42.6666666667 512 0 c 1
 448 0 l 1
896 0 m 1
 896 42.6666666667 896 85.3333333333 896 128 c 1
 704 128 l 1
 704 320 l 1
 768 320 l 1
 768 277.333333333 768 234.666666667 768 192 c 1
 896 192 l 1
 896 234.666666667 896 277.333333333 896 320 c 1
 960 320 l 1
 960 0 l 1
 896 0 l 1
256 64 m 1
 256 256 l 1
 128 256 l 1
 128 320 l 1
 256 320 l 1
 256 256 l 1
 320 256 l 1
 320 64 l 1
 256 64 l 1
512 128 m 1
 512 192 l 1
 576 192 l 1
 576 128 l 1
 512 128 l 1
576 192 m 1
 576 256 l 1
 384 256 l 1
 384 320 l 1
 640 320 l 1
 640 277.333333333 640 234.666666667 640 192 c 1
 576 192 l 1
128 448 m 1
 128 512 l 1
 192 512 l 1
 192 554.666666667 192 597.333333333 192 640 c 1
 128 640 l 1
 128 704 l 1
 192 704 l 1
 192 768 l 1
 256 768 l 1
 256 682.666666667 256 597.333333333 256 512 c 1
 320 512 l 1
 320 448 l 1
 128 448 l 1
448 448 m 1
 448 512 l 1
 384 512 l 1
 384 704 l 1
 448 704 l 1
 448 512 l 1
 576 512 l 1
 576 448 l 1
 448 448 l 1
768 448 m 1
 768 512 l 1
 832 512 l 1
 832 554.666666667 832 597.333333333 832 640 c 1
 768 640 l 1
 768 704 l 1
 832 704 l 1
 832 768 l 1
 896 768 l 1
 896 682.666666667 896 597.333333333 896 512 c 1
 960 512 l 1
 960 448 l 1
 768 448 l 1
576 512 m 1
 576 704 l 1
 448 704 l 1
 448 768 l 1
 576 768 l 1
 576 704 l 1
 640 704 l 1
 640 512 l 1
 576 512 l 1
EndSplineSet
EndChar

StartChar: uni101075
Encoding: 1052789 1052789 137
Width: 1024
Flags: HW
LayerCount: 2
Fore
SplineSet
896 64 m 1
 896 128 l 1
 704 128 l 1
 704 320 l 1
 960 320 l 1
 960 256 l 1
 768 256 l 1
 768 192 l 1
 960 192 l 1
 960 0 l 1
 704 0 l 1
 704 64 l 1
 896 64 l 1
0 832 m 1
 -0 533.333333333 0 234.666666667 0 -64 c 1
 1024 -64 l 1
 1024 234.666666667 1024 533.333333333 1024 832 c 1
 0 832 l 1
128 0 m 1
 128 64 l 1
 64 64 l 1
 64 256 l 1
 128 256 l 1
 128 64 l 1
 256 64 l 1
 256 0 l 1
 128 0 l 1
448 0 m 1
 448 42.6666666667 448 85.3333333333 448 128 c 1
 512 128 l 1
 512 85.3333333333 512 42.6666666667 512 0 c 1
 448 0 l 1
256 64 m 1
 256 256 l 1
 128 256 l 1
 128 320 l 1
 256 320 l 1
 256 256 l 1
 320 256 l 1
 320 64 l 1
 256 64 l 1
512 128 m 1
 512 192 l 1
 576 192 l 1
 576 128 l 1
 512 128 l 1
576 192 m 1
 576 256 l 1
 384 256 l 1
 384 320 l 1
 640 320 l 1
 640 277.333333333 640 234.666666667 640 192 c 1
 576 192 l 1
128 448 m 1
 128 512 l 1
 192 512 l 1
 192 554.666666667 192 597.333333333 192 640 c 1
 128 640 l 1
 128 704 l 1
 192 704 l 1
 192 768 l 1
 256 768 l 1
 256 682.666666667 256 597.333333333 256 512 c 1
 320 512 l 1
 320 448 l 1
 128 448 l 1
448 448 m 1
 448 512 l 1
 384 512 l 1
 384 704 l 1
 448 704 l 1
 448 512 l 1
 576 512 l 1
 576 448 l 1
 448 448 l 1
768 448 m 1
 768 512 l 1
 832 512 l 1
 832 554.666666667 832 597.333333333 832 640 c 1
 768 640 l 1
 768 704 l 1
 832 704 l 1
 832 768 l 1
 896 768 l 1
 896 682.666666667 896 597.333333333 896 512 c 1
 960 512 l 1
 960 448 l 1
 768 448 l 1
576 512 m 1
 576 704 l 1
 448 704 l 1
 448 768 l 1
 576 768 l 1
 576 704 l 1
 640 704 l 1
 640 512 l 1
 576 512 l 1
EndSplineSet
EndChar

StartChar: uni101076
Encoding: 1052790 1052790 138
Width: 1024
Flags: HW
LayerCount: 2
Fore
SplineSet
0 832 m 1
 -0 533.333333333 0 234.666666667 0 -64 c 1
 1024 -64 l 1
 1024 234.666666667 1024 533.333333333 1024 832 c 1
 0 832 l 1
128 0 m 1
 128 64 l 1
 64 64 l 1
 64 256 l 1
 128 256 l 1
 128 64 l 1
 256 64 l 1
 256 0 l 1
 128 0 l 1
448 0 m 1
 448 42.6666666667 448 85.3333333333 448 128 c 1
 512 128 l 1
 512 85.3333333333 512 42.6666666667 512 0 c 1
 448 0 l 1
768 0 m 1
 768 64 l 1
 704 64 l 1
 704 256 l 1
 768 256 l 1
 768 192 l 1
 896 192 l 1
 896 128 l 1
 768 128 l 1
 768 64 l 1
 896 64 l 1
 896 0 l 1
 768 0 l 1
256 64 m 1
 256 256 l 1
 128 256 l 1
 128 320 l 1
 256 320 l 1
 256 256 l 1
 320 256 l 1
 320 64 l 1
 256 64 l 1
896 64 m 1
 896 128 l 1
 960 128 l 1
 960 64 l 1
 896 64 l 1
512 128 m 1
 512 192 l 1
 576 192 l 1
 576 128 l 1
 512 128 l 1
576 192 m 1
 576 256 l 1
 384 256 l 1
 384 320 l 1
 640 320 l 1
 640 277.333333333 640 234.666666667 640 192 c 1
 576 192 l 1
768 256 m 1
 768 320 l 1
 896 320 l 1
 896 256 l 1
 768 256 l 1
128 448 m 1
 128 512 l 1
 192 512 l 1
 192 554.666666667 192 597.333333333 192 640 c 1
 128 640 l 1
 128 704 l 1
 192 704 l 1
 192 768 l 1
 256 768 l 1
 256 682.666666667 256 597.333333333 256 512 c 1
 320 512 l 1
 320 448 l 1
 128 448 l 1
448 448 m 1
 448 512 l 1
 384 512 l 1
 384 704 l 1
 448 704 l 1
 448 512 l 1
 576 512 l 1
 576 448 l 1
 448 448 l 1
768 448 m 1
 768 512 l 1
 832 512 l 1
 832 554.666666667 832 597.333333333 832 640 c 1
 768 640 l 1
 768 704 l 1
 832 704 l 1
 832 768 l 1
 896 768 l 1
 896 682.666666667 896 597.333333333 896 512 c 1
 960 512 l 1
 960 448 l 1
 768 448 l 1
576 512 m 1
 576 704 l 1
 448 704 l 1
 448 768 l 1
 576 768 l 1
 576 704 l 1
 640 704 l 1
 640 512 l 1
 576 512 l 1
EndSplineSet
EndChar

StartChar: uni101077
Encoding: 1052791 1052791 139
Width: 1024
Flags: HW
LayerCount: 2
Fore
SplineSet
0 832 m 1
 -0 533.333333333 0 234.666666667 0 -64 c 1
 1024 -64 l 1
 1024 234.666666667 1024 533.333333333 1024 832 c 1
 0 832 l 1
128 0 m 1
 128 64 l 1
 64 64 l 1
 64 256 l 1
 128 256 l 1
 128 64 l 1
 256 64 l 1
 256 0 l 1
 128 0 l 1
448 0 m 1
 448 42.6666666667 448 85.3333333333 448 128 c 1
 512 128 l 1
 512 85.3333333333 512 42.6666666667 512 0 c 1
 448 0 l 1
768 0 m 1
 768 42.6666666667 768 85.3333333333 768 128 c 1
 832 128 l 1
 832 85.3333333333 832 42.6666666667 832 0 c 1
 768 0 l 1
256 64 m 1
 256 256 l 1
 128 256 l 1
 128 320 l 1
 256 320 l 1
 256 256 l 1
 320 256 l 1
 320 64 l 1
 256 64 l 1
512 128 m 1
 512 192 l 1
 576 192 l 1
 576 128 l 1
 512 128 l 1
832 128 m 1
 832 192 l 1
 896 192 l 1
 896 128 l 1
 832 128 l 1
576 192 m 1
 576 256 l 1
 384 256 l 1
 384 320 l 1
 640 320 l 1
 640 277.333333333 640 234.666666667 640 192 c 1
 576 192 l 1
896 192 m 1
 896 256 l 1
 704 256 l 1
 704 320 l 1
 960 320 l 1
 960 277.333333333 960 234.666666667 960 192 c 1
 896 192 l 1
128 448 m 1
 128 512 l 1
 192 512 l 1
 192 554.666666667 192 597.333333333 192 640 c 1
 128 640 l 1
 128 704 l 1
 192 704 l 1
 192 768 l 1
 256 768 l 1
 256 682.666666667 256 597.333333333 256 512 c 1
 320 512 l 1
 320 448 l 1
 128 448 l 1
448 448 m 1
 448 512 l 1
 384 512 l 1
 384 704 l 1
 448 704 l 1
 448 512 l 1
 576 512 l 1
 576 448 l 1
 448 448 l 1
768 448 m 1
 768 512 l 1
 832 512 l 1
 832 554.666666667 832 597.333333333 832 640 c 1
 768 640 l 1
 768 704 l 1
 832 704 l 1
 832 768 l 1
 896 768 l 1
 896 682.666666667 896 597.333333333 896 512 c 1
 960 512 l 1
 960 448 l 1
 768 448 l 1
576 512 m 1
 576 704 l 1
 448 704 l 1
 448 768 l 1
 576 768 l 1
 576 704 l 1
 640 704 l 1
 640 512 l 1
 576 512 l 1
EndSplineSet
EndChar

StartChar: uni101078
Encoding: 1052792 1052792 140
Width: 1024
Flags: HW
LayerCount: 2
Fore
SplineSet
0 832 m 1
 -0 533.333333333 0 234.666666667 0 -64 c 1
 1024 -64 l 1
 1024 234.666666667 1024 533.333333333 1024 832 c 1
 0 832 l 1
128 0 m 1
 128 64 l 1
 64 64 l 1
 64 256 l 1
 128 256 l 1
 128 64 l 1
 256 64 l 1
 256 0 l 1
 128 0 l 1
448 0 m 1
 448 42.6666666667 448 85.3333333333 448 128 c 1
 512 128 l 1
 512 85.3333333333 512 42.6666666667 512 0 c 1
 448 0 l 1
768 0 m 1
 768 64 l 1
 704 64 l 1
 704 128 l 1
 768 128 l 1
 768 64 l 1
 896 64 l 1
 896 0 l 1
 768 0 l 1
256 64 m 1
 256 256 l 1
 128 256 l 1
 128 320 l 1
 256 320 l 1
 256 256 l 1
 320 256 l 1
 320 64 l 1
 256 64 l 1
896 64 m 1
 896 128 l 1
 768 128 l 1
 768 192 l 1
 704 192 l 1
 704 256 l 1
 768 256 l 1
 768 192 l 1
 896 192 l 1
 896 128 l 1
 960 128 l 1
 960 64 l 1
 896 64 l 1
512 128 m 1
 512 192 l 1
 576 192 l 1
 576 128 l 1
 512 128 l 1
576 192 m 1
 576 256 l 1
 384 256 l 1
 384 320 l 1
 640 320 l 1
 640 277.333333333 640 234.666666667 640 192 c 1
 576 192 l 1
896 192 m 1
 896 256 l 1
 768 256 l 1
 768 320 l 1
 896 320 l 1
 896 256 l 1
 960 256 l 1
 960 192 l 1
 896 192 l 1
128 448 m 1
 128 512 l 1
 192 512 l 1
 192 554.666666667 192 597.333333333 192 640 c 1
 128 640 l 1
 128 704 l 1
 192 704 l 1
 192 768 l 1
 256 768 l 1
 256 682.666666667 256 597.333333333 256 512 c 1
 320 512 l 1
 320 448 l 1
 128 448 l 1
448 448 m 1
 448 512 l 1
 384 512 l 1
 384 704 l 1
 448 704 l 1
 448 512 l 1
 576 512 l 1
 576 448 l 1
 448 448 l 1
768 448 m 1
 768 512 l 1
 832 512 l 1
 832 554.666666667 832 597.333333333 832 640 c 1
 768 640 l 1
 768 704 l 1
 832 704 l 1
 832 768 l 1
 896 768 l 1
 896 682.666666667 896 597.333333333 896 512 c 1
 960 512 l 1
 960 448 l 1
 768 448 l 1
576 512 m 1
 576 704 l 1
 448 704 l 1
 448 768 l 1
 576 768 l 1
 576 704 l 1
 640 704 l 1
 640 512 l 1
 576 512 l 1
EndSplineSet
EndChar

StartChar: uni101079
Encoding: 1052793 1052793 141
Width: 1024
Flags: HW
LayerCount: 2
Fore
SplineSet
0 832 m 1
 -0 533.333333333 0 234.666666667 0 -64 c 1
 1024 -64 l 1
 1024 234.666666667 1024 533.333333333 1024 832 c 1
 0 832 l 1
128 0 m 1
 128 64 l 1
 64 64 l 1
 64 256 l 1
 128 256 l 1
 128 64 l 1
 256 64 l 1
 256 0 l 1
 128 0 l 1
448 0 m 1
 448 42.6666666667 448 85.3333333333 448 128 c 1
 512 128 l 1
 512 85.3333333333 512 42.6666666667 512 0 c 1
 448 0 l 1
768 0 m 1
 768 64 l 1
 896 64 l 1
 896 0 l 1
 768 0 l 1
256 64 m 1
 256 256 l 1
 128 256 l 1
 128 320 l 1
 256 320 l 1
 256 256 l 1
 320 256 l 1
 320 64 l 1
 256 64 l 1
896 64 m 1
 896 128 l 1
 768 128 l 1
 768 192 l 1
 704 192 l 1
 704 256 l 1
 768 256 l 1
 768 192 l 1
 896 192 l 1
 896 256 l 1
 768 256 l 1
 768 320 l 1
 896 320 l 1
 896 256 l 1
 960 256 l 1
 960 64 l 1
 896 64 l 1
512 128 m 1
 512 192 l 1
 576 192 l 1
 576 128 l 1
 512 128 l 1
576 192 m 1
 576 256 l 1
 384 256 l 1
 384 320 l 1
 640 320 l 1
 640 277.333333333 640 234.666666667 640 192 c 1
 576 192 l 1
128 448 m 1
 128 512 l 1
 192 512 l 1
 192 554.666666667 192 597.333333333 192 640 c 1
 128 640 l 1
 128 704 l 1
 192 704 l 1
 192 768 l 1
 256 768 l 1
 256 682.666666667 256 597.333333333 256 512 c 1
 320 512 l 1
 320 448 l 1
 128 448 l 1
448 448 m 1
 448 512 l 1
 384 512 l 1
 384 704 l 1
 448 704 l 1
 448 512 l 1
 576 512 l 1
 576 448 l 1
 448 448 l 1
768 448 m 1
 768 512 l 1
 832 512 l 1
 832 554.666666667 832 597.333333333 832 640 c 1
 768 640 l 1
 768 704 l 1
 832 704 l 1
 832 768 l 1
 896 768 l 1
 896 682.666666667 896 597.333333333 896 512 c 1
 960 512 l 1
 960 448 l 1
 768 448 l 1
576 512 m 1
 576 704 l 1
 448 704 l 1
 448 768 l 1
 576 768 l 1
 576 704 l 1
 640 704 l 1
 640 512 l 1
 576 512 l 1
EndSplineSet
EndChar

StartChar: uni10107A
Encoding: 1052794 1052794 142
Width: 1024
Flags: HW
LayerCount: 2
Fore
SplineSet
896 192 m 1
 896 256 l 1
 768 256 l 1
 768 192 l 1
 896 192 l 1
0 832 m 1
 -0 533.333333333 0 234.666666667 0 -64 c 1
 1024 -64 l 1
 1024 234.666666667 1024 533.333333333 1024 832 c 1
 0 832 l 1
128 0 m 1
 128 64 l 1
 64 64 l 1
 64 256 l 1
 128 256 l 1
 128 64 l 1
 256 64 l 1
 256 0 l 1
 128 0 l 1
448 0 m 1
 448 42.6666666667 448 85.3333333333 448 128 c 1
 512 128 l 1
 512 85.3333333333 512 42.6666666667 512 0 c 1
 448 0 l 1
704 0 m 1
 704 320 l 1
 960 320 l 1
 960 0 l 1
 896 0 l 1
 896 42.6666666667 896 85.3333333333 896 128 c 1
 768 128 l 1
 768 85.3333333333 768 42.6666666667 768 0 c 1
 704 0 l 1
256 64 m 1
 256 256 l 1
 128 256 l 1
 128 320 l 1
 256 320 l 1
 256 256 l 1
 320 256 l 1
 320 64 l 1
 256 64 l 1
512 128 m 1
 512 192 l 1
 576 192 l 1
 576 128 l 1
 512 128 l 1
576 192 m 1
 576 256 l 1
 384 256 l 1
 384 320 l 1
 640 320 l 1
 640 277.333333333 640 234.666666667 640 192 c 1
 576 192 l 1
128 448 m 1
 128 512 l 1
 192 512 l 1
 192 554.666666667 192 597.333333333 192 640 c 1
 128 640 l 1
 128 704 l 1
 192 704 l 1
 192 768 l 1
 256 768 l 1
 256 682.666666667 256 597.333333333 256 512 c 1
 320 512 l 1
 320 448 l 1
 128 448 l 1
448 448 m 1
 448 512 l 1
 384 512 l 1
 384 704 l 1
 448 704 l 1
 448 512 l 1
 576 512 l 1
 576 448 l 1
 448 448 l 1
768 448 m 1
 768 512 l 1
 832 512 l 1
 832 554.666666667 832 597.333333333 832 640 c 1
 768 640 l 1
 768 704 l 1
 832 704 l 1
 832 768 l 1
 896 768 l 1
 896 682.666666667 896 597.333333333 896 512 c 1
 960 512 l 1
 960 448 l 1
 768 448 l 1
576 512 m 1
 576 704 l 1
 448 704 l 1
 448 768 l 1
 576 768 l 1
 576 704 l 1
 640 704 l 1
 640 512 l 1
 576 512 l 1
EndSplineSet
EndChar

StartChar: uni10107B
Encoding: 1052795 1052795 143
Width: 1024
Flags: HW
LayerCount: 2
Fore
SplineSet
0 832 m 1
 -0 533.333333333 0 234.666666667 0 -64 c 1
 1024 -64 l 1
 1024 234.666666667 1024 533.333333333 1024 832 c 1
 0 832 l 1
128 0 m 1
 128 64 l 1
 64 64 l 1
 64 256 l 1
 128 256 l 1
 128 64 l 1
 256 64 l 1
 256 0 l 1
 128 0 l 1
448 0 m 1
 448 42.6666666667 448 85.3333333333 448 128 c 1
 512 128 l 1
 512 85.3333333333 512 42.6666666667 512 0 c 1
 448 0 l 1
704 0 m 1
 704 320 l 1
 896 320 l 1
 896 256 l 1
 768 256 l 1
 768 192 l 1
 896 192 l 1
 896 128 l 1
 768 128 l 1
 768 64 l 1
 896 64 l 1
 896 0 l 1
 704 0 l 1
256 64 m 1
 256 256 l 1
 128 256 l 1
 128 320 l 1
 256 320 l 1
 256 256 l 1
 320 256 l 1
 320 64 l 1
 256 64 l 1
896 64 m 1
 896 128 l 1
 960 128 l 1
 960 64 l 1
 896 64 l 1
512 128 m 1
 512 192 l 1
 576 192 l 1
 576 128 l 1
 512 128 l 1
576 192 m 1
 576 256 l 1
 384 256 l 1
 384 320 l 1
 640 320 l 1
 640 277.333333333 640 234.666666667 640 192 c 1
 576 192 l 1
896 192 m 1
 896 256 l 1
 960 256 l 1
 960 192 l 1
 896 192 l 1
128 448 m 1
 128 512 l 1
 192 512 l 1
 192 554.666666667 192 597.333333333 192 640 c 1
 128 640 l 1
 128 704 l 1
 192 704 l 1
 192 768 l 1
 256 768 l 1
 256 682.666666667 256 597.333333333 256 512 c 1
 320 512 l 1
 320 448 l 1
 128 448 l 1
448 448 m 1
 448 512 l 1
 384 512 l 1
 384 704 l 1
 448 704 l 1
 448 512 l 1
 576 512 l 1
 576 448 l 1
 448 448 l 1
768 448 m 1
 768 512 l 1
 832 512 l 1
 832 554.666666667 832 597.333333333 832 640 c 1
 768 640 l 1
 768 704 l 1
 832 704 l 1
 832 768 l 1
 896 768 l 1
 896 682.666666667 896 597.333333333 896 512 c 1
 960 512 l 1
 960 448 l 1
 768 448 l 1
576 512 m 1
 576 704 l 1
 448 704 l 1
 448 768 l 1
 576 768 l 1
 576 704 l 1
 640 704 l 1
 640 512 l 1
 576 512 l 1
EndSplineSet
EndChar

StartChar: uni10107C
Encoding: 1052796 1052796 144
Width: 1024
Flags: HW
LayerCount: 2
Fore
SplineSet
0 832 m 1
 -0 533.333333333 0 234.666666667 0 -64 c 1
 1024 -64 l 1
 1024 234.666666667 1024 533.333333333 1024 832 c 1
 0 832 l 1
128 0 m 1
 128 64 l 1
 64 64 l 1
 64 256 l 1
 128 256 l 1
 128 64 l 1
 256 64 l 1
 256 0 l 1
 128 0 l 1
448 0 m 1
 448 42.6666666667 448 85.3333333333 448 128 c 1
 512 128 l 1
 512 85.3333333333 512 42.6666666667 512 0 c 1
 448 0 l 1
768 0 m 1
 768 64 l 1
 704 64 l 1
 704 256 l 1
 768 256 l 1
 768 64 l 1
 960 64 l 1
 960 0 l 1
 768 0 l 1
256 64 m 1
 256 256 l 1
 128 256 l 1
 128 320 l 1
 256 320 l 1
 256 256 l 1
 320 256 l 1
 320 64 l 1
 256 64 l 1
512 128 m 1
 512 192 l 1
 576 192 l 1
 576 128 l 1
 512 128 l 1
576 192 m 1
 576 256 l 1
 384 256 l 1
 384 320 l 1
 640 320 l 1
 640 277.333333333 640 234.666666667 640 192 c 1
 576 192 l 1
768 256 m 1
 768 320 l 1
 960 320 l 1
 960 256 l 1
 768 256 l 1
128 448 m 1
 128 512 l 1
 192 512 l 1
 192 554.666666667 192 597.333333333 192 640 c 1
 128 640 l 1
 128 704 l 1
 192 704 l 1
 192 768 l 1
 256 768 l 1
 256 682.666666667 256 597.333333333 256 512 c 1
 320 512 l 1
 320 448 l 1
 128 448 l 1
448 448 m 1
 448 512 l 1
 384 512 l 1
 384 704 l 1
 448 704 l 1
 448 512 l 1
 576 512 l 1
 576 448 l 1
 448 448 l 1
768 448 m 1
 768 512 l 1
 832 512 l 1
 832 554.666666667 832 597.333333333 832 640 c 1
 768 640 l 1
 768 704 l 1
 832 704 l 1
 832 768 l 1
 896 768 l 1
 896 682.666666667 896 597.333333333 896 512 c 1
 960 512 l 1
 960 448 l 1
 768 448 l 1
576 512 m 1
 576 704 l 1
 448 704 l 1
 448 768 l 1
 576 768 l 1
 576 704 l 1
 640 704 l 1
 640 512 l 1
 576 512 l 1
EndSplineSet
EndChar

StartChar: uni10107D
Encoding: 1052797 1052797 145
Width: 1024
Flags: HW
LayerCount: 2
Fore
SplineSet
0 832 m 1
 -0 533.333333333 0 234.666666667 0 -64 c 1
 1024 -64 l 1
 1024 234.666666667 1024 533.333333333 1024 832 c 1
 0 832 l 1
128 0 m 1
 128 64 l 1
 64 64 l 1
 64 256 l 1
 128 256 l 1
 128 64 l 1
 256 64 l 1
 256 0 l 1
 128 0 l 1
448 0 m 1
 448 42.6666666667 448 85.3333333333 448 128 c 1
 512 128 l 1
 512 85.3333333333 512 42.6666666667 512 0 c 1
 448 0 l 1
704 0 m 1
 704 320 l 1
 896 320 l 1
 896 256 l 1
 768 256 l 1
 768 64 l 1
 896 64 l 1
 896 0 l 1
 704 0 l 1
256 64 m 1
 256 256 l 1
 128 256 l 1
 128 320 l 1
 256 320 l 1
 256 256 l 1
 320 256 l 1
 320 64 l 1
 256 64 l 1
896 64 m 1
 896 256 l 1
 960 256 l 1
 960 64 l 1
 896 64 l 1
512 128 m 1
 512 192 l 1
 576 192 l 1
 576 128 l 1
 512 128 l 1
576 192 m 1
 576 256 l 1
 384 256 l 1
 384 320 l 1
 640 320 l 1
 640 277.333333333 640 234.666666667 640 192 c 1
 576 192 l 1
128 448 m 1
 128 512 l 1
 192 512 l 1
 192 554.666666667 192 597.333333333 192 640 c 1
 128 640 l 1
 128 704 l 1
 192 704 l 1
 192 768 l 1
 256 768 l 1
 256 682.666666667 256 597.333333333 256 512 c 1
 320 512 l 1
 320 448 l 1
 128 448 l 1
448 448 m 1
 448 512 l 1
 384 512 l 1
 384 704 l 1
 448 704 l 1
 448 512 l 1
 576 512 l 1
 576 448 l 1
 448 448 l 1
768 448 m 1
 768 512 l 1
 832 512 l 1
 832 554.666666667 832 597.333333333 832 640 c 1
 768 640 l 1
 768 704 l 1
 832 704 l 1
 832 768 l 1
 896 768 l 1
 896 682.666666667 896 597.333333333 896 512 c 1
 960 512 l 1
 960 448 l 1
 768 448 l 1
576 512 m 1
 576 704 l 1
 448 704 l 1
 448 768 l 1
 576 768 l 1
 576 704 l 1
 640 704 l 1
 640 512 l 1
 576 512 l 1
EndSplineSet
EndChar

StartChar: uni10107E
Encoding: 1052798 1052798 146
Width: 1024
Flags: HW
LayerCount: 2
Fore
SplineSet
0 832 m 1
 -0 533.333333333 0 234.666666667 0 -64 c 1
 1024 -64 l 1
 1024 234.666666667 1024 533.333333333 1024 832 c 1
 0 832 l 1
128 0 m 1
 128 64 l 1
 64 64 l 1
 64 256 l 1
 128 256 l 1
 128 64 l 1
 256 64 l 1
 256 0 l 1
 128 0 l 1
448 0 m 1
 448 42.6666666667 448 85.3333333333 448 128 c 1
 512 128 l 1
 512 85.3333333333 512 42.6666666667 512 0 c 1
 448 0 l 1
704 0 m 1
 704 320 l 1
 960 320 l 1
 960 256 l 1
 768 256 l 1
 768 192 l 1
 896 192 l 1
 896 128 l 1
 768 128 l 1
 768 64 l 1
 960 64 l 1
 960 0 l 1
 704 0 l 1
256 64 m 1
 256 256 l 1
 128 256 l 1
 128 320 l 1
 256 320 l 1
 256 256 l 1
 320 256 l 1
 320 64 l 1
 256 64 l 1
512 128 m 1
 512 192 l 1
 576 192 l 1
 576 128 l 1
 512 128 l 1
576 192 m 1
 576 256 l 1
 384 256 l 1
 384 320 l 1
 640 320 l 1
 640 277.333333333 640 234.666666667 640 192 c 1
 576 192 l 1
128 448 m 1
 128 512 l 1
 192 512 l 1
 192 554.666666667 192 597.333333333 192 640 c 1
 128 640 l 1
 128 704 l 1
 192 704 l 1
 192 768 l 1
 256 768 l 1
 256 682.666666667 256 597.333333333 256 512 c 1
 320 512 l 1
 320 448 l 1
 128 448 l 1
448 448 m 1
 448 512 l 1
 384 512 l 1
 384 704 l 1
 448 704 l 1
 448 512 l 1
 576 512 l 1
 576 448 l 1
 448 448 l 1
768 448 m 1
 768 512 l 1
 832 512 l 1
 832 554.666666667 832 597.333333333 832 640 c 1
 768 640 l 1
 768 704 l 1
 832 704 l 1
 832 768 l 1
 896 768 l 1
 896 682.666666667 896 597.333333333 896 512 c 1
 960 512 l 1
 960 448 l 1
 768 448 l 1
576 512 m 1
 576 704 l 1
 448 704 l 1
 448 768 l 1
 576 768 l 1
 576 704 l 1
 640 704 l 1
 640 512 l 1
 576 512 l 1
EndSplineSet
EndChar

StartChar: uni10107F
Encoding: 1052799 1052799 147
Width: 1024
Flags: HW
LayerCount: 2
Fore
SplineSet
0 832 m 1
 -0 533.333333333 0 234.666666667 0 -64 c 1
 1024 -64 l 1
 1024 234.666666667 1024 533.333333333 1024 832 c 1
 0 832 l 1
128 0 m 1
 128 64 l 1
 64 64 l 1
 64 256 l 1
 128 256 l 1
 128 64 l 1
 256 64 l 1
 256 0 l 1
 128 0 l 1
448 0 m 1
 448 42.6666666667 448 85.3333333333 448 128 c 1
 512 128 l 1
 512 85.3333333333 512 42.6666666667 512 0 c 1
 448 0 l 1
704 0 m 1
 704 320 l 1
 960 320 l 1
 960 256 l 1
 768 256 l 1
 768 192 l 1
 896 192 l 1
 896 128 l 1
 768 128 l 1
 768 85.3333333333 768 42.6666666667 768 0 c 1
 704 0 l 1
256 64 m 1
 256 256 l 1
 128 256 l 1
 128 320 l 1
 256 320 l 1
 256 256 l 1
 320 256 l 1
 320 64 l 1
 256 64 l 1
512 128 m 1
 512 192 l 1
 576 192 l 1
 576 128 l 1
 512 128 l 1
576 192 m 1
 576 256 l 1
 384 256 l 1
 384 320 l 1
 640 320 l 1
 640 277.333333333 640 234.666666667 640 192 c 1
 576 192 l 1
128 448 m 1
 128 512 l 1
 192 512 l 1
 192 554.666666667 192 597.333333333 192 640 c 1
 128 640 l 1
 128 704 l 1
 192 704 l 1
 192 768 l 1
 256 768 l 1
 256 682.666666667 256 597.333333333 256 512 c 1
 320 512 l 1
 320 448 l 1
 128 448 l 1
448 448 m 1
 448 512 l 1
 384 512 l 1
 384 704 l 1
 448 704 l 1
 448 512 l 1
 576 512 l 1
 576 448 l 1
 448 448 l 1
768 448 m 1
 768 512 l 1
 832 512 l 1
 832 554.666666667 832 597.333333333 832 640 c 1
 768 640 l 1
 768 704 l 1
 832 704 l 1
 832 768 l 1
 896 768 l 1
 896 682.666666667 896 597.333333333 896 512 c 1
 960 512 l 1
 960 448 l 1
 768 448 l 1
576 512 m 1
 576 704 l 1
 448 704 l 1
 448 768 l 1
 576 768 l 1
 576 704 l 1
 640 704 l 1
 640 512 l 1
 576 512 l 1
EndSplineSet
EndChar

StartChar: uni101080
Encoding: 1052800 1052800 148
Width: 1024
Flags: HW
LayerCount: 2
Fore
SplineSet
0 832 m 1
 -0 533.333333333 0 234.666666667 0 -64 c 1
 1024 -64 l 1
 1024 234.666666667 1024 533.333333333 1024 832 c 1
 0 832 l 1
128 0 m 1
 128 64 l 1
 64 64 l 1
 64 256 l 1
 128 256 l 1
 128 64 l 1
 256 64 l 1
 256 0 l 1
 128 0 l 1
448 0 m 1
 448 64 l 1
 384 64 l 1
 384 128 l 1
 448 128 l 1
 448 64 l 1
 576 64 l 1
 576 0 l 1
 448 0 l 1
768 0 m 1
 768 64 l 1
 704 64 l 1
 704 256 l 1
 768 256 l 1
 768 64 l 1
 896 64 l 1
 896 0 l 1
 768 0 l 1
256 64 m 1
 256 256 l 1
 128 256 l 1
 128 320 l 1
 256 320 l 1
 256 256 l 1
 320 256 l 1
 320 64 l 1
 256 64 l 1
576 64 m 1
 576 128 l 1
 448 128 l 1
 448 192 l 1
 384 192 l 1
 384 256 l 1
 448 256 l 1
 448 192 l 1
 576 192 l 1
 576 128 l 1
 640 128 l 1
 640 64 l 1
 576 64 l 1
896 64 m 1
 896 256 l 1
 768 256 l 1
 768 320 l 1
 896 320 l 1
 896 256 l 1
 960 256 l 1
 960 64 l 1
 896 64 l 1
576 192 m 1
 576 256 l 1
 448 256 l 1
 448 320 l 1
 576 320 l 1
 576 256 l 1
 640 256 l 1
 640 192 l 1
 576 192 l 1
128 448 m 1
 128 512 l 1
 192 512 l 1
 192 554.666666667 192 597.333333333 192 640 c 1
 128 640 l 1
 128 704 l 1
 192 704 l 1
 192 768 l 1
 256 768 l 1
 256 682.666666667 256 597.333333333 256 512 c 1
 320 512 l 1
 320 448 l 1
 128 448 l 1
448 448 m 1
 448 512 l 1
 384 512 l 1
 384 704 l 1
 448 704 l 1
 448 512 l 1
 576 512 l 1
 576 448 l 1
 448 448 l 1
768 448 m 1
 768 512 l 1
 832 512 l 1
 832 554.666666667 832 597.333333333 832 640 c 1
 768 640 l 1
 768 704 l 1
 832 704 l 1
 832 768 l 1
 896 768 l 1
 896 682.666666667 896 597.333333333 896 512 c 1
 960 512 l 1
 960 448 l 1
 768 448 l 1
576 512 m 1
 576 704 l 1
 448 704 l 1
 448 768 l 1
 576 768 l 1
 576 704 l 1
 640 704 l 1
 640 512 l 1
 576 512 l 1
EndSplineSet
EndChar

StartChar: uni101081
Encoding: 1052801 1052801 149
Width: 1024
Flags: HW
LayerCount: 2
Fore
SplineSet
0 832 m 1
 -0 533.333333333 0 234.666666667 0 -64 c 1
 1024 -64 l 1
 1024 234.666666667 1024 533.333333333 1024 832 c 1
 0 832 l 1
128 0 m 1
 128 64 l 1
 64 64 l 1
 64 256 l 1
 128 256 l 1
 128 64 l 1
 256 64 l 1
 256 0 l 1
 128 0 l 1
448 0 m 1
 448 64 l 1
 384 64 l 1
 384 128 l 1
 448 128 l 1
 448 64 l 1
 576 64 l 1
 576 0 l 1
 448 0 l 1
768 0 m 1
 768 64 l 1
 832 64 l 1
 832 106.666666667 832 149.333333333 832 192 c 1
 768 192 l 1
 768 256 l 1
 832 256 l 1
 832 320 l 1
 896 320 l 1
 896 234.666666667 896 149.333333333 896 64 c 1
 960 64 l 1
 960 0 l 1
 768 0 l 1
256 64 m 1
 256 256 l 1
 128 256 l 1
 128 320 l 1
 256 320 l 1
 256 256 l 1
 320 256 l 1
 320 64 l 1
 256 64 l 1
576 64 m 1
 576 128 l 1
 448 128 l 1
 448 192 l 1
 384 192 l 1
 384 256 l 1
 448 256 l 1
 448 192 l 1
 576 192 l 1
 576 128 l 1
 640 128 l 1
 640 64 l 1
 576 64 l 1
576 192 m 1
 576 256 l 1
 448 256 l 1
 448 320 l 1
 576 320 l 1
 576 256 l 1
 640 256 l 1
 640 192 l 1
 576 192 l 1
128 448 m 1
 128 512 l 1
 192 512 l 1
 192 554.666666667 192 597.333333333 192 640 c 1
 128 640 l 1
 128 704 l 1
 192 704 l 1
 192 768 l 1
 256 768 l 1
 256 682.666666667 256 597.333333333 256 512 c 1
 320 512 l 1
 320 448 l 1
 128 448 l 1
448 448 m 1
 448 512 l 1
 384 512 l 1
 384 704 l 1
 448 704 l 1
 448 512 l 1
 576 512 l 1
 576 448 l 1
 448 448 l 1
768 448 m 1
 768 512 l 1
 832 512 l 1
 832 554.666666667 832 597.333333333 832 640 c 1
 768 640 l 1
 768 704 l 1
 832 704 l 1
 832 768 l 1
 896 768 l 1
 896 682.666666667 896 597.333333333 896 512 c 1
 960 512 l 1
 960 448 l 1
 768 448 l 1
576 512 m 1
 576 704 l 1
 448 704 l 1
 448 768 l 1
 576 768 l 1
 576 704 l 1
 640 704 l 1
 640 512 l 1
 576 512 l 1
EndSplineSet
EndChar

StartChar: uni101082
Encoding: 1052802 1052802 150
Width: 1024
Flags: HW
LayerCount: 2
Fore
SplineSet
896 192 m 1
 896 256 l 1
 704 256 l 1
 704 320 l 1
 960 320 l 1
 960 128 l 1
 768 128 l 1
 768 64 l 1
 960 64 l 1
 960 0 l 1
 704 0 l 1
 704 192 l 1
 896 192 l 1
0 832 m 1
 -0 533.333333333 0 234.666666667 0 -64 c 1
 1024 -64 l 1
 1024 234.666666667 1024 533.333333333 1024 832 c 1
 0 832 l 1
128 0 m 1
 128 64 l 1
 64 64 l 1
 64 256 l 1
 128 256 l 1
 128 64 l 1
 256 64 l 1
 256 0 l 1
 128 0 l 1
448 0 m 1
 448 64 l 1
 384 64 l 1
 384 128 l 1
 448 128 l 1
 448 64 l 1
 576 64 l 1
 576 0 l 1
 448 0 l 1
256 64 m 1
 256 256 l 1
 128 256 l 1
 128 320 l 1
 256 320 l 1
 256 256 l 1
 320 256 l 1
 320 64 l 1
 256 64 l 1
576 64 m 1
 576 128 l 1
 448 128 l 1
 448 192 l 1
 384 192 l 1
 384 256 l 1
 448 256 l 1
 448 192 l 1
 576 192 l 1
 576 128 l 1
 640 128 l 1
 640 64 l 1
 576 64 l 1
576 192 m 1
 576 256 l 1
 448 256 l 1
 448 320 l 1
 576 320 l 1
 576 256 l 1
 640 256 l 1
 640 192 l 1
 576 192 l 1
128 448 m 1
 128 512 l 1
 192 512 l 1
 192 554.666666667 192 597.333333333 192 640 c 1
 128 640 l 1
 128 704 l 1
 192 704 l 1
 192 768 l 1
 256 768 l 1
 256 682.666666667 256 597.333333333 256 512 c 1
 320 512 l 1
 320 448 l 1
 128 448 l 1
448 448 m 1
 448 512 l 1
 384 512 l 1
 384 704 l 1
 448 704 l 1
 448 512 l 1
 576 512 l 1
 576 448 l 1
 448 448 l 1
768 448 m 1
 768 512 l 1
 832 512 l 1
 832 554.666666667 832 597.333333333 832 640 c 1
 768 640 l 1
 768 704 l 1
 832 704 l 1
 832 768 l 1
 896 768 l 1
 896 682.666666667 896 597.333333333 896 512 c 1
 960 512 l 1
 960 448 l 1
 768 448 l 1
576 512 m 1
 576 704 l 1
 448 704 l 1
 448 768 l 1
 576 768 l 1
 576 704 l 1
 640 704 l 1
 640 512 l 1
 576 512 l 1
EndSplineSet
EndChar

StartChar: uni101083
Encoding: 1052803 1052803 151
Width: 1024
Flags: HW
LayerCount: 2
Fore
SplineSet
0 832 m 1
 -0 533.333333333 0 234.666666667 0 -64 c 1
 1024 -64 l 1
 1024 234.666666667 1024 533.333333333 1024 832 c 1
 0 832 l 1
128 0 m 1
 128 64 l 1
 64 64 l 1
 64 256 l 1
 128 256 l 1
 128 64 l 1
 256 64 l 1
 256 0 l 1
 128 0 l 1
448 0 m 1
 448 64 l 1
 384 64 l 1
 384 128 l 1
 448 128 l 1
 448 64 l 1
 576 64 l 1
 576 0 l 1
 448 0 l 1
704 0 m 1
 704 64 l 1
 896 64 l 1
 896 0 l 1
 704 0 l 1
256 64 m 1
 256 256 l 1
 128 256 l 1
 128 320 l 1
 256 320 l 1
 256 256 l 1
 320 256 l 1
 320 64 l 1
 256 64 l 1
576 64 m 1
 576 128 l 1
 448 128 l 1
 448 192 l 1
 384 192 l 1
 384 256 l 1
 448 256 l 1
 448 192 l 1
 576 192 l 1
 576 128 l 1
 640 128 l 1
 640 64 l 1
 576 64 l 1
896 64 m 1
 896 128 l 1
 768 128 l 1
 768 192 l 1
 896 192 l 1
 896 256 l 1
 704 256 l 1
 704 320 l 1
 896 320 l 1
 896 256 l 1
 960 256 l 1
 960 64 l 1
 896 64 l 1
576 192 m 1
 576 256 l 1
 448 256 l 1
 448 320 l 1
 576 320 l 1
 576 256 l 1
 640 256 l 1
 640 192 l 1
 576 192 l 1
128 448 m 1
 128 512 l 1
 192 512 l 1
 192 554.666666667 192 597.333333333 192 640 c 1
 128 640 l 1
 128 704 l 1
 192 704 l 1
 192 768 l 1
 256 768 l 1
 256 682.666666667 256 597.333333333 256 512 c 1
 320 512 l 1
 320 448 l 1
 128 448 l 1
448 448 m 1
 448 512 l 1
 384 512 l 1
 384 704 l 1
 448 704 l 1
 448 512 l 1
 576 512 l 1
 576 448 l 1
 448 448 l 1
768 448 m 1
 768 512 l 1
 832 512 l 1
 832 554.666666667 832 597.333333333 832 640 c 1
 768 640 l 1
 768 704 l 1
 832 704 l 1
 832 768 l 1
 896 768 l 1
 896 682.666666667 896 597.333333333 896 512 c 1
 960 512 l 1
 960 448 l 1
 768 448 l 1
576 512 m 1
 576 704 l 1
 448 704 l 1
 448 768 l 1
 576 768 l 1
 576 704 l 1
 640 704 l 1
 640 512 l 1
 576 512 l 1
EndSplineSet
EndChar

StartChar: uni101084
Encoding: 1052804 1052804 152
Width: 1024
Flags: HW
LayerCount: 2
Fore
SplineSet
0 832 m 1
 -0 533.333333333 0 234.666666667 0 -64 c 1
 1024 -64 l 1
 1024 234.666666667 1024 533.333333333 1024 832 c 1
 0 832 l 1
128 0 m 1
 128 64 l 1
 64 64 l 1
 64 256 l 1
 128 256 l 1
 128 64 l 1
 256 64 l 1
 256 0 l 1
 128 0 l 1
448 0 m 1
 448 64 l 1
 384 64 l 1
 384 128 l 1
 448 128 l 1
 448 64 l 1
 576 64 l 1
 576 0 l 1
 448 0 l 1
896 0 m 1
 896 42.6666666667 896 85.3333333333 896 128 c 1
 704 128 l 1
 704 320 l 1
 768 320 l 1
 768 277.333333333 768 234.666666667 768 192 c 1
 896 192 l 1
 896 234.666666667 896 277.333333333 896 320 c 1
 960 320 l 1
 960 0 l 1
 896 0 l 1
256 64 m 1
 256 256 l 1
 128 256 l 1
 128 320 l 1
 256 320 l 1
 256 256 l 1
 320 256 l 1
 320 64 l 1
 256 64 l 1
576 64 m 1
 576 128 l 1
 448 128 l 1
 448 192 l 1
 384 192 l 1
 384 256 l 1
 448 256 l 1
 448 192 l 1
 576 192 l 1
 576 128 l 1
 640 128 l 1
 640 64 l 1
 576 64 l 1
576 192 m 1
 576 256 l 1
 448 256 l 1
 448 320 l 1
 576 320 l 1
 576 256 l 1
 640 256 l 1
 640 192 l 1
 576 192 l 1
128 448 m 1
 128 512 l 1
 192 512 l 1
 192 554.666666667 192 597.333333333 192 640 c 1
 128 640 l 1
 128 704 l 1
 192 704 l 1
 192 768 l 1
 256 768 l 1
 256 682.666666667 256 597.333333333 256 512 c 1
 320 512 l 1
 320 448 l 1
 128 448 l 1
448 448 m 1
 448 512 l 1
 384 512 l 1
 384 704 l 1
 448 704 l 1
 448 512 l 1
 576 512 l 1
 576 448 l 1
 448 448 l 1
768 448 m 1
 768 512 l 1
 832 512 l 1
 832 554.666666667 832 597.333333333 832 640 c 1
 768 640 l 1
 768 704 l 1
 832 704 l 1
 832 768 l 1
 896 768 l 1
 896 682.666666667 896 597.333333333 896 512 c 1
 960 512 l 1
 960 448 l 1
 768 448 l 1
576 512 m 1
 576 704 l 1
 448 704 l 1
 448 768 l 1
 576 768 l 1
 576 704 l 1
 640 704 l 1
 640 512 l 1
 576 512 l 1
EndSplineSet
EndChar

StartChar: uni101085
Encoding: 1052805 1052805 153
Width: 1024
Flags: HW
LayerCount: 2
Fore
SplineSet
896 64 m 1
 896 128 l 1
 704 128 l 1
 704 320 l 1
 960 320 l 1
 960 256 l 1
 768 256 l 1
 768 192 l 1
 960 192 l 1
 960 0 l 1
 704 0 l 1
 704 64 l 1
 896 64 l 1
0 832 m 1
 -0 533.333333333 0 234.666666667 0 -64 c 1
 1024 -64 l 1
 1024 234.666666667 1024 533.333333333 1024 832 c 1
 0 832 l 1
128 0 m 1
 128 64 l 1
 64 64 l 1
 64 256 l 1
 128 256 l 1
 128 64 l 1
 256 64 l 1
 256 0 l 1
 128 0 l 1
448 0 m 1
 448 64 l 1
 384 64 l 1
 384 128 l 1
 448 128 l 1
 448 64 l 1
 576 64 l 1
 576 0 l 1
 448 0 l 1
256 64 m 1
 256 256 l 1
 128 256 l 1
 128 320 l 1
 256 320 l 1
 256 256 l 1
 320 256 l 1
 320 64 l 1
 256 64 l 1
576 64 m 1
 576 128 l 1
 448 128 l 1
 448 192 l 1
 384 192 l 1
 384 256 l 1
 448 256 l 1
 448 192 l 1
 576 192 l 1
 576 128 l 1
 640 128 l 1
 640 64 l 1
 576 64 l 1
576 192 m 1
 576 256 l 1
 448 256 l 1
 448 320 l 1
 576 320 l 1
 576 256 l 1
 640 256 l 1
 640 192 l 1
 576 192 l 1
128 448 m 1
 128 512 l 1
 192 512 l 1
 192 554.666666667 192 597.333333333 192 640 c 1
 128 640 l 1
 128 704 l 1
 192 704 l 1
 192 768 l 1
 256 768 l 1
 256 682.666666667 256 597.333333333 256 512 c 1
 320 512 l 1
 320 448 l 1
 128 448 l 1
448 448 m 1
 448 512 l 1
 384 512 l 1
 384 704 l 1
 448 704 l 1
 448 512 l 1
 576 512 l 1
 576 448 l 1
 448 448 l 1
768 448 m 1
 768 512 l 1
 832 512 l 1
 832 554.666666667 832 597.333333333 832 640 c 1
 768 640 l 1
 768 704 l 1
 832 704 l 1
 832 768 l 1
 896 768 l 1
 896 682.666666667 896 597.333333333 896 512 c 1
 960 512 l 1
 960 448 l 1
 768 448 l 1
576 512 m 1
 576 704 l 1
 448 704 l 1
 448 768 l 1
 576 768 l 1
 576 704 l 1
 640 704 l 1
 640 512 l 1
 576 512 l 1
EndSplineSet
EndChar

StartChar: uni101086
Encoding: 1052806 1052806 154
Width: 1024
Flags: HW
LayerCount: 2
Fore
SplineSet
0 832 m 1
 -0 533.333333333 0 234.666666667 0 -64 c 1
 1024 -64 l 1
 1024 234.666666667 1024 533.333333333 1024 832 c 1
 0 832 l 1
128 0 m 1
 128 64 l 1
 64 64 l 1
 64 256 l 1
 128 256 l 1
 128 64 l 1
 256 64 l 1
 256 0 l 1
 128 0 l 1
448 0 m 1
 448 64 l 1
 384 64 l 1
 384 128 l 1
 448 128 l 1
 448 64 l 1
 576 64 l 1
 576 0 l 1
 448 0 l 1
768 0 m 1
 768 64 l 1
 704 64 l 1
 704 256 l 1
 768 256 l 1
 768 192 l 1
 896 192 l 1
 896 128 l 1
 768 128 l 1
 768 64 l 1
 896 64 l 1
 896 0 l 1
 768 0 l 1
256 64 m 1
 256 256 l 1
 128 256 l 1
 128 320 l 1
 256 320 l 1
 256 256 l 1
 320 256 l 1
 320 64 l 1
 256 64 l 1
576 64 m 1
 576 128 l 1
 448 128 l 1
 448 192 l 1
 384 192 l 1
 384 256 l 1
 448 256 l 1
 448 192 l 1
 576 192 l 1
 576 128 l 1
 640 128 l 1
 640 64 l 1
 576 64 l 1
896 64 m 1
 896 128 l 1
 960 128 l 1
 960 64 l 1
 896 64 l 1
576 192 m 1
 576 256 l 1
 448 256 l 1
 448 320 l 1
 576 320 l 1
 576 256 l 1
 640 256 l 1
 640 192 l 1
 576 192 l 1
768 256 m 1
 768 320 l 1
 896 320 l 1
 896 256 l 1
 768 256 l 1
128 448 m 1
 128 512 l 1
 192 512 l 1
 192 554.666666667 192 597.333333333 192 640 c 1
 128 640 l 1
 128 704 l 1
 192 704 l 1
 192 768 l 1
 256 768 l 1
 256 682.666666667 256 597.333333333 256 512 c 1
 320 512 l 1
 320 448 l 1
 128 448 l 1
448 448 m 1
 448 512 l 1
 384 512 l 1
 384 704 l 1
 448 704 l 1
 448 512 l 1
 576 512 l 1
 576 448 l 1
 448 448 l 1
768 448 m 1
 768 512 l 1
 832 512 l 1
 832 554.666666667 832 597.333333333 832 640 c 1
 768 640 l 1
 768 704 l 1
 832 704 l 1
 832 768 l 1
 896 768 l 1
 896 682.666666667 896 597.333333333 896 512 c 1
 960 512 l 1
 960 448 l 1
 768 448 l 1
576 512 m 1
 576 704 l 1
 448 704 l 1
 448 768 l 1
 576 768 l 1
 576 704 l 1
 640 704 l 1
 640 512 l 1
 576 512 l 1
EndSplineSet
EndChar

StartChar: uni101087
Encoding: 1052807 1052807 155
Width: 1024
Flags: HW
LayerCount: 2
Fore
SplineSet
0 832 m 1
 -0 533.333333333 0 234.666666667 0 -64 c 1
 1024 -64 l 1
 1024 234.666666667 1024 533.333333333 1024 832 c 1
 0 832 l 1
128 0 m 1
 128 64 l 1
 64 64 l 1
 64 256 l 1
 128 256 l 1
 128 64 l 1
 256 64 l 1
 256 0 l 1
 128 0 l 1
448 0 m 1
 448 64 l 1
 384 64 l 1
 384 128 l 1
 448 128 l 1
 448 64 l 1
 576 64 l 1
 576 0 l 1
 448 0 l 1
768 0 m 1
 768 42.6666666667 768 85.3333333333 768 128 c 1
 832 128 l 1
 832 85.3333333333 832 42.6666666667 832 0 c 1
 768 0 l 1
256 64 m 1
 256 256 l 1
 128 256 l 1
 128 320 l 1
 256 320 l 1
 256 256 l 1
 320 256 l 1
 320 64 l 1
 256 64 l 1
576 64 m 1
 576 128 l 1
 448 128 l 1
 448 192 l 1
 384 192 l 1
 384 256 l 1
 448 256 l 1
 448 192 l 1
 576 192 l 1
 576 128 l 1
 640 128 l 1
 640 64 l 1
 576 64 l 1
832 128 m 1
 832 192 l 1
 896 192 l 1
 896 128 l 1
 832 128 l 1
576 192 m 1
 576 256 l 1
 448 256 l 1
 448 320 l 1
 576 320 l 1
 576 256 l 1
 640 256 l 1
 640 192 l 1
 576 192 l 1
896 192 m 1
 896 256 l 1
 704 256 l 1
 704 320 l 1
 960 320 l 1
 960 277.333333333 960 234.666666667 960 192 c 1
 896 192 l 1
128 448 m 1
 128 512 l 1
 192 512 l 1
 192 554.666666667 192 597.333333333 192 640 c 1
 128 640 l 1
 128 704 l 1
 192 704 l 1
 192 768 l 1
 256 768 l 1
 256 682.666666667 256 597.333333333 256 512 c 1
 320 512 l 1
 320 448 l 1
 128 448 l 1
448 448 m 1
 448 512 l 1
 384 512 l 1
 384 704 l 1
 448 704 l 1
 448 512 l 1
 576 512 l 1
 576 448 l 1
 448 448 l 1
768 448 m 1
 768 512 l 1
 832 512 l 1
 832 554.666666667 832 597.333333333 832 640 c 1
 768 640 l 1
 768 704 l 1
 832 704 l 1
 832 768 l 1
 896 768 l 1
 896 682.666666667 896 597.333333333 896 512 c 1
 960 512 l 1
 960 448 l 1
 768 448 l 1
576 512 m 1
 576 704 l 1
 448 704 l 1
 448 768 l 1
 576 768 l 1
 576 704 l 1
 640 704 l 1
 640 512 l 1
 576 512 l 1
EndSplineSet
EndChar

StartChar: uni101088
Encoding: 1052808 1052808 156
Width: 1024
Flags: HW
LayerCount: 2
Fore
SplineSet
0 832 m 1
 -0 533.333333333 0 234.666666667 0 -64 c 1
 1024 -64 l 1
 1024 234.666666667 1024 533.333333333 1024 832 c 1
 0 832 l 1
128 0 m 1
 128 64 l 1
 64 64 l 1
 64 256 l 1
 128 256 l 1
 128 64 l 1
 256 64 l 1
 256 0 l 1
 128 0 l 1
448 0 m 1
 448 64 l 1
 384 64 l 1
 384 128 l 1
 448 128 l 1
 448 64 l 1
 576 64 l 1
 576 0 l 1
 448 0 l 1
768 0 m 1
 768 64 l 1
 704 64 l 1
 704 128 l 1
 768 128 l 1
 768 64 l 1
 896 64 l 1
 896 0 l 1
 768 0 l 1
256 64 m 1
 256 256 l 1
 128 256 l 1
 128 320 l 1
 256 320 l 1
 256 256 l 1
 320 256 l 1
 320 64 l 1
 256 64 l 1
576 64 m 1
 576 128 l 1
 448 128 l 1
 448 192 l 1
 384 192 l 1
 384 256 l 1
 448 256 l 1
 448 192 l 1
 576 192 l 1
 576 128 l 1
 640 128 l 1
 640 64 l 1
 576 64 l 1
896 64 m 1
 896 128 l 1
 768 128 l 1
 768 192 l 1
 704 192 l 1
 704 256 l 1
 768 256 l 1
 768 192 l 1
 896 192 l 1
 896 128 l 1
 960 128 l 1
 960 64 l 1
 896 64 l 1
576 192 m 1
 576 256 l 1
 448 256 l 1
 448 320 l 1
 576 320 l 1
 576 256 l 1
 640 256 l 1
 640 192 l 1
 576 192 l 1
896 192 m 1
 896 256 l 1
 768 256 l 1
 768 320 l 1
 896 320 l 1
 896 256 l 1
 960 256 l 1
 960 192 l 1
 896 192 l 1
128 448 m 1
 128 512 l 1
 192 512 l 1
 192 554.666666667 192 597.333333333 192 640 c 1
 128 640 l 1
 128 704 l 1
 192 704 l 1
 192 768 l 1
 256 768 l 1
 256 682.666666667 256 597.333333333 256 512 c 1
 320 512 l 1
 320 448 l 1
 128 448 l 1
448 448 m 1
 448 512 l 1
 384 512 l 1
 384 704 l 1
 448 704 l 1
 448 512 l 1
 576 512 l 1
 576 448 l 1
 448 448 l 1
768 448 m 1
 768 512 l 1
 832 512 l 1
 832 554.666666667 832 597.333333333 832 640 c 1
 768 640 l 1
 768 704 l 1
 832 704 l 1
 832 768 l 1
 896 768 l 1
 896 682.666666667 896 597.333333333 896 512 c 1
 960 512 l 1
 960 448 l 1
 768 448 l 1
576 512 m 1
 576 704 l 1
 448 704 l 1
 448 768 l 1
 576 768 l 1
 576 704 l 1
 640 704 l 1
 640 512 l 1
 576 512 l 1
EndSplineSet
EndChar

StartChar: uni101089
Encoding: 1052809 1052809 157
Width: 1024
Flags: HW
LayerCount: 2
Fore
SplineSet
0 832 m 1
 -0 533.333333333 0 234.666666667 0 -64 c 1
 1024 -64 l 1
 1024 234.666666667 1024 533.333333333 1024 832 c 1
 0 832 l 1
128 0 m 1
 128 64 l 1
 64 64 l 1
 64 256 l 1
 128 256 l 1
 128 64 l 1
 256 64 l 1
 256 0 l 1
 128 0 l 1
448 0 m 1
 448 64 l 1
 384 64 l 1
 384 128 l 1
 448 128 l 1
 448 64 l 1
 576 64 l 1
 576 0 l 1
 448 0 l 1
768 0 m 1
 768 64 l 1
 896 64 l 1
 896 0 l 1
 768 0 l 1
256 64 m 1
 256 256 l 1
 128 256 l 1
 128 320 l 1
 256 320 l 1
 256 256 l 1
 320 256 l 1
 320 64 l 1
 256 64 l 1
576 64 m 1
 576 128 l 1
 448 128 l 1
 448 192 l 1
 384 192 l 1
 384 256 l 1
 448 256 l 1
 448 192 l 1
 576 192 l 1
 576 128 l 1
 640 128 l 1
 640 64 l 1
 576 64 l 1
896 64 m 1
 896 128 l 1
 768 128 l 1
 768 192 l 1
 704 192 l 1
 704 256 l 1
 768 256 l 1
 768 192 l 1
 896 192 l 1
 896 256 l 1
 768 256 l 1
 768 320 l 1
 896 320 l 1
 896 256 l 1
 960 256 l 1
 960 64 l 1
 896 64 l 1
576 192 m 1
 576 256 l 1
 448 256 l 1
 448 320 l 1
 576 320 l 1
 576 256 l 1
 640 256 l 1
 640 192 l 1
 576 192 l 1
128 448 m 1
 128 512 l 1
 192 512 l 1
 192 554.666666667 192 597.333333333 192 640 c 1
 128 640 l 1
 128 704 l 1
 192 704 l 1
 192 768 l 1
 256 768 l 1
 256 682.666666667 256 597.333333333 256 512 c 1
 320 512 l 1
 320 448 l 1
 128 448 l 1
448 448 m 1
 448 512 l 1
 384 512 l 1
 384 704 l 1
 448 704 l 1
 448 512 l 1
 576 512 l 1
 576 448 l 1
 448 448 l 1
768 448 m 1
 768 512 l 1
 832 512 l 1
 832 554.666666667 832 597.333333333 832 640 c 1
 768 640 l 1
 768 704 l 1
 832 704 l 1
 832 768 l 1
 896 768 l 1
 896 682.666666667 896 597.333333333 896 512 c 1
 960 512 l 1
 960 448 l 1
 768 448 l 1
576 512 m 1
 576 704 l 1
 448 704 l 1
 448 768 l 1
 576 768 l 1
 576 704 l 1
 640 704 l 1
 640 512 l 1
 576 512 l 1
EndSplineSet
EndChar

StartChar: uni10108A
Encoding: 1052810 1052810 158
Width: 1024
Flags: HW
LayerCount: 2
Fore
SplineSet
896 192 m 1
 896 256 l 1
 768 256 l 1
 768 192 l 1
 896 192 l 1
0 832 m 1
 -0 533.333333333 0 234.666666667 0 -64 c 1
 1024 -64 l 1
 1024 234.666666667 1024 533.333333333 1024 832 c 1
 0 832 l 1
128 0 m 1
 128 64 l 1
 64 64 l 1
 64 256 l 1
 128 256 l 1
 128 64 l 1
 256 64 l 1
 256 0 l 1
 128 0 l 1
448 0 m 1
 448 64 l 1
 384 64 l 1
 384 128 l 1
 448 128 l 1
 448 64 l 1
 576 64 l 1
 576 0 l 1
 448 0 l 1
704 0 m 1
 704 320 l 1
 960 320 l 1
 960 0 l 1
 896 0 l 1
 896 42.6666666667 896 85.3333333333 896 128 c 1
 768 128 l 1
 768 85.3333333333 768 42.6666666667 768 0 c 1
 704 0 l 1
256 64 m 1
 256 256 l 1
 128 256 l 1
 128 320 l 1
 256 320 l 1
 256 256 l 1
 320 256 l 1
 320 64 l 1
 256 64 l 1
576 64 m 1
 576 128 l 1
 448 128 l 1
 448 192 l 1
 384 192 l 1
 384 256 l 1
 448 256 l 1
 448 192 l 1
 576 192 l 1
 576 128 l 1
 640 128 l 1
 640 64 l 1
 576 64 l 1
576 192 m 1
 576 256 l 1
 448 256 l 1
 448 320 l 1
 576 320 l 1
 576 256 l 1
 640 256 l 1
 640 192 l 1
 576 192 l 1
128 448 m 1
 128 512 l 1
 192 512 l 1
 192 554.666666667 192 597.333333333 192 640 c 1
 128 640 l 1
 128 704 l 1
 192 704 l 1
 192 768 l 1
 256 768 l 1
 256 682.666666667 256 597.333333333 256 512 c 1
 320 512 l 1
 320 448 l 1
 128 448 l 1
448 448 m 1
 448 512 l 1
 384 512 l 1
 384 704 l 1
 448 704 l 1
 448 512 l 1
 576 512 l 1
 576 448 l 1
 448 448 l 1
768 448 m 1
 768 512 l 1
 832 512 l 1
 832 554.666666667 832 597.333333333 832 640 c 1
 768 640 l 1
 768 704 l 1
 832 704 l 1
 832 768 l 1
 896 768 l 1
 896 682.666666667 896 597.333333333 896 512 c 1
 960 512 l 1
 960 448 l 1
 768 448 l 1
576 512 m 1
 576 704 l 1
 448 704 l 1
 448 768 l 1
 576 768 l 1
 576 704 l 1
 640 704 l 1
 640 512 l 1
 576 512 l 1
EndSplineSet
EndChar

StartChar: uni10108B
Encoding: 1052811 1052811 159
Width: 1024
Flags: HW
LayerCount: 2
Fore
SplineSet
0 832 m 1
 -0 533.333333333 0 234.666666667 0 -64 c 1
 1024 -64 l 1
 1024 234.666666667 1024 533.333333333 1024 832 c 1
 0 832 l 1
128 0 m 1
 128 64 l 1
 64 64 l 1
 64 256 l 1
 128 256 l 1
 128 64 l 1
 256 64 l 1
 256 0 l 1
 128 0 l 1
448 0 m 1
 448 64 l 1
 384 64 l 1
 384 128 l 1
 448 128 l 1
 448 64 l 1
 576 64 l 1
 576 0 l 1
 448 0 l 1
704 0 m 1
 704 320 l 1
 896 320 l 1
 896 256 l 1
 768 256 l 1
 768 192 l 1
 896 192 l 1
 896 128 l 1
 768 128 l 1
 768 64 l 1
 896 64 l 1
 896 0 l 1
 704 0 l 1
256 64 m 1
 256 256 l 1
 128 256 l 1
 128 320 l 1
 256 320 l 1
 256 256 l 1
 320 256 l 1
 320 64 l 1
 256 64 l 1
576 64 m 1
 576 128 l 1
 448 128 l 1
 448 192 l 1
 384 192 l 1
 384 256 l 1
 448 256 l 1
 448 192 l 1
 576 192 l 1
 576 128 l 1
 640 128 l 1
 640 64 l 1
 576 64 l 1
896 64 m 1
 896 128 l 1
 960 128 l 1
 960 64 l 1
 896 64 l 1
576 192 m 1
 576 256 l 1
 448 256 l 1
 448 320 l 1
 576 320 l 1
 576 256 l 1
 640 256 l 1
 640 192 l 1
 576 192 l 1
896 192 m 1
 896 256 l 1
 960 256 l 1
 960 192 l 1
 896 192 l 1
128 448 m 1
 128 512 l 1
 192 512 l 1
 192 554.666666667 192 597.333333333 192 640 c 1
 128 640 l 1
 128 704 l 1
 192 704 l 1
 192 768 l 1
 256 768 l 1
 256 682.666666667 256 597.333333333 256 512 c 1
 320 512 l 1
 320 448 l 1
 128 448 l 1
448 448 m 1
 448 512 l 1
 384 512 l 1
 384 704 l 1
 448 704 l 1
 448 512 l 1
 576 512 l 1
 576 448 l 1
 448 448 l 1
768 448 m 1
 768 512 l 1
 832 512 l 1
 832 554.666666667 832 597.333333333 832 640 c 1
 768 640 l 1
 768 704 l 1
 832 704 l 1
 832 768 l 1
 896 768 l 1
 896 682.666666667 896 597.333333333 896 512 c 1
 960 512 l 1
 960 448 l 1
 768 448 l 1
576 512 m 1
 576 704 l 1
 448 704 l 1
 448 768 l 1
 576 768 l 1
 576 704 l 1
 640 704 l 1
 640 512 l 1
 576 512 l 1
EndSplineSet
EndChar

StartChar: uni10108C
Encoding: 1052812 1052812 160
Width: 1024
Flags: HW
LayerCount: 2
Fore
SplineSet
0 832 m 1
 -0 533.333333333 0 234.666666667 0 -64 c 1
 1024 -64 l 1
 1024 234.666666667 1024 533.333333333 1024 832 c 1
 0 832 l 1
128 0 m 1
 128 64 l 1
 64 64 l 1
 64 256 l 1
 128 256 l 1
 128 64 l 1
 256 64 l 1
 256 0 l 1
 128 0 l 1
448 0 m 1
 448 64 l 1
 384 64 l 1
 384 128 l 1
 448 128 l 1
 448 64 l 1
 576 64 l 1
 576 0 l 1
 448 0 l 1
768 0 m 1
 768 64 l 1
 704 64 l 1
 704 256 l 1
 768 256 l 1
 768 64 l 1
 960 64 l 1
 960 0 l 1
 768 0 l 1
256 64 m 1
 256 256 l 1
 128 256 l 1
 128 320 l 1
 256 320 l 1
 256 256 l 1
 320 256 l 1
 320 64 l 1
 256 64 l 1
576 64 m 1
 576 128 l 1
 448 128 l 1
 448 192 l 1
 384 192 l 1
 384 256 l 1
 448 256 l 1
 448 192 l 1
 576 192 l 1
 576 128 l 1
 640 128 l 1
 640 64 l 1
 576 64 l 1
576 192 m 1
 576 256 l 1
 448 256 l 1
 448 320 l 1
 576 320 l 1
 576 256 l 1
 640 256 l 1
 640 192 l 1
 576 192 l 1
768 256 m 1
 768 320 l 1
 960 320 l 1
 960 256 l 1
 768 256 l 1
128 448 m 1
 128 512 l 1
 192 512 l 1
 192 554.666666667 192 597.333333333 192 640 c 1
 128 640 l 1
 128 704 l 1
 192 704 l 1
 192 768 l 1
 256 768 l 1
 256 682.666666667 256 597.333333333 256 512 c 1
 320 512 l 1
 320 448 l 1
 128 448 l 1
448 448 m 1
 448 512 l 1
 384 512 l 1
 384 704 l 1
 448 704 l 1
 448 512 l 1
 576 512 l 1
 576 448 l 1
 448 448 l 1
768 448 m 1
 768 512 l 1
 832 512 l 1
 832 554.666666667 832 597.333333333 832 640 c 1
 768 640 l 1
 768 704 l 1
 832 704 l 1
 832 768 l 1
 896 768 l 1
 896 682.666666667 896 597.333333333 896 512 c 1
 960 512 l 1
 960 448 l 1
 768 448 l 1
576 512 m 1
 576 704 l 1
 448 704 l 1
 448 768 l 1
 576 768 l 1
 576 704 l 1
 640 704 l 1
 640 512 l 1
 576 512 l 1
EndSplineSet
EndChar

StartChar: uni10108D
Encoding: 1052813 1052813 161
Width: 1024
Flags: HW
LayerCount: 2
Fore
SplineSet
0 832 m 1
 -0 533.333333333 0 234.666666667 0 -64 c 1
 1024 -64 l 1
 1024 234.666666667 1024 533.333333333 1024 832 c 1
 0 832 l 1
128 0 m 1
 128 64 l 1
 64 64 l 1
 64 256 l 1
 128 256 l 1
 128 64 l 1
 256 64 l 1
 256 0 l 1
 128 0 l 1
448 0 m 1
 448 64 l 1
 384 64 l 1
 384 128 l 1
 448 128 l 1
 448 64 l 1
 576 64 l 1
 576 0 l 1
 448 0 l 1
704 0 m 1
 704 320 l 1
 896 320 l 1
 896 256 l 1
 768 256 l 1
 768 64 l 1
 896 64 l 1
 896 0 l 1
 704 0 l 1
256 64 m 1
 256 256 l 1
 128 256 l 1
 128 320 l 1
 256 320 l 1
 256 256 l 1
 320 256 l 1
 320 64 l 1
 256 64 l 1
576 64 m 1
 576 128 l 1
 448 128 l 1
 448 192 l 1
 384 192 l 1
 384 256 l 1
 448 256 l 1
 448 192 l 1
 576 192 l 1
 576 128 l 1
 640 128 l 1
 640 64 l 1
 576 64 l 1
896 64 m 1
 896 256 l 1
 960 256 l 1
 960 64 l 1
 896 64 l 1
576 192 m 1
 576 256 l 1
 448 256 l 1
 448 320 l 1
 576 320 l 1
 576 256 l 1
 640 256 l 1
 640 192 l 1
 576 192 l 1
128 448 m 1
 128 512 l 1
 192 512 l 1
 192 554.666666667 192 597.333333333 192 640 c 1
 128 640 l 1
 128 704 l 1
 192 704 l 1
 192 768 l 1
 256 768 l 1
 256 682.666666667 256 597.333333333 256 512 c 1
 320 512 l 1
 320 448 l 1
 128 448 l 1
448 448 m 1
 448 512 l 1
 384 512 l 1
 384 704 l 1
 448 704 l 1
 448 512 l 1
 576 512 l 1
 576 448 l 1
 448 448 l 1
768 448 m 1
 768 512 l 1
 832 512 l 1
 832 554.666666667 832 597.333333333 832 640 c 1
 768 640 l 1
 768 704 l 1
 832 704 l 1
 832 768 l 1
 896 768 l 1
 896 682.666666667 896 597.333333333 896 512 c 1
 960 512 l 1
 960 448 l 1
 768 448 l 1
576 512 m 1
 576 704 l 1
 448 704 l 1
 448 768 l 1
 576 768 l 1
 576 704 l 1
 640 704 l 1
 640 512 l 1
 576 512 l 1
EndSplineSet
EndChar

StartChar: uni10108E
Encoding: 1052814 1052814 162
Width: 1024
Flags: HW
LayerCount: 2
Fore
SplineSet
0 832 m 1
 -0 533.333333333 0 234.666666667 0 -64 c 1
 1024 -64 l 1
 1024 234.666666667 1024 533.333333333 1024 832 c 1
 0 832 l 1
128 0 m 1
 128 64 l 1
 64 64 l 1
 64 256 l 1
 128 256 l 1
 128 64 l 1
 256 64 l 1
 256 0 l 1
 128 0 l 1
448 0 m 1
 448 64 l 1
 384 64 l 1
 384 128 l 1
 448 128 l 1
 448 64 l 1
 576 64 l 1
 576 0 l 1
 448 0 l 1
704 0 m 1
 704 320 l 1
 960 320 l 1
 960 256 l 1
 768 256 l 1
 768 192 l 1
 896 192 l 1
 896 128 l 1
 768 128 l 1
 768 64 l 1
 960 64 l 1
 960 0 l 1
 704 0 l 1
256 64 m 1
 256 256 l 1
 128 256 l 1
 128 320 l 1
 256 320 l 1
 256 256 l 1
 320 256 l 1
 320 64 l 1
 256 64 l 1
576 64 m 1
 576 128 l 1
 448 128 l 1
 448 192 l 1
 384 192 l 1
 384 256 l 1
 448 256 l 1
 448 192 l 1
 576 192 l 1
 576 128 l 1
 640 128 l 1
 640 64 l 1
 576 64 l 1
576 192 m 1
 576 256 l 1
 448 256 l 1
 448 320 l 1
 576 320 l 1
 576 256 l 1
 640 256 l 1
 640 192 l 1
 576 192 l 1
128 448 m 1
 128 512 l 1
 192 512 l 1
 192 554.666666667 192 597.333333333 192 640 c 1
 128 640 l 1
 128 704 l 1
 192 704 l 1
 192 768 l 1
 256 768 l 1
 256 682.666666667 256 597.333333333 256 512 c 1
 320 512 l 1
 320 448 l 1
 128 448 l 1
448 448 m 1
 448 512 l 1
 384 512 l 1
 384 704 l 1
 448 704 l 1
 448 512 l 1
 576 512 l 1
 576 448 l 1
 448 448 l 1
768 448 m 1
 768 512 l 1
 832 512 l 1
 832 554.666666667 832 597.333333333 832 640 c 1
 768 640 l 1
 768 704 l 1
 832 704 l 1
 832 768 l 1
 896 768 l 1
 896 682.666666667 896 597.333333333 896 512 c 1
 960 512 l 1
 960 448 l 1
 768 448 l 1
576 512 m 1
 576 704 l 1
 448 704 l 1
 448 768 l 1
 576 768 l 1
 576 704 l 1
 640 704 l 1
 640 512 l 1
 576 512 l 1
EndSplineSet
EndChar

StartChar: uni10108F
Encoding: 1052815 1052815 163
Width: 1024
Flags: HW
LayerCount: 2
Fore
SplineSet
0 832 m 1
 -0 533.333333333 0 234.666666667 0 -64 c 1
 1024 -64 l 1
 1024 234.666666667 1024 533.333333333 1024 832 c 1
 0 832 l 1
128 0 m 1
 128 64 l 1
 64 64 l 1
 64 256 l 1
 128 256 l 1
 128 64 l 1
 256 64 l 1
 256 0 l 1
 128 0 l 1
448 0 m 1
 448 64 l 1
 384 64 l 1
 384 128 l 1
 448 128 l 1
 448 64 l 1
 576 64 l 1
 576 0 l 1
 448 0 l 1
704 0 m 1
 704 320 l 1
 960 320 l 1
 960 256 l 1
 768 256 l 1
 768 192 l 1
 896 192 l 1
 896 128 l 1
 768 128 l 1
 768 85.3333333333 768 42.6666666667 768 0 c 1
 704 0 l 1
256 64 m 1
 256 256 l 1
 128 256 l 1
 128 320 l 1
 256 320 l 1
 256 256 l 1
 320 256 l 1
 320 64 l 1
 256 64 l 1
576 64 m 1
 576 128 l 1
 448 128 l 1
 448 192 l 1
 384 192 l 1
 384 256 l 1
 448 256 l 1
 448 192 l 1
 576 192 l 1
 576 128 l 1
 640 128 l 1
 640 64 l 1
 576 64 l 1
576 192 m 1
 576 256 l 1
 448 256 l 1
 448 320 l 1
 576 320 l 1
 576 256 l 1
 640 256 l 1
 640 192 l 1
 576 192 l 1
128 448 m 1
 128 512 l 1
 192 512 l 1
 192 554.666666667 192 597.333333333 192 640 c 1
 128 640 l 1
 128 704 l 1
 192 704 l 1
 192 768 l 1
 256 768 l 1
 256 682.666666667 256 597.333333333 256 512 c 1
 320 512 l 1
 320 448 l 1
 128 448 l 1
448 448 m 1
 448 512 l 1
 384 512 l 1
 384 704 l 1
 448 704 l 1
 448 512 l 1
 576 512 l 1
 576 448 l 1
 448 448 l 1
768 448 m 1
 768 512 l 1
 832 512 l 1
 832 554.666666667 832 597.333333333 832 640 c 1
 768 640 l 1
 768 704 l 1
 832 704 l 1
 832 768 l 1
 896 768 l 1
 896 682.666666667 896 597.333333333 896 512 c 1
 960 512 l 1
 960 448 l 1
 768 448 l 1
576 512 m 1
 576 704 l 1
 448 704 l 1
 448 768 l 1
 576 768 l 1
 576 704 l 1
 640 704 l 1
 640 512 l 1
 576 512 l 1
EndSplineSet
EndChar

StartChar: uni101090
Encoding: 1052816 1052816 164
Width: 1024
Flags: HW
LayerCount: 2
Fore
SplineSet
0 832 m 1
 -0 533.333333333 0 234.666666667 0 -64 c 1
 1024 -64 l 1
 1024 234.666666667 1024 533.333333333 1024 832 c 1
 0 832 l 1
128 0 m 1
 128 64 l 1
 64 64 l 1
 64 256 l 1
 128 256 l 1
 128 64 l 1
 256 64 l 1
 256 0 l 1
 128 0 l 1
448 0 m 1
 448 64 l 1
 576 64 l 1
 576 0 l 1
 448 0 l 1
768 0 m 1
 768 64 l 1
 704 64 l 1
 704 256 l 1
 768 256 l 1
 768 64 l 1
 896 64 l 1
 896 0 l 1
 768 0 l 1
256 64 m 1
 256 256 l 1
 128 256 l 1
 128 320 l 1
 256 320 l 1
 256 256 l 1
 320 256 l 1
 320 64 l 1
 256 64 l 1
576 64 m 1
 576 128 l 1
 448 128 l 1
 448 192 l 1
 384 192 l 1
 384 256 l 1
 448 256 l 1
 448 192 l 1
 576 192 l 1
 576 256 l 1
 448 256 l 1
 448 320 l 1
 576 320 l 1
 576 256 l 1
 640 256 l 1
 640 64 l 1
 576 64 l 1
896 64 m 1
 896 256 l 1
 768 256 l 1
 768 320 l 1
 896 320 l 1
 896 256 l 1
 960 256 l 1
 960 64 l 1
 896 64 l 1
128 448 m 1
 128 512 l 1
 192 512 l 1
 192 554.666666667 192 597.333333333 192 640 c 1
 128 640 l 1
 128 704 l 1
 192 704 l 1
 192 768 l 1
 256 768 l 1
 256 682.666666667 256 597.333333333 256 512 c 1
 320 512 l 1
 320 448 l 1
 128 448 l 1
448 448 m 1
 448 512 l 1
 384 512 l 1
 384 704 l 1
 448 704 l 1
 448 512 l 1
 576 512 l 1
 576 448 l 1
 448 448 l 1
768 448 m 1
 768 512 l 1
 832 512 l 1
 832 554.666666667 832 597.333333333 832 640 c 1
 768 640 l 1
 768 704 l 1
 832 704 l 1
 832 768 l 1
 896 768 l 1
 896 682.666666667 896 597.333333333 896 512 c 1
 960 512 l 1
 960 448 l 1
 768 448 l 1
576 512 m 1
 576 704 l 1
 448 704 l 1
 448 768 l 1
 576 768 l 1
 576 704 l 1
 640 704 l 1
 640 512 l 1
 576 512 l 1
EndSplineSet
EndChar

StartChar: uni101091
Encoding: 1052817 1052817 165
Width: 1024
Flags: HW
LayerCount: 2
Fore
SplineSet
0 832 m 1
 -0 533.333333333 0 234.666666667 0 -64 c 1
 1024 -64 l 1
 1024 234.666666667 1024 533.333333333 1024 832 c 1
 0 832 l 1
128 0 m 1
 128 64 l 1
 64 64 l 1
 64 256 l 1
 128 256 l 1
 128 64 l 1
 256 64 l 1
 256 0 l 1
 128 0 l 1
448 0 m 1
 448 64 l 1
 576 64 l 1
 576 0 l 1
 448 0 l 1
768 0 m 1
 768 64 l 1
 832 64 l 1
 832 106.666666667 832 149.333333333 832 192 c 1
 768 192 l 1
 768 256 l 1
 832 256 l 1
 832 320 l 1
 896 320 l 1
 896 234.666666667 896 149.333333333 896 64 c 1
 960 64 l 1
 960 0 l 1
 768 0 l 1
256 64 m 1
 256 256 l 1
 128 256 l 1
 128 320 l 1
 256 320 l 1
 256 256 l 1
 320 256 l 1
 320 64 l 1
 256 64 l 1
576 64 m 1
 576 128 l 1
 448 128 l 1
 448 192 l 1
 384 192 l 1
 384 256 l 1
 448 256 l 1
 448 192 l 1
 576 192 l 1
 576 256 l 1
 448 256 l 1
 448 320 l 1
 576 320 l 1
 576 256 l 1
 640 256 l 1
 640 64 l 1
 576 64 l 1
128 448 m 1
 128 512 l 1
 192 512 l 1
 192 554.666666667 192 597.333333333 192 640 c 1
 128 640 l 1
 128 704 l 1
 192 704 l 1
 192 768 l 1
 256 768 l 1
 256 682.666666667 256 597.333333333 256 512 c 1
 320 512 l 1
 320 448 l 1
 128 448 l 1
448 448 m 1
 448 512 l 1
 384 512 l 1
 384 704 l 1
 448 704 l 1
 448 512 l 1
 576 512 l 1
 576 448 l 1
 448 448 l 1
768 448 m 1
 768 512 l 1
 832 512 l 1
 832 554.666666667 832 597.333333333 832 640 c 1
 768 640 l 1
 768 704 l 1
 832 704 l 1
 832 768 l 1
 896 768 l 1
 896 682.666666667 896 597.333333333 896 512 c 1
 960 512 l 1
 960 448 l 1
 768 448 l 1
576 512 m 1
 576 704 l 1
 448 704 l 1
 448 768 l 1
 576 768 l 1
 576 704 l 1
 640 704 l 1
 640 512 l 1
 576 512 l 1
EndSplineSet
EndChar

StartChar: uni101092
Encoding: 1052818 1052818 166
Width: 1024
Flags: HW
LayerCount: 2
Fore
SplineSet
896 192 m 1
 896 256 l 1
 704 256 l 1
 704 320 l 1
 960 320 l 1
 960 128 l 1
 768 128 l 1
 768 64 l 1
 960 64 l 1
 960 0 l 1
 704 0 l 1
 704 192 l 1
 896 192 l 1
0 832 m 1
 -0 533.333333333 0 234.666666667 0 -64 c 1
 1024 -64 l 1
 1024 234.666666667 1024 533.333333333 1024 832 c 1
 0 832 l 1
128 0 m 1
 128 64 l 1
 64 64 l 1
 64 256 l 1
 128 256 l 1
 128 64 l 1
 256 64 l 1
 256 0 l 1
 128 0 l 1
448 0 m 1
 448 64 l 1
 576 64 l 1
 576 0 l 1
 448 0 l 1
256 64 m 1
 256 256 l 1
 128 256 l 1
 128 320 l 1
 256 320 l 1
 256 256 l 1
 320 256 l 1
 320 64 l 1
 256 64 l 1
576 64 m 1
 576 128 l 1
 448 128 l 1
 448 192 l 1
 384 192 l 1
 384 256 l 1
 448 256 l 1
 448 192 l 1
 576 192 l 1
 576 256 l 1
 448 256 l 1
 448 320 l 1
 576 320 l 1
 576 256 l 1
 640 256 l 1
 640 64 l 1
 576 64 l 1
128 448 m 1
 128 512 l 1
 192 512 l 1
 192 554.666666667 192 597.333333333 192 640 c 1
 128 640 l 1
 128 704 l 1
 192 704 l 1
 192 768 l 1
 256 768 l 1
 256 682.666666667 256 597.333333333 256 512 c 1
 320 512 l 1
 320 448 l 1
 128 448 l 1
448 448 m 1
 448 512 l 1
 384 512 l 1
 384 704 l 1
 448 704 l 1
 448 512 l 1
 576 512 l 1
 576 448 l 1
 448 448 l 1
768 448 m 1
 768 512 l 1
 832 512 l 1
 832 554.666666667 832 597.333333333 832 640 c 1
 768 640 l 1
 768 704 l 1
 832 704 l 1
 832 768 l 1
 896 768 l 1
 896 682.666666667 896 597.333333333 896 512 c 1
 960 512 l 1
 960 448 l 1
 768 448 l 1
576 512 m 1
 576 704 l 1
 448 704 l 1
 448 768 l 1
 576 768 l 1
 576 704 l 1
 640 704 l 1
 640 512 l 1
 576 512 l 1
EndSplineSet
EndChar

StartChar: uni101093
Encoding: 1052819 1052819 167
Width: 1024
Flags: HW
LayerCount: 2
Fore
SplineSet
0 832 m 1
 -0 533.333333333 0 234.666666667 0 -64 c 1
 1024 -64 l 1
 1024 234.666666667 1024 533.333333333 1024 832 c 1
 0 832 l 1
128 0 m 1
 128 64 l 1
 64 64 l 1
 64 256 l 1
 128 256 l 1
 128 64 l 1
 256 64 l 1
 256 0 l 1
 128 0 l 1
448 0 m 1
 448 64 l 1
 576 64 l 1
 576 0 l 1
 448 0 l 1
704 0 m 1
 704 64 l 1
 896 64 l 1
 896 0 l 1
 704 0 l 1
256 64 m 1
 256 256 l 1
 128 256 l 1
 128 320 l 1
 256 320 l 1
 256 256 l 1
 320 256 l 1
 320 64 l 1
 256 64 l 1
576 64 m 1
 576 128 l 1
 448 128 l 1
 448 192 l 1
 384 192 l 1
 384 256 l 1
 448 256 l 1
 448 192 l 1
 576 192 l 1
 576 256 l 1
 448 256 l 1
 448 320 l 1
 576 320 l 1
 576 256 l 1
 640 256 l 1
 640 64 l 1
 576 64 l 1
896 64 m 1
 896 128 l 1
 768 128 l 1
 768 192 l 1
 896 192 l 1
 896 256 l 1
 704 256 l 1
 704 320 l 1
 896 320 l 1
 896 256 l 1
 960 256 l 1
 960 64 l 1
 896 64 l 1
128 448 m 1
 128 512 l 1
 192 512 l 1
 192 554.666666667 192 597.333333333 192 640 c 1
 128 640 l 1
 128 704 l 1
 192 704 l 1
 192 768 l 1
 256 768 l 1
 256 682.666666667 256 597.333333333 256 512 c 1
 320 512 l 1
 320 448 l 1
 128 448 l 1
448 448 m 1
 448 512 l 1
 384 512 l 1
 384 704 l 1
 448 704 l 1
 448 512 l 1
 576 512 l 1
 576 448 l 1
 448 448 l 1
768 448 m 1
 768 512 l 1
 832 512 l 1
 832 554.666666667 832 597.333333333 832 640 c 1
 768 640 l 1
 768 704 l 1
 832 704 l 1
 832 768 l 1
 896 768 l 1
 896 682.666666667 896 597.333333333 896 512 c 1
 960 512 l 1
 960 448 l 1
 768 448 l 1
576 512 m 1
 576 704 l 1
 448 704 l 1
 448 768 l 1
 576 768 l 1
 576 704 l 1
 640 704 l 1
 640 512 l 1
 576 512 l 1
EndSplineSet
EndChar

StartChar: uni101094
Encoding: 1052820 1052820 168
Width: 1024
Flags: HW
LayerCount: 2
Fore
SplineSet
0 832 m 1
 -0 533.333333333 0 234.666666667 0 -64 c 1
 1024 -64 l 1
 1024 234.666666667 1024 533.333333333 1024 832 c 1
 0 832 l 1
128 0 m 1
 128 64 l 1
 64 64 l 1
 64 256 l 1
 128 256 l 1
 128 64 l 1
 256 64 l 1
 256 0 l 1
 128 0 l 1
448 0 m 1
 448 64 l 1
 576 64 l 1
 576 0 l 1
 448 0 l 1
896 0 m 1
 896 42.6666666667 896 85.3333333333 896 128 c 1
 704 128 l 1
 704 320 l 1
 768 320 l 1
 768 277.333333333 768 234.666666667 768 192 c 1
 896 192 l 1
 896 234.666666667 896 277.333333333 896 320 c 1
 960 320 l 1
 960 0 l 1
 896 0 l 1
256 64 m 1
 256 256 l 1
 128 256 l 1
 128 320 l 1
 256 320 l 1
 256 256 l 1
 320 256 l 1
 320 64 l 1
 256 64 l 1
576 64 m 1
 576 128 l 1
 448 128 l 1
 448 192 l 1
 384 192 l 1
 384 256 l 1
 448 256 l 1
 448 192 l 1
 576 192 l 1
 576 256 l 1
 448 256 l 1
 448 320 l 1
 576 320 l 1
 576 256 l 1
 640 256 l 1
 640 64 l 1
 576 64 l 1
128 448 m 1
 128 512 l 1
 192 512 l 1
 192 554.666666667 192 597.333333333 192 640 c 1
 128 640 l 1
 128 704 l 1
 192 704 l 1
 192 768 l 1
 256 768 l 1
 256 682.666666667 256 597.333333333 256 512 c 1
 320 512 l 1
 320 448 l 1
 128 448 l 1
448 448 m 1
 448 512 l 1
 384 512 l 1
 384 704 l 1
 448 704 l 1
 448 512 l 1
 576 512 l 1
 576 448 l 1
 448 448 l 1
768 448 m 1
 768 512 l 1
 832 512 l 1
 832 554.666666667 832 597.333333333 832 640 c 1
 768 640 l 1
 768 704 l 1
 832 704 l 1
 832 768 l 1
 896 768 l 1
 896 682.666666667 896 597.333333333 896 512 c 1
 960 512 l 1
 960 448 l 1
 768 448 l 1
576 512 m 1
 576 704 l 1
 448 704 l 1
 448 768 l 1
 576 768 l 1
 576 704 l 1
 640 704 l 1
 640 512 l 1
 576 512 l 1
EndSplineSet
EndChar

StartChar: uni101095
Encoding: 1052821 1052821 169
Width: 1024
Flags: HW
LayerCount: 2
Fore
SplineSet
896 64 m 1
 896 128 l 1
 704 128 l 1
 704 320 l 1
 960 320 l 1
 960 256 l 1
 768 256 l 1
 768 192 l 1
 960 192 l 1
 960 0 l 1
 704 0 l 1
 704 64 l 1
 896 64 l 1
0 832 m 1
 -0 533.333333333 0 234.666666667 0 -64 c 1
 1024 -64 l 1
 1024 234.666666667 1024 533.333333333 1024 832 c 1
 0 832 l 1
128 0 m 1
 128 64 l 1
 64 64 l 1
 64 256 l 1
 128 256 l 1
 128 64 l 1
 256 64 l 1
 256 0 l 1
 128 0 l 1
448 0 m 1
 448 64 l 1
 576 64 l 1
 576 0 l 1
 448 0 l 1
256 64 m 1
 256 256 l 1
 128 256 l 1
 128 320 l 1
 256 320 l 1
 256 256 l 1
 320 256 l 1
 320 64 l 1
 256 64 l 1
576 64 m 1
 576 128 l 1
 448 128 l 1
 448 192 l 1
 384 192 l 1
 384 256 l 1
 448 256 l 1
 448 192 l 1
 576 192 l 1
 576 256 l 1
 448 256 l 1
 448 320 l 1
 576 320 l 1
 576 256 l 1
 640 256 l 1
 640 64 l 1
 576 64 l 1
128 448 m 1
 128 512 l 1
 192 512 l 1
 192 554.666666667 192 597.333333333 192 640 c 1
 128 640 l 1
 128 704 l 1
 192 704 l 1
 192 768 l 1
 256 768 l 1
 256 682.666666667 256 597.333333333 256 512 c 1
 320 512 l 1
 320 448 l 1
 128 448 l 1
448 448 m 1
 448 512 l 1
 384 512 l 1
 384 704 l 1
 448 704 l 1
 448 512 l 1
 576 512 l 1
 576 448 l 1
 448 448 l 1
768 448 m 1
 768 512 l 1
 832 512 l 1
 832 554.666666667 832 597.333333333 832 640 c 1
 768 640 l 1
 768 704 l 1
 832 704 l 1
 832 768 l 1
 896 768 l 1
 896 682.666666667 896 597.333333333 896 512 c 1
 960 512 l 1
 960 448 l 1
 768 448 l 1
576 512 m 1
 576 704 l 1
 448 704 l 1
 448 768 l 1
 576 768 l 1
 576 704 l 1
 640 704 l 1
 640 512 l 1
 576 512 l 1
EndSplineSet
EndChar

StartChar: uni101096
Encoding: 1052822 1052822 170
Width: 1024
Flags: HW
LayerCount: 2
Fore
SplineSet
0 832 m 1
 -0 533.333333333 0 234.666666667 0 -64 c 1
 1024 -64 l 1
 1024 234.666666667 1024 533.333333333 1024 832 c 1
 0 832 l 1
128 0 m 1
 128 64 l 1
 64 64 l 1
 64 256 l 1
 128 256 l 1
 128 64 l 1
 256 64 l 1
 256 0 l 1
 128 0 l 1
448 0 m 1
 448 64 l 1
 576 64 l 1
 576 0 l 1
 448 0 l 1
768 0 m 1
 768 64 l 1
 704 64 l 1
 704 256 l 1
 768 256 l 1
 768 192 l 1
 896 192 l 1
 896 128 l 1
 768 128 l 1
 768 64 l 1
 896 64 l 1
 896 0 l 1
 768 0 l 1
256 64 m 1
 256 256 l 1
 128 256 l 1
 128 320 l 1
 256 320 l 1
 256 256 l 1
 320 256 l 1
 320 64 l 1
 256 64 l 1
576 64 m 1
 576 128 l 1
 448 128 l 1
 448 192 l 1
 384 192 l 1
 384 256 l 1
 448 256 l 1
 448 192 l 1
 576 192 l 1
 576 256 l 1
 448 256 l 1
 448 320 l 1
 576 320 l 1
 576 256 l 1
 640 256 l 1
 640 64 l 1
 576 64 l 1
896 64 m 1
 896 128 l 1
 960 128 l 1
 960 64 l 1
 896 64 l 1
768 256 m 1
 768 320 l 1
 896 320 l 1
 896 256 l 1
 768 256 l 1
128 448 m 1
 128 512 l 1
 192 512 l 1
 192 554.666666667 192 597.333333333 192 640 c 1
 128 640 l 1
 128 704 l 1
 192 704 l 1
 192 768 l 1
 256 768 l 1
 256 682.666666667 256 597.333333333 256 512 c 1
 320 512 l 1
 320 448 l 1
 128 448 l 1
448 448 m 1
 448 512 l 1
 384 512 l 1
 384 704 l 1
 448 704 l 1
 448 512 l 1
 576 512 l 1
 576 448 l 1
 448 448 l 1
768 448 m 1
 768 512 l 1
 832 512 l 1
 832 554.666666667 832 597.333333333 832 640 c 1
 768 640 l 1
 768 704 l 1
 832 704 l 1
 832 768 l 1
 896 768 l 1
 896 682.666666667 896 597.333333333 896 512 c 1
 960 512 l 1
 960 448 l 1
 768 448 l 1
576 512 m 1
 576 704 l 1
 448 704 l 1
 448 768 l 1
 576 768 l 1
 576 704 l 1
 640 704 l 1
 640 512 l 1
 576 512 l 1
EndSplineSet
EndChar

StartChar: uni101097
Encoding: 1052823 1052823 171
Width: 1024
Flags: HW
LayerCount: 2
Fore
SplineSet
0 832 m 1
 -0 533.333333333 0 234.666666667 0 -64 c 1
 1024 -64 l 1
 1024 234.666666667 1024 533.333333333 1024 832 c 1
 0 832 l 1
128 0 m 1
 128 64 l 1
 64 64 l 1
 64 256 l 1
 128 256 l 1
 128 64 l 1
 256 64 l 1
 256 0 l 1
 128 0 l 1
448 0 m 1
 448 64 l 1
 576 64 l 1
 576 0 l 1
 448 0 l 1
768 0 m 1
 768 42.6666666667 768 85.3333333333 768 128 c 1
 832 128 l 1
 832 85.3333333333 832 42.6666666667 832 0 c 1
 768 0 l 1
256 64 m 1
 256 256 l 1
 128 256 l 1
 128 320 l 1
 256 320 l 1
 256 256 l 1
 320 256 l 1
 320 64 l 1
 256 64 l 1
576 64 m 1
 576 128 l 1
 448 128 l 1
 448 192 l 1
 384 192 l 1
 384 256 l 1
 448 256 l 1
 448 192 l 1
 576 192 l 1
 576 256 l 1
 448 256 l 1
 448 320 l 1
 576 320 l 1
 576 256 l 1
 640 256 l 1
 640 64 l 1
 576 64 l 1
832 128 m 1
 832 192 l 1
 896 192 l 1
 896 128 l 1
 832 128 l 1
896 192 m 1
 896 256 l 1
 704 256 l 1
 704 320 l 1
 960 320 l 1
 960 277.333333333 960 234.666666667 960 192 c 1
 896 192 l 1
128 448 m 1
 128 512 l 1
 192 512 l 1
 192 554.666666667 192 597.333333333 192 640 c 1
 128 640 l 1
 128 704 l 1
 192 704 l 1
 192 768 l 1
 256 768 l 1
 256 682.666666667 256 597.333333333 256 512 c 1
 320 512 l 1
 320 448 l 1
 128 448 l 1
448 448 m 1
 448 512 l 1
 384 512 l 1
 384 704 l 1
 448 704 l 1
 448 512 l 1
 576 512 l 1
 576 448 l 1
 448 448 l 1
768 448 m 1
 768 512 l 1
 832 512 l 1
 832 554.666666667 832 597.333333333 832 640 c 1
 768 640 l 1
 768 704 l 1
 832 704 l 1
 832 768 l 1
 896 768 l 1
 896 682.666666667 896 597.333333333 896 512 c 1
 960 512 l 1
 960 448 l 1
 768 448 l 1
576 512 m 1
 576 704 l 1
 448 704 l 1
 448 768 l 1
 576 768 l 1
 576 704 l 1
 640 704 l 1
 640 512 l 1
 576 512 l 1
EndSplineSet
EndChar

StartChar: uni101098
Encoding: 1052824 1052824 172
Width: 1024
Flags: HW
LayerCount: 2
Fore
SplineSet
0 832 m 1
 -0 533.333333333 0 234.666666667 0 -64 c 1
 1024 -64 l 1
 1024 234.666666667 1024 533.333333333 1024 832 c 1
 0 832 l 1
128 0 m 1
 128 64 l 1
 64 64 l 1
 64 256 l 1
 128 256 l 1
 128 64 l 1
 256 64 l 1
 256 0 l 1
 128 0 l 1
448 0 m 1
 448 64 l 1
 576 64 l 1
 576 0 l 1
 448 0 l 1
768 0 m 1
 768 64 l 1
 704 64 l 1
 704 128 l 1
 768 128 l 1
 768 64 l 1
 896 64 l 1
 896 0 l 1
 768 0 l 1
256 64 m 1
 256 256 l 1
 128 256 l 1
 128 320 l 1
 256 320 l 1
 256 256 l 1
 320 256 l 1
 320 64 l 1
 256 64 l 1
576 64 m 1
 576 128 l 1
 448 128 l 1
 448 192 l 1
 384 192 l 1
 384 256 l 1
 448 256 l 1
 448 192 l 1
 576 192 l 1
 576 256 l 1
 448 256 l 1
 448 320 l 1
 576 320 l 1
 576 256 l 1
 640 256 l 1
 640 64 l 1
 576 64 l 1
896 64 m 1
 896 128 l 1
 768 128 l 1
 768 192 l 1
 704 192 l 1
 704 256 l 1
 768 256 l 1
 768 192 l 1
 896 192 l 1
 896 128 l 1
 960 128 l 1
 960 64 l 1
 896 64 l 1
896 192 m 1
 896 256 l 1
 768 256 l 1
 768 320 l 1
 896 320 l 1
 896 256 l 1
 960 256 l 1
 960 192 l 1
 896 192 l 1
128 448 m 1
 128 512 l 1
 192 512 l 1
 192 554.666666667 192 597.333333333 192 640 c 1
 128 640 l 1
 128 704 l 1
 192 704 l 1
 192 768 l 1
 256 768 l 1
 256 682.666666667 256 597.333333333 256 512 c 1
 320 512 l 1
 320 448 l 1
 128 448 l 1
448 448 m 1
 448 512 l 1
 384 512 l 1
 384 704 l 1
 448 704 l 1
 448 512 l 1
 576 512 l 1
 576 448 l 1
 448 448 l 1
768 448 m 1
 768 512 l 1
 832 512 l 1
 832 554.666666667 832 597.333333333 832 640 c 1
 768 640 l 1
 768 704 l 1
 832 704 l 1
 832 768 l 1
 896 768 l 1
 896 682.666666667 896 597.333333333 896 512 c 1
 960 512 l 1
 960 448 l 1
 768 448 l 1
576 512 m 1
 576 704 l 1
 448 704 l 1
 448 768 l 1
 576 768 l 1
 576 704 l 1
 640 704 l 1
 640 512 l 1
 576 512 l 1
EndSplineSet
EndChar

StartChar: uni101099
Encoding: 1052825 1052825 173
Width: 1024
Flags: HW
LayerCount: 2
Fore
SplineSet
0 832 m 1
 -0 533.333333333 0 234.666666667 0 -64 c 1
 1024 -64 l 1
 1024 234.666666667 1024 533.333333333 1024 832 c 1
 0 832 l 1
128 0 m 1
 128 64 l 1
 64 64 l 1
 64 256 l 1
 128 256 l 1
 128 64 l 1
 256 64 l 1
 256 0 l 1
 128 0 l 1
448 0 m 1
 448 64 l 1
 576 64 l 1
 576 0 l 1
 448 0 l 1
768 0 m 1
 768 64 l 1
 896 64 l 1
 896 0 l 1
 768 0 l 1
256 64 m 1
 256 256 l 1
 128 256 l 1
 128 320 l 1
 256 320 l 1
 256 256 l 1
 320 256 l 1
 320 64 l 1
 256 64 l 1
576 64 m 1
 576 128 l 1
 448 128 l 1
 448 192 l 1
 384 192 l 1
 384 256 l 1
 448 256 l 1
 448 192 l 1
 576 192 l 1
 576 256 l 1
 448 256 l 1
 448 320 l 1
 576 320 l 1
 576 256 l 1
 640 256 l 1
 640 64 l 1
 576 64 l 1
896 64 m 1
 896 128 l 1
 768 128 l 1
 768 192 l 1
 704 192 l 1
 704 256 l 1
 768 256 l 1
 768 192 l 1
 896 192 l 1
 896 256 l 1
 768 256 l 1
 768 320 l 1
 896 320 l 1
 896 256 l 1
 960 256 l 1
 960 64 l 1
 896 64 l 1
128 448 m 1
 128 512 l 1
 192 512 l 1
 192 554.666666667 192 597.333333333 192 640 c 1
 128 640 l 1
 128 704 l 1
 192 704 l 1
 192 768 l 1
 256 768 l 1
 256 682.666666667 256 597.333333333 256 512 c 1
 320 512 l 1
 320 448 l 1
 128 448 l 1
448 448 m 1
 448 512 l 1
 384 512 l 1
 384 704 l 1
 448 704 l 1
 448 512 l 1
 576 512 l 1
 576 448 l 1
 448 448 l 1
768 448 m 1
 768 512 l 1
 832 512 l 1
 832 554.666666667 832 597.333333333 832 640 c 1
 768 640 l 1
 768 704 l 1
 832 704 l 1
 832 768 l 1
 896 768 l 1
 896 682.666666667 896 597.333333333 896 512 c 1
 960 512 l 1
 960 448 l 1
 768 448 l 1
576 512 m 1
 576 704 l 1
 448 704 l 1
 448 768 l 1
 576 768 l 1
 576 704 l 1
 640 704 l 1
 640 512 l 1
 576 512 l 1
EndSplineSet
EndChar

StartChar: uni10109A
Encoding: 1052826 1052826 174
Width: 1024
Flags: HW
LayerCount: 2
Fore
SplineSet
896 192 m 1
 896 256 l 1
 768 256 l 1
 768 192 l 1
 896 192 l 1
0 832 m 1
 -0 533.333333333 0 234.666666667 0 -64 c 1
 1024 -64 l 1
 1024 234.666666667 1024 533.333333333 1024 832 c 1
 0 832 l 1
128 0 m 1
 128 64 l 1
 64 64 l 1
 64 256 l 1
 128 256 l 1
 128 64 l 1
 256 64 l 1
 256 0 l 1
 128 0 l 1
448 0 m 1
 448 64 l 1
 576 64 l 1
 576 0 l 1
 448 0 l 1
704 0 m 1
 704 320 l 1
 960 320 l 1
 960 0 l 1
 896 0 l 1
 896 42.6666666667 896 85.3333333333 896 128 c 1
 768 128 l 1
 768 85.3333333333 768 42.6666666667 768 0 c 1
 704 0 l 1
256 64 m 1
 256 256 l 1
 128 256 l 1
 128 320 l 1
 256 320 l 1
 256 256 l 1
 320 256 l 1
 320 64 l 1
 256 64 l 1
576 64 m 1
 576 128 l 1
 448 128 l 1
 448 192 l 1
 384 192 l 1
 384 256 l 1
 448 256 l 1
 448 192 l 1
 576 192 l 1
 576 256 l 1
 448 256 l 1
 448 320 l 1
 576 320 l 1
 576 256 l 1
 640 256 l 1
 640 64 l 1
 576 64 l 1
128 448 m 1
 128 512 l 1
 192 512 l 1
 192 554.666666667 192 597.333333333 192 640 c 1
 128 640 l 1
 128 704 l 1
 192 704 l 1
 192 768 l 1
 256 768 l 1
 256 682.666666667 256 597.333333333 256 512 c 1
 320 512 l 1
 320 448 l 1
 128 448 l 1
448 448 m 1
 448 512 l 1
 384 512 l 1
 384 704 l 1
 448 704 l 1
 448 512 l 1
 576 512 l 1
 576 448 l 1
 448 448 l 1
768 448 m 1
 768 512 l 1
 832 512 l 1
 832 554.666666667 832 597.333333333 832 640 c 1
 768 640 l 1
 768 704 l 1
 832 704 l 1
 832 768 l 1
 896 768 l 1
 896 682.666666667 896 597.333333333 896 512 c 1
 960 512 l 1
 960 448 l 1
 768 448 l 1
576 512 m 1
 576 704 l 1
 448 704 l 1
 448 768 l 1
 576 768 l 1
 576 704 l 1
 640 704 l 1
 640 512 l 1
 576 512 l 1
EndSplineSet
EndChar

StartChar: uni10109B
Encoding: 1052827 1052827 175
Width: 1024
Flags: HW
LayerCount: 2
Fore
SplineSet
0 832 m 1
 -0 533.333333333 0 234.666666667 0 -64 c 1
 1024 -64 l 1
 1024 234.666666667 1024 533.333333333 1024 832 c 1
 0 832 l 1
128 0 m 1
 128 64 l 1
 64 64 l 1
 64 256 l 1
 128 256 l 1
 128 64 l 1
 256 64 l 1
 256 0 l 1
 128 0 l 1
448 0 m 1
 448 64 l 1
 576 64 l 1
 576 0 l 1
 448 0 l 1
704 0 m 1
 704 320 l 1
 896 320 l 1
 896 256 l 1
 768 256 l 1
 768 192 l 1
 896 192 l 1
 896 128 l 1
 768 128 l 1
 768 64 l 1
 896 64 l 1
 896 0 l 1
 704 0 l 1
256 64 m 1
 256 256 l 1
 128 256 l 1
 128 320 l 1
 256 320 l 1
 256 256 l 1
 320 256 l 1
 320 64 l 1
 256 64 l 1
576 64 m 1
 576 128 l 1
 448 128 l 1
 448 192 l 1
 384 192 l 1
 384 256 l 1
 448 256 l 1
 448 192 l 1
 576 192 l 1
 576 256 l 1
 448 256 l 1
 448 320 l 1
 576 320 l 1
 576 256 l 1
 640 256 l 1
 640 64 l 1
 576 64 l 1
896 64 m 1
 896 128 l 1
 960 128 l 1
 960 64 l 1
 896 64 l 1
896 192 m 1
 896 256 l 1
 960 256 l 1
 960 192 l 1
 896 192 l 1
128 448 m 1
 128 512 l 1
 192 512 l 1
 192 554.666666667 192 597.333333333 192 640 c 1
 128 640 l 1
 128 704 l 1
 192 704 l 1
 192 768 l 1
 256 768 l 1
 256 682.666666667 256 597.333333333 256 512 c 1
 320 512 l 1
 320 448 l 1
 128 448 l 1
448 448 m 1
 448 512 l 1
 384 512 l 1
 384 704 l 1
 448 704 l 1
 448 512 l 1
 576 512 l 1
 576 448 l 1
 448 448 l 1
768 448 m 1
 768 512 l 1
 832 512 l 1
 832 554.666666667 832 597.333333333 832 640 c 1
 768 640 l 1
 768 704 l 1
 832 704 l 1
 832 768 l 1
 896 768 l 1
 896 682.666666667 896 597.333333333 896 512 c 1
 960 512 l 1
 960 448 l 1
 768 448 l 1
576 512 m 1
 576 704 l 1
 448 704 l 1
 448 768 l 1
 576 768 l 1
 576 704 l 1
 640 704 l 1
 640 512 l 1
 576 512 l 1
EndSplineSet
EndChar

StartChar: uni10109C
Encoding: 1052828 1052828 176
Width: 1024
Flags: HW
LayerCount: 2
Fore
SplineSet
0 832 m 1
 -0 533.333333333 0 234.666666667 0 -64 c 1
 1024 -64 l 1
 1024 234.666666667 1024 533.333333333 1024 832 c 1
 0 832 l 1
128 0 m 1
 128 64 l 1
 64 64 l 1
 64 256 l 1
 128 256 l 1
 128 64 l 1
 256 64 l 1
 256 0 l 1
 128 0 l 1
448 0 m 1
 448 64 l 1
 576 64 l 1
 576 0 l 1
 448 0 l 1
768 0 m 1
 768 64 l 1
 704 64 l 1
 704 256 l 1
 768 256 l 1
 768 64 l 1
 960 64 l 1
 960 0 l 1
 768 0 l 1
256 64 m 1
 256 256 l 1
 128 256 l 1
 128 320 l 1
 256 320 l 1
 256 256 l 1
 320 256 l 1
 320 64 l 1
 256 64 l 1
576 64 m 1
 576 128 l 1
 448 128 l 1
 448 192 l 1
 384 192 l 1
 384 256 l 1
 448 256 l 1
 448 192 l 1
 576 192 l 1
 576 256 l 1
 448 256 l 1
 448 320 l 1
 576 320 l 1
 576 256 l 1
 640 256 l 1
 640 64 l 1
 576 64 l 1
768 256 m 1
 768 320 l 1
 960 320 l 1
 960 256 l 1
 768 256 l 1
128 448 m 1
 128 512 l 1
 192 512 l 1
 192 554.666666667 192 597.333333333 192 640 c 1
 128 640 l 1
 128 704 l 1
 192 704 l 1
 192 768 l 1
 256 768 l 1
 256 682.666666667 256 597.333333333 256 512 c 1
 320 512 l 1
 320 448 l 1
 128 448 l 1
448 448 m 1
 448 512 l 1
 384 512 l 1
 384 704 l 1
 448 704 l 1
 448 512 l 1
 576 512 l 1
 576 448 l 1
 448 448 l 1
768 448 m 1
 768 512 l 1
 832 512 l 1
 832 554.666666667 832 597.333333333 832 640 c 1
 768 640 l 1
 768 704 l 1
 832 704 l 1
 832 768 l 1
 896 768 l 1
 896 682.666666667 896 597.333333333 896 512 c 1
 960 512 l 1
 960 448 l 1
 768 448 l 1
576 512 m 1
 576 704 l 1
 448 704 l 1
 448 768 l 1
 576 768 l 1
 576 704 l 1
 640 704 l 1
 640 512 l 1
 576 512 l 1
EndSplineSet
EndChar

StartChar: uni10109D
Encoding: 1052829 1052829 177
Width: 1024
Flags: HW
LayerCount: 2
Fore
SplineSet
0 832 m 1
 -0 533.333333333 0 234.666666667 0 -64 c 1
 1024 -64 l 1
 1024 234.666666667 1024 533.333333333 1024 832 c 1
 0 832 l 1
128 0 m 1
 128 64 l 1
 64 64 l 1
 64 256 l 1
 128 256 l 1
 128 64 l 1
 256 64 l 1
 256 0 l 1
 128 0 l 1
448 0 m 1
 448 64 l 1
 576 64 l 1
 576 0 l 1
 448 0 l 1
704 0 m 1
 704 320 l 1
 896 320 l 1
 896 256 l 1
 768 256 l 1
 768 64 l 1
 896 64 l 1
 896 0 l 1
 704 0 l 1
256 64 m 1
 256 256 l 1
 128 256 l 1
 128 320 l 1
 256 320 l 1
 256 256 l 1
 320 256 l 1
 320 64 l 1
 256 64 l 1
576 64 m 1
 576 128 l 1
 448 128 l 1
 448 192 l 1
 384 192 l 1
 384 256 l 1
 448 256 l 1
 448 192 l 1
 576 192 l 1
 576 256 l 1
 448 256 l 1
 448 320 l 1
 576 320 l 1
 576 256 l 1
 640 256 l 1
 640 64 l 1
 576 64 l 1
896 64 m 1
 896 256 l 1
 960 256 l 1
 960 64 l 1
 896 64 l 1
128 448 m 1
 128 512 l 1
 192 512 l 1
 192 554.666666667 192 597.333333333 192 640 c 1
 128 640 l 1
 128 704 l 1
 192 704 l 1
 192 768 l 1
 256 768 l 1
 256 682.666666667 256 597.333333333 256 512 c 1
 320 512 l 1
 320 448 l 1
 128 448 l 1
448 448 m 1
 448 512 l 1
 384 512 l 1
 384 704 l 1
 448 704 l 1
 448 512 l 1
 576 512 l 1
 576 448 l 1
 448 448 l 1
768 448 m 1
 768 512 l 1
 832 512 l 1
 832 554.666666667 832 597.333333333 832 640 c 1
 768 640 l 1
 768 704 l 1
 832 704 l 1
 832 768 l 1
 896 768 l 1
 896 682.666666667 896 597.333333333 896 512 c 1
 960 512 l 1
 960 448 l 1
 768 448 l 1
576 512 m 1
 576 704 l 1
 448 704 l 1
 448 768 l 1
 576 768 l 1
 576 704 l 1
 640 704 l 1
 640 512 l 1
 576 512 l 1
EndSplineSet
EndChar

StartChar: uni10109E
Encoding: 1052830 1052830 178
Width: 1024
Flags: HW
LayerCount: 2
Fore
SplineSet
0 832 m 1
 -0 533.333333333 0 234.666666667 0 -64 c 1
 1024 -64 l 1
 1024 234.666666667 1024 533.333333333 1024 832 c 1
 0 832 l 1
128 0 m 1
 128 64 l 1
 64 64 l 1
 64 256 l 1
 128 256 l 1
 128 64 l 1
 256 64 l 1
 256 0 l 1
 128 0 l 1
448 0 m 1
 448 64 l 1
 576 64 l 1
 576 0 l 1
 448 0 l 1
704 0 m 1
 704 320 l 1
 960 320 l 1
 960 256 l 1
 768 256 l 1
 768 192 l 1
 896 192 l 1
 896 128 l 1
 768 128 l 1
 768 64 l 1
 960 64 l 1
 960 0 l 1
 704 0 l 1
256 64 m 1
 256 256 l 1
 128 256 l 1
 128 320 l 1
 256 320 l 1
 256 256 l 1
 320 256 l 1
 320 64 l 1
 256 64 l 1
576 64 m 1
 576 128 l 1
 448 128 l 1
 448 192 l 1
 384 192 l 1
 384 256 l 1
 448 256 l 1
 448 192 l 1
 576 192 l 1
 576 256 l 1
 448 256 l 1
 448 320 l 1
 576 320 l 1
 576 256 l 1
 640 256 l 1
 640 64 l 1
 576 64 l 1
128 448 m 1
 128 512 l 1
 192 512 l 1
 192 554.666666667 192 597.333333333 192 640 c 1
 128 640 l 1
 128 704 l 1
 192 704 l 1
 192 768 l 1
 256 768 l 1
 256 682.666666667 256 597.333333333 256 512 c 1
 320 512 l 1
 320 448 l 1
 128 448 l 1
448 448 m 1
 448 512 l 1
 384 512 l 1
 384 704 l 1
 448 704 l 1
 448 512 l 1
 576 512 l 1
 576 448 l 1
 448 448 l 1
768 448 m 1
 768 512 l 1
 832 512 l 1
 832 554.666666667 832 597.333333333 832 640 c 1
 768 640 l 1
 768 704 l 1
 832 704 l 1
 832 768 l 1
 896 768 l 1
 896 682.666666667 896 597.333333333 896 512 c 1
 960 512 l 1
 960 448 l 1
 768 448 l 1
576 512 m 1
 576 704 l 1
 448 704 l 1
 448 768 l 1
 576 768 l 1
 576 704 l 1
 640 704 l 1
 640 512 l 1
 576 512 l 1
EndSplineSet
EndChar

StartChar: uni10109F
Encoding: 1052831 1052831 179
Width: 1024
Flags: HW
LayerCount: 2
Fore
SplineSet
0 832 m 1
 -0 533.333333333 0 234.666666667 0 -64 c 1
 1024 -64 l 1
 1024 234.666666667 1024 533.333333333 1024 832 c 1
 0 832 l 1
128 0 m 1
 128 64 l 1
 64 64 l 1
 64 256 l 1
 128 256 l 1
 128 64 l 1
 256 64 l 1
 256 0 l 1
 128 0 l 1
448 0 m 1
 448 64 l 1
 576 64 l 1
 576 0 l 1
 448 0 l 1
704 0 m 1
 704 320 l 1
 960 320 l 1
 960 256 l 1
 768 256 l 1
 768 192 l 1
 896 192 l 1
 896 128 l 1
 768 128 l 1
 768 85.3333333333 768 42.6666666667 768 0 c 1
 704 0 l 1
256 64 m 1
 256 256 l 1
 128 256 l 1
 128 320 l 1
 256 320 l 1
 256 256 l 1
 320 256 l 1
 320 64 l 1
 256 64 l 1
576 64 m 1
 576 128 l 1
 448 128 l 1
 448 192 l 1
 384 192 l 1
 384 256 l 1
 448 256 l 1
 448 192 l 1
 576 192 l 1
 576 256 l 1
 448 256 l 1
 448 320 l 1
 576 320 l 1
 576 256 l 1
 640 256 l 1
 640 64 l 1
 576 64 l 1
128 448 m 1
 128 512 l 1
 192 512 l 1
 192 554.666666667 192 597.333333333 192 640 c 1
 128 640 l 1
 128 704 l 1
 192 704 l 1
 192 768 l 1
 256 768 l 1
 256 682.666666667 256 597.333333333 256 512 c 1
 320 512 l 1
 320 448 l 1
 128 448 l 1
448 448 m 1
 448 512 l 1
 384 512 l 1
 384 704 l 1
 448 704 l 1
 448 512 l 1
 576 512 l 1
 576 448 l 1
 448 448 l 1
768 448 m 1
 768 512 l 1
 832 512 l 1
 832 554.666666667 832 597.333333333 832 640 c 1
 768 640 l 1
 768 704 l 1
 832 704 l 1
 832 768 l 1
 896 768 l 1
 896 682.666666667 896 597.333333333 896 512 c 1
 960 512 l 1
 960 448 l 1
 768 448 l 1
576 512 m 1
 576 704 l 1
 448 704 l 1
 448 768 l 1
 576 768 l 1
 576 704 l 1
 640 704 l 1
 640 512 l 1
 576 512 l 1
EndSplineSet
EndChar

StartChar: uni1010A0
Encoding: 1052832 1052832 180
Width: 1024
Flags: HW
LayerCount: 2
Fore
SplineSet
576 192 m 1
 576 256 l 1
 448 256 l 1
 448 192 l 1
 576 192 l 1
0 832 m 1
 -0 533.333333333 0 234.666666667 0 -64 c 1
 1024 -64 l 1
 1024 234.666666667 1024 533.333333333 1024 832 c 1
 0 832 l 1
128 0 m 1
 128 64 l 1
 64 64 l 1
 64 256 l 1
 128 256 l 1
 128 64 l 1
 256 64 l 1
 256 0 l 1
 128 0 l 1
384 0 m 1
 384 320 l 1
 640 320 l 1
 640 0 l 1
 576 0 l 1
 576 42.6666666667 576 85.3333333333 576 128 c 1
 448 128 l 1
 448 85.3333333333 448 42.6666666667 448 0 c 1
 384 0 l 1
768 0 m 1
 768 64 l 1
 704 64 l 1
 704 256 l 1
 768 256 l 1
 768 64 l 1
 896 64 l 1
 896 0 l 1
 768 0 l 1
256 64 m 1
 256 256 l 1
 128 256 l 1
 128 320 l 1
 256 320 l 1
 256 256 l 1
 320 256 l 1
 320 64 l 1
 256 64 l 1
896 64 m 1
 896 256 l 1
 768 256 l 1
 768 320 l 1
 896 320 l 1
 896 256 l 1
 960 256 l 1
 960 64 l 1
 896 64 l 1
128 448 m 1
 128 512 l 1
 192 512 l 1
 192 554.666666667 192 597.333333333 192 640 c 1
 128 640 l 1
 128 704 l 1
 192 704 l 1
 192 768 l 1
 256 768 l 1
 256 682.666666667 256 597.333333333 256 512 c 1
 320 512 l 1
 320 448 l 1
 128 448 l 1
448 448 m 1
 448 512 l 1
 384 512 l 1
 384 704 l 1
 448 704 l 1
 448 512 l 1
 576 512 l 1
 576 448 l 1
 448 448 l 1
768 448 m 1
 768 512 l 1
 832 512 l 1
 832 554.666666667 832 597.333333333 832 640 c 1
 768 640 l 1
 768 704 l 1
 832 704 l 1
 832 768 l 1
 896 768 l 1
 896 682.666666667 896 597.333333333 896 512 c 1
 960 512 l 1
 960 448 l 1
 768 448 l 1
576 512 m 1
 576 704 l 1
 448 704 l 1
 448 768 l 1
 576 768 l 1
 576 704 l 1
 640 704 l 1
 640 512 l 1
 576 512 l 1
EndSplineSet
EndChar

StartChar: uni1010A1
Encoding: 1052833 1052833 181
Width: 1024
Flags: HW
LayerCount: 2
Fore
SplineSet
576 192 m 1
 576 256 l 1
 448 256 l 1
 448 192 l 1
 576 192 l 1
0 832 m 1
 -0 533.333333333 0 234.666666667 0 -64 c 1
 1024 -64 l 1
 1024 234.666666667 1024 533.333333333 1024 832 c 1
 0 832 l 1
128 0 m 1
 128 64 l 1
 64 64 l 1
 64 256 l 1
 128 256 l 1
 128 64 l 1
 256 64 l 1
 256 0 l 1
 128 0 l 1
384 0 m 1
 384 320 l 1
 640 320 l 1
 640 0 l 1
 576 0 l 1
 576 42.6666666667 576 85.3333333333 576 128 c 1
 448 128 l 1
 448 85.3333333333 448 42.6666666667 448 0 c 1
 384 0 l 1
768 0 m 1
 768 64 l 1
 832 64 l 1
 832 106.666666667 832 149.333333333 832 192 c 1
 768 192 l 1
 768 256 l 1
 832 256 l 1
 832 320 l 1
 896 320 l 1
 896 234.666666667 896 149.333333333 896 64 c 1
 960 64 l 1
 960 0 l 1
 768 0 l 1
256 64 m 1
 256 256 l 1
 128 256 l 1
 128 320 l 1
 256 320 l 1
 256 256 l 1
 320 256 l 1
 320 64 l 1
 256 64 l 1
128 448 m 1
 128 512 l 1
 192 512 l 1
 192 554.666666667 192 597.333333333 192 640 c 1
 128 640 l 1
 128 704 l 1
 192 704 l 1
 192 768 l 1
 256 768 l 1
 256 682.666666667 256 597.333333333 256 512 c 1
 320 512 l 1
 320 448 l 1
 128 448 l 1
448 448 m 1
 448 512 l 1
 384 512 l 1
 384 704 l 1
 448 704 l 1
 448 512 l 1
 576 512 l 1
 576 448 l 1
 448 448 l 1
768 448 m 1
 768 512 l 1
 832 512 l 1
 832 554.666666667 832 597.333333333 832 640 c 1
 768 640 l 1
 768 704 l 1
 832 704 l 1
 832 768 l 1
 896 768 l 1
 896 682.666666667 896 597.333333333 896 512 c 1
 960 512 l 1
 960 448 l 1
 768 448 l 1
576 512 m 1
 576 704 l 1
 448 704 l 1
 448 768 l 1
 576 768 l 1
 576 704 l 1
 640 704 l 1
 640 512 l 1
 576 512 l 1
EndSplineSet
EndChar

StartChar: uni1010A2
Encoding: 1052834 1052834 182
Width: 1024
Flags: HW
LayerCount: 2
Fore
SplineSet
576 192 m 1
 576 256 l 1
 448 256 l 1
 448 192 l 1
 576 192 l 1
896 192 m 1
 896 256 l 1
 704 256 l 1
 704 320 l 1
 960 320 l 1
 960 128 l 1
 768 128 l 1
 768 64 l 1
 960 64 l 1
 960 0 l 1
 704 0 l 1
 704 192 l 1
 896 192 l 1
0 832 m 1
 -0 533.333333333 0 234.666666667 0 -64 c 1
 1024 -64 l 1
 1024 234.666666667 1024 533.333333333 1024 832 c 1
 0 832 l 1
128 0 m 1
 128 64 l 1
 64 64 l 1
 64 256 l 1
 128 256 l 1
 128 64 l 1
 256 64 l 1
 256 0 l 1
 128 0 l 1
384 0 m 1
 384 320 l 1
 640 320 l 1
 640 0 l 1
 576 0 l 1
 576 42.6666666667 576 85.3333333333 576 128 c 1
 448 128 l 1
 448 85.3333333333 448 42.6666666667 448 0 c 1
 384 0 l 1
256 64 m 1
 256 256 l 1
 128 256 l 1
 128 320 l 1
 256 320 l 1
 256 256 l 1
 320 256 l 1
 320 64 l 1
 256 64 l 1
128 448 m 1
 128 512 l 1
 192 512 l 1
 192 554.666666667 192 597.333333333 192 640 c 1
 128 640 l 1
 128 704 l 1
 192 704 l 1
 192 768 l 1
 256 768 l 1
 256 682.666666667 256 597.333333333 256 512 c 1
 320 512 l 1
 320 448 l 1
 128 448 l 1
448 448 m 1
 448 512 l 1
 384 512 l 1
 384 704 l 1
 448 704 l 1
 448 512 l 1
 576 512 l 1
 576 448 l 1
 448 448 l 1
768 448 m 1
 768 512 l 1
 832 512 l 1
 832 554.666666667 832 597.333333333 832 640 c 1
 768 640 l 1
 768 704 l 1
 832 704 l 1
 832 768 l 1
 896 768 l 1
 896 682.666666667 896 597.333333333 896 512 c 1
 960 512 l 1
 960 448 l 1
 768 448 l 1
576 512 m 1
 576 704 l 1
 448 704 l 1
 448 768 l 1
 576 768 l 1
 576 704 l 1
 640 704 l 1
 640 512 l 1
 576 512 l 1
EndSplineSet
EndChar

